# ProBuilder 4.2.3
# https://unity3d.com/unity/features/worldbuilding/probuilder
# 22/02/2021 09:39:20

mtllib ./Anvil.mtl
o Anvil

g Anvil
v 0 0.5577821 1.862645E-08
v -0.65 0.5577821 1.862645E-08
v 0 0.5577821 -1.2
v -0.65 0.5577821 -1.2
v 0 0 -1.2
v -0.65 0 -1.2
v 0 0 0
v -0.65 0 0
v -0.65 0.03830862 1.862645E-08
v 0 0.03830862 1.862645E-08
v -0.65 0.03830862 -1.2
v 0 0.03830862 -1.2
v -0.111855 0.2978495 -0.2576126
v -0.538145 0.2978495 -0.2576126
v -0.65 0.5005211 1.862645E-08
v 0 0.5005211 1.862645E-08
v -0.538145 0.2978495 -0.9423873
v -0.65 0.5005211 -1.2
v -0.111855 0.2978495 -0.9423873
v 0 0.5005211 -1.2
v -0.538145 0.1655672 -0.2576126
v -0.111855 0.1655672 -0.2576126
v -0.538145 0.1655672 -0.9423873
v -0.111855 0.1655672 -0.9423873

vt 0 1.862645E-08
vt 0.65 1.862645E-08
vt 0 -1.2
vt 0.65 -1.2
vt -0.65 -1.2
vt -0.65 0
vt -0.65 0.03829441
vt 0 0.03829441
vt 0 -0.02484738
vt -1.2 -0.02484738
vt -1.2 0.01343325
vt 1.862645E-08 0.01343325
vt 0 -0.03267988
vt 0 0.005614534
vt 0.65 0.005614534
vt 0.65 -0.03267988
vt 1.2 0.03828062
vt 1.2 0
vt -0.111855 0.3047547
vt -0.538145 0.3047547
vt -0.65 0.5003355
vt 0 0.5003355
vt -0.65 0.5575752
vt 0 0.5575752
vt -0.2576126 0.2770603
vt -0.9423873 0.2770603
vt -1.2 0.4753079
vt 1.862645E-08 0.4753079
vt -1.2 0.532527
vt 1.862645E-08 0.532527
vt 0.111855 0.2720748
vt 0 0.4676556
vt 0.65 0.4676556
vt 0.538145 0.2720748
vt 0 0.5248953
vt 0.65 0.5248953
vt 0.2576126 0.3019077
vt 1.2 0.5001552
vt 0.9423873 0.3019077
vt -1.862645E-08 0.5573744
vt 1.2 0.5573744
vt -0.538145 0.1725214
vt -0.111855 0.1725214
vt -0.9423873 0.1448746
vt -0.2576126 0.1448746
vt 0.111855 0.1398415
vt 0.538145 0.1398415
vt 0.2576126 0.169722
vt 0.9423873 0.169722

vn 0 1 0
vn 0 -1 0
vn 0 -4.862209E-07 1
vn -1 0 0
vn 0 0 -1
vn 1 0 0
vn 0 -0.7859305 0.6183149
vn -0.8755115 -0.4831972 0
vn 0 -0.7859306 -0.6183148
vn 0.8755115 -0.4831972 0
vn 0 0.8965715 0.442899
vn -0.7511014 0.6601869 0
vn 0 0.8965716 -0.4428989
vn 0.7511014 0.6601869 0

usemtl MediumPropGrid
f 3/3/1 4/4/1 2/2/1 1/1/1
f 7/1/2 8/6/2 6/5/2 5/3/2
f 10/8/3 9/7/3 8/6/3 7/1/3
f 9/12/4 11/11/4 6/10/4 8/9/4
f 6/16/5 11/15/5 12/14/5 5/13/5
f 5/18/6 12/17/6 10/8/6 7/1/6
f 16/22/7 15/21/7 14/20/7 13/19/7
f 1/24/3 2/23/3 15/21/3 16/22/3
f 15/28/8 18/27/8 17/26/8 14/25/8
f 2/30/4 4/29/4 18/27/4 15/28/4
f 17/34/9 18/33/9 20/32/9 19/31/9
f 18/33/5 4/36/5 3/35/5 20/32/5
f 19/39/10 20/38/10 16/22/10 13/37/10
f 20/38/6 3/41/6 1/40/6 16/22/6
f 22/43/11 21/42/11 9/7/11 10/8/11
f 13/19/3 14/20/3 21/42/3 22/43/3
f 21/45/12 23/44/12 11/11/12 9/12/12
f 14/25/4 17/26/4 23/44/4 21/45/4
f 11/15/13 23/47/13 24/46/13 12/14/13
f 23/47/5 17/34/5 19/31/5 24/46/5
f 12/17/14 24/49/14 22/48/14 10/8/14
f 24/49/6 19/39/6 13/37/6 22/48/6

