# ProBuilder 4.2.3
# https://unity3d.com/unity/features/worldbuilding/probuilder
# 22/02/2021 10:20:58

mtllib ./ArcheryTarget.mtl
o ArcheryTarget

g Legs
v -0.3490225 1.053974 -0.1521495
v 0.3513603 1.053974 -0.1521495
v 0.3513603 1.053974 -0.2634623
v -0.3490225 1.053974 -0.2634623
v 0.3513603 1.114494 -0.1521495
v 0.3513603 1.114494 -0.2634623
v -0.3490225 1.114494 -0.1521495
v -0.3490225 1.114494 -0.2634623
v -0.2701133 0.3776585 -0.4045545
v 0.2724511 0.3776585 -0.4045545
v 0.2724511 0.3776585 -0.4645292
v -0.2701133 0.3776585 -0.4645292
v 0.2724511 0.4376332 -0.4045545
v 0.2724511 0.4376332 -0.4645292
v -0.2701133 0.4376332 -0.4045545
v -0.2701133 0.4376332 -0.4645292
v -0.2701133 0.3776585 0.05001512
v 0.2724511 0.3776585 0.05001512
v 0.2724511 0.3776585 -0.009959501
v -0.2701133 0.3776585 -0.009959501
v 0.2724511 0.4376332 0.05001512
v 0.2724511 0.4376332 -0.009959501
v -0.2701133 0.4376332 0.05001512
v -0.2701133 0.4376332 -0.009959501
v 0.2679043 0.3761482 -0.4383843
v 0.2679043 0.3761482 0.02243842
v 0.3334222 0.3761482 0.02243842
v 0.3334222 0.3761482 -0.4383843
v 0.2679043 0.4361229 0.02243842
v 0.3334222 0.4361229 0.02243842
v 0.2679043 0.4361229 -0.4383843
v 0.3334222 0.4361229 -0.4383843
v -0.3336586 0.3761482 -0.4383843
v -0.3336586 0.3761482 0.02243842
v -0.2681407 0.3761482 0.02243842
v -0.2681407 0.3761482 -0.4383843
v -0.3336586 0.4361229 0.02243842
v -0.2681407 0.4361229 0.02243842
v -0.3336586 0.4361229 -0.4383843
v -0.2681407 0.4361229 -0.4383843
v -0.3336586 0.005816144 -0.5328082
v -0.3336586 1.085603 -0.2064311
v -0.2681407 1.085603 -0.2064311
v -0.2681407 0.005816144 -0.5328082
v -0.3336586 1.102956 -0.2638405
v -0.2681407 1.102956 -0.2638405
v -0.3336586 0.02316873 -0.5902176
v -0.2681407 0.02316873 -0.5902176
v 0.2679043 0.005816144 -0.5328082
v 0.2679043 1.085603 -0.2064311
v 0.3334222 1.085603 -0.2064311
v 0.3334222 0.005816144 -0.5328082
v 0.2679043 1.102956 -0.2638405
v 0.3334222 1.102956 -0.2638405
v 0.2679043 0.02316873 -0.5902176
v 0.3334222 0.02316873 -0.5902176
v 0.2679043 1.085604 -0.210833
v 0.2679043 0.00581541 0.1155381
v 0.3334222 0.00581541 0.1155381
v 0.3334222 1.085604 -0.210833
v 0.2679043 0.02316766 0.1729476
v 0.3334222 0.02316766 0.1729476
v 0.2679043 1.102956 -0.1534234
v 0.3334222 1.102956 -0.1534234
v -0.3336586 1.085604 -0.210833
v -0.3336586 0.00581541 0.1155381
v -0.2681407 0.00581541 0.1155381
v -0.2681407 1.085604 -0.210833
v -0.3336586 0.02316766 0.1729476
v -0.2681407 0.02316766 0.1729476
v -0.3336586 1.102956 -0.1534234
v -0.2681407 1.102956 -0.1534234

vt 0.375 0
vt 0.375 0.25
vt 0.625 0.25
vt 0.625 0
vt 0.375 0.5
vt 0.625 0.5
vt 0.375 0.75
vt 0.625 0.75
vt 0.375 1
vt 0.625 1
vt 0.875 0.25
vt 0.875 0
vt 0.125 0
vt 0.125 0.25

vn 0 -1 0
vn 1 0 0
vn 0 1 0
vn -1 0 0
vn 0 0 -1
vn 0 0 1
vn 0 -0.2893326 0.9572287
vn 0 0.9572282 0.2893339
vn 0 0.2893325 -0.9572287
vn 0 -0.9572287 -0.2893324
vn 0 -0.2893272 -0.9572303
vn 0 -0.9572304 0.2893267
vn 0 0.2893271 0.9572303
vn 0 0.95723 -0.2893279

usemtl WoodGrid
f 4/4/1 3/3/1 2/2/1 1/1/1
f 3/3/2 6/6/2 5/5/2 2/2/2
f 6/6/3 8/8/3 7/7/3 5/5/3
f 8/8/4 4/10/4 1/9/4 7/7/4
f 8/12/5 6/11/5 3/3/5 4/4/5
f 1/1/6 2/2/6 5/14/6 7/13/6
f 12/4/1 11/3/1 10/2/1 9/1/1
f 11/3/2 14/6/2 13/5/2 10/2/2
f 14/6/3 16/8/3 15/7/3 13/5/3
f 16/8/4 12/10/4 9/9/4 15/7/4
f 16/12/5 14/11/5 11/3/5 12/4/5
f 9/1/6 10/2/6 13/14/6 15/13/6
f 20/4/1 19/3/1 18/2/1 17/1/1
f 19/3/2 22/6/2 21/5/2 18/2/2
f 22/6/3 24/8/3 23/7/3 21/5/3
f 24/8/4 20/10/4 17/9/4 23/7/4
f 24/12/5 22/11/5 19/3/5 20/4/5
f 17/1/6 18/2/6 21/14/6 23/13/6
f 28/4/1 27/3/1 26/2/1 25/1/1
f 27/3/6 30/6/6 29/5/6 26/2/6
f 30/6/3 32/8/3 31/7/3 29/5/3
f 32/8/5 28/10/5 25/9/5 31/7/5
f 32/12/2 30/11/2 27/3/2 28/4/2
f 25/1/4 26/2/4 29/14/4 31/13/4
f 36/4/1 35/3/1 34/2/1 33/1/1
f 35/3/6 38/6/6 37/5/6 34/2/6
f 38/6/3 40/8/3 39/7/3 37/5/3
f 40/8/5 36/10/5 33/9/5 39/7/5
f 40/12/2 38/11/2 35/3/2 36/4/2
f 33/1/4 34/2/4 37/14/4 39/13/4
f 44/4/7 43/3/7 42/2/7 41/1/7
f 43/3/8 46/6/8 45/5/8 42/2/8
f 46/6/9 48/8/9 47/7/9 45/5/9
f 48/8/10 44/10/10 41/9/10 47/7/10
f 48/12/2 46/11/2 43/3/2 44/4/2
f 41/1/4 42/2/4 45/14/4 47/13/4
f 52/4/7 51/3/7 50/2/7 49/1/7
f 51/3/8 54/6/8 53/5/8 50/2/8
f 54/6/9 56/8/9 55/7/9 53/5/9
f 56/8/10 52/10/10 49/9/10 55/7/10
f 56/12/2 54/11/2 51/3/2 52/4/2
f 49/1/4 50/2/4 53/14/4 55/13/4
f 60/4/11 59/3/11 58/2/11 57/1/11
f 59/3/12 62/6/12 61/5/12 58/2/12
f 62/6/13 64/8/13 63/7/13 61/5/13
f 64/8/14 60/10/14 57/9/14 63/7/14
f 64/12/2 62/11/2 59/3/2 60/4/2
f 57/1/4 58/2/4 61/14/4 63/13/4
f 68/4/11 67/3/11 66/2/11 65/1/11
f 67/3/12 70/6/12 69/5/12 66/2/12
f 70/6/13 72/8/13 71/7/13 69/5/13
f 72/8/14 68/10/14 65/9/14 71/7/14
f 72/12/2 70/11/2 67/3/2 68/4/2
f 65/1/4 66/2/4 69/14/4 71/13/4

g Target 1
v 0.4603626 0.819127 -0.0664321
v 0.4603626 0.833124 -0.02012353
v 0.3916079 0.9622915 -0.05916501
v 0.3916079 0.9482945 -0.1054736
v 0.2845198 1.064799 -0.0901485
v 0.2845198 1.050802 -0.1364571
v 0.1495809 1.130614 -0.1100411
v 0.1495809 1.116617 -0.1563497
v 0 1.153292 -0.1168956
v 0 1.139295 -0.1632042
v -0.1495809 1.130613 -0.1100411
v -0.1495809 1.116616 -0.1563497
v -0.2845197 1.064799 -0.09014847
v -0.2845197 1.050802 -0.136457
v -0.3916077 0.9622914 -0.05916499
v -0.3916077 0.9482944 -0.1054735
v -0.4603625 0.8331239 -0.02012352
v -0.4603625 0.8191268 -0.06643207
v -0.4840537 0.6899406 0.02315428
v -0.4840537 0.6759436 -0.02315428
v -0.4603625 0.5467573 0.06643207
v -0.4603625 0.5327603 0.02012352
v -0.3916077 0.4175898 0.1054735
v -0.3916077 0.4035929 0.05916497
v -0.2845196 0.3150819 0.136457
v -0.2845196 0.3010849 0.09014846
v -0.1495808 0.2492677 0.1563496
v -0.1495808 0.2352708 0.1100411
v -1.442592E-08 0.2265898 0.1632042
v -1.442592E-08 0.2125928 0.1168956
v 0.1495808 0.2492678 0.1563496
v 0.1495808 0.2352708 0.1100411
v 0.2845196 0.3150819 0.136457
v 0.2845196 0.301085 0.09014845
v 0.3916076 0.4175899 0.1054735
v 0.3916076 0.4035929 0.05916497
v 0.4603623 0.5467573 0.06643207
v 0.4603623 0.5327603 0.02012351
v 0.4840536 0.6899406 0.02315428
v 0.4840536 0.6759436 -0.02315428
v 0 0.6759436 -0.02315428
v 0 0.6899406 0.02315428

vt 0.8168443 0.02807704
vt 0.8168443 0.1703142
vt 0.8215736 0.1703142
vt 0.8215736 0.02807704
vt 0.826303 0.1703142
vt 0.826303 0.02807704
vt 0.8310323 0.1703142
vt 0.8310323 0.02807704
vt 0.8357618 0.1703142
vt 0.8357618 0.02807704
vt 0.8404911 0.1703142
vt 0.8404911 0.02807704
vt 0.8452204 0.1703142
vt 0.8452204 0.02807704
vt 0.84995 0.1703142
vt 0.84995 0.02807704
vt 0.8546793 0.1703142
vt 0.8546793 0.02807704
vt 0.8594087 0.1703142
vt 0.8594087 0.02807704
vt 0.864138 0.1703142
vt 0.864138 0.02807704
vt 0.8688675 0.1703142
vt 0.8688675 0.02807704
vt 0.8735968 0.1703142
vt 0.8735968 0.02807704
vt 0.8783262 0.1703142
vt 0.8783262 0.02807704
vt 0.8830554 0.1703142
vt 0.8830554 0.02807704
vt 0.8877848 0.1703142
vt 0.8877848 0.02807704
vt 0.8925143 0.1703142
vt 0.8925143 0.02807704
vt 0.8972436 0.1703142
vt 0.8972436 0.02807704
vt 0.9019731 0.1703142
vt 0.9019731 0.02807704
vt 0.9067024 0.1703142
vt 0.9067024 0.02807704
vt 0.9114319 0.1703142
vt 0.9114319 0.02807704
vt 0.1827779 0.08071318
vt 0.1313859 0.1155107
vt 0.1918008 0.09842165
vt 0.1687244 0.06665966
vt 0.1949099 0.1180516
vt 0.1510159 0.05763675
vt 0.1918008 0.1376816
vt 0.1313859 0.05452767
vt 0.1827779 0.15539
vt 0.1117559 0.05763675
vt 0.1687244 0.1694436
vt 0.09404752 0.06665967
vt 0.1510159 0.1784665
vt 0.07999396 0.08071318
vt 0.1313859 0.1815756
vt 0.07097107 0.09842166
vt 0.111756 0.1784665
vt 0.067862 0.1180516
vt 0.09404749 0.1694436
vt 0.07097107 0.1376816
vt 0.07999396 0.15539
vt 0.9427421 0.639086
vt 0.5095496 0.4862709
vt 0.8780451 0.7611428
vt 0.9650351 0.5037847
vt 0.7772772 0.8580078
vt 0.9427422 0.3684836
vt 0.6503022 0.9201988
vt 0.8780453 0.2464266
vt 0.5095496 0.9416283
vt 0.7772775 0.1495617
vt 0.3687969 0.9201988
vt 0.6503024 0.08737063
vt 0.2418219 0.8580078
vt 0.5095496 0.06594115
vt 0.1410541 0.7611428
vt 0.3687968 0.08737063
vt 0.07635716 0.639086
vt 0.2418219 0.1495619
vt 0.05406404 0.5037847
vt 0.1410541 0.2464268
vt 0.07635716 0.3684836

vn 0.9510568 0.2957995 -0.08940688
vn 0.8090168 0.5626462 -0.1700623
vn 0.5877852 0.7744157 -0.2340704
vn 0.3090172 0.9103801 -0.2751663
vn -5.65759E-07 0.9572299 -0.2893286
vn -0.3090172 0.9103799 -0.2751668
vn -0.5877853 0.7744156 -0.2340704
vn -0.8090171 0.5626456 -0.1700625
vn -0.9510565 0.2958003 -0.08940726
vn -1 0 0
vn -0.9510565 -0.2958004 0.08940731
vn -0.8090168 -0.5626462 0.170062
vn -0.5877853 -0.7744154 0.234071
vn -0.309017 -0.9103799 0.2751669
vn 1.131518E-07 -0.9572302 0.2893277
vn 0.3090172 -0.91038 0.2751665
vn 0.5877853 -0.7744156 0.2340704
vn 0.809017 -0.5626458 0.1700626
vn 0.9510565 -0.2958004 0.0894073
vn 1 -9.881921E-07 2.998522E-07
vn 7.303509E-08 -0.2893273 -0.9572302
vn -3.375844E-08 0.2893271 0.9572303

usemtl MediumPropGrid
f 77/82/36 114/79/36 75/80/36
f 83/88/36 114/79/36 81/86/36
f 99/93/36 114/79/36 97/95/36
f 93/98/36 114/79/36 91/96/36
f 75/17/16 74/16/15 73/15/15
f 73/15/15 76/18/16 75/17/16
f 77/19/17 75/17/16 76/18/16
f 76/18/16 78/20/17 77/19/17
f 79/21/18 77/19/17 78/20/17
f 78/20/17 80/22/18 79/21/18
f 81/23/19 79/21/18 80/22/18
f 80/22/18 82/24/19 81/23/19
f 83/25/20 81/23/19 82/24/19
f 82/24/19 84/26/20 83/25/20
f 85/27/21 83/25/20 84/26/20
f 84/26/20 86/28/21 85/27/21
f 87/29/22 85/27/21 86/28/21
f 86/28/21 88/30/22 87/29/22
f 89/31/23 87/29/22 88/30/22
f 88/30/22 90/32/23 89/31/23
f 91/33/24 89/31/23 90/32/23
f 90/32/23 92/34/24 91/33/24
f 93/35/25 91/33/24 92/34/24
f 92/34/24 94/36/25 93/35/25
f 95/37/26 93/35/25 94/36/25
f 94/36/25 96/38/26 95/37/26
f 97/39/27 95/37/26 96/38/26
f 96/38/26 98/40/27 97/39/27
f 99/41/28 97/39/27 98/40/27
f 98/40/27 100/42/28 99/41/28
f 101/43/29 99/41/28 100/42/28
f 100/42/28 102/44/29 101/43/29
f 103/45/30 101/43/29 102/44/29
f 102/44/29 104/46/30 103/45/30
f 105/47/31 103/45/30 104/46/30
f 104/46/30 106/48/31 105/47/31
f 107/49/32 105/47/31 106/48/31
f 106/48/31 108/50/32 107/49/32
f 109/51/33 107/49/32 108/50/32
f 108/50/32 110/52/33 109/51/33
f 111/53/34 109/51/33 110/52/33
f 110/52/33 112/54/34 111/53/34
f 74/55/15 111/53/34 112/54/34
f 112/54/34 73/56/15 74/55/15
f 112/61/35 113/58/35 76/57/35
f 76/57/35 73/59/35 112/61/35
f 78/60/35 76/57/35 113/58/35
f 113/58/35 80/62/35 78/60/35
f 108/65/35 113/58/35 112/61/35
f 112/61/35 110/63/35 108/65/35
f 82/64/35 80/62/35 113/58/35
f 113/58/35 84/66/35 82/64/35
f 104/69/35 113/58/35 108/65/35
f 108/65/35 106/67/35 104/69/35
f 86/68/35 84/66/35 113/58/35
f 113/58/35 88/70/35 86/68/35
f 100/73/35 113/58/35 104/69/35
f 104/69/35 102/71/35 100/73/35
f 90/72/35 88/70/35 113/58/35
f 113/58/35 92/74/35 90/72/35
f 96/77/35 113/58/35 100/73/35
f 100/73/35 98/75/35 96/77/35
f 94/76/35 92/74/35 113/58/35
f 113/58/35 96/77/35 94/76/35
f 74/78/36 75/80/36 114/79/36
f 114/79/36 111/81/36 74/78/36
f 109/83/36 111/81/36 114/79/36
f 114/79/36 107/85/36 109/83/36
f 81/86/36 114/79/36 77/82/36
f 77/82/36 79/84/36 81/86/36
f 105/87/36 107/85/36 114/79/36
f 114/79/36 103/89/36 105/87/36
f 87/92/36 114/79/36 83/88/36
f 83/88/36 85/90/36 87/92/36
f 101/91/36 103/89/36 114/79/36
f 114/79/36 99/93/36 101/91/36
f 91/96/36 114/79/36 87/92/36
f 87/92/36 89/94/36 91/96/36
f 95/97/36 97/95/36 114/79/36
f 114/79/36 93/98/36 95/97/36

