# ProBuilder 4.2.3
# https://unity3d.com/unity/features/worldbuilding/probuilder
# 22/02/2021 09:39:47

mtllib ./Banner.mtl
o Banner

g Banner
v -1.12 0 -2.457607E-06
v -1.12 1.5 -2.457607E-06
v -0.5600001 0 8.635636E-07
v -0.5600001 1.5 8.635636E-07
v -1.12 3 -2.457607E-06
v -0.5600001 3 8.635636E-07
v -1.192093E-07 0 4.184734E-06
v -1.192093E-07 1.5 4.184734E-06
v -1.192093E-07 3 4.184734E-06

vt 0 0
vt 0 1.5
vt 0.56 0
vt 0.56 1.5
vt 0 3
vt 0.56 3
vt 1.12 0
vt 1.12 1.5
vt 1.12 3

vn -5.930661E-06 0 1

usemtl RugsGrid
f 3/3/1 4/4/1 2/2/1 1/1/1
f 4/4/1 6/6/1 5/5/1 2/2/1
f 7/7/1 8/8/1 4/4/1 3/3/1
f 8/8/1 9/9/1 6/6/1 4/4/1

