# ProBuilder 4.2.3
# https://unity3d.com/unity/features/worldbuilding/probuilder
# 22/02/2021 09:39:54

mtllib ./BannerLong.mtl
o BannerLong

g BannerLong
v 0 4.999997 -1.400011
v -0.001 4.999997 -1.400011
v 0 -2.861023E-06 -1.399982
v -0.001 -2.861023E-06 -1.399982
v -0.001 5.000005 -1.108646E-05
v -0.001 5.722046E-06 1.847744E-05
v 0 5.000005 -1.108646E-05
v 0 5.722046E-06 1.847744E-05

vt 0 0
vt -0.001 0
vt 0 5
vt -0.001 5
vt -1.4 0
vt -1.4 5
vt 0.001 0
vt 0.001 5
vt 1.4 0
vt 1.4 5
vt 0 -1.4
vt 0.001 -1.4
vt -0.001 -1.4

vn 0 -5.888939E-06 -1
vn -1 0 0
vn 0 5.912781E-06 1
vn 1 0 0
vn 0 -1 6.130763E-06
vn 0 1 -5.790166E-06

usemtl RugsGrid
f 3/3/1 4/4/1 2/2/1 1/1/1
f 4/3/2 6/6/2 5/5/2 2/1/2
f 6/8/3 8/3/3 7/1/3 5/7/3
f 8/10/4 3/3/4 1/1/4 7/9/4
f 8/11/5 6/12/5 4/7/5 3/1/5
f 1/1/6 2/2/6 5/13/6 7/11/6

