# ProBuilder 4.2.3
# https://unity3d.com/unity/features/worldbuilding/probuilder
# 22/02/2021 09:40:01

mtllib ./Tap.mtl
o Tap

g Tap
v 0.2339857 -0.1737913 0.04981258
v 0.209213 -0.1736596 0.001247655
v 0.1972073 -0.05970381 0.04772715
v 0.1781549 -0.08004022 0.0005736751
v 0.2200897 -0.1736896 0.001746426
v 0.239909 -0.1737949 0.04059817
v 0.1865395 -0.07299083 0.0005078716
v 0.2017821 -0.05672149 0.03823046
v 0.2883729 -0.1739413 0.05230549
v 0.2391318 -0.02445642 0.04739814
v 0.2834186 -0.1692197 0.04741244
v 0.235321 -0.02852355 0.0379663
v 0.3179855 -0.1674348 0.0110536
v 0.2620029 -0.009545304 -8.626759E-05
v 0.3071079 -0.168635 0.01055483
v 0.2536182 -0.01659475 -1.951038E-05
v 0.2932118 -0.1738278 -0.04233146
v 0.2429494 -0.02988176 -0.04723974
v 0.2872886 -0.1728499 -0.02829691
v 0.2383746 -0.03286408 -0.03774305
v 0.2388247 -0.1736779 -0.04482437
v 0.2010249 -0.06512915 -0.04690978
v 0.24378 -0.1737042 -0.03511118
v 0.2048358 -0.06106197 -0.03747889
v 0.110526 0.006200641 0.04743437
v 0.1034373 -0.02025287 -4.368932E-07
v 0.1062725 -0.009671435 -4.368932E-07
v 0.1119431 0.01149109 0.03794722
v 0.1247023 0.05910693 0.04743437
v 0.1232851 0.05381638 0.03794722
v 0.131791 0.08556038 -4.368932E-07
v 0.1289548 0.07497889 -4.368932E-07
v 0.1247023 0.05910693 -0.04743525
v 0.1232851 0.05381638 -0.03794809
v 0.110526 0.006200641 -0.04743525
v 0.1119431 0.01149109 -0.03794809
v -0.0004377663 0.006387442 0.04743456
v -0.0004378557 -0.02099907 -2.533197E-07
v -0.0004378259 -0.01004446 -2.533197E-07
v -0.0004377663 0.01186472 0.0379476
v -0.0004376173 0.06116045 0.04743456
v -0.0004376471 0.05568314 0.0379476
v -0.0004375279 0.08854693 -2.581081E-07
v -0.0004375577 0.07759234 -2.571505E-07
v -0.0004376173 0.06116045 -0.04743507
v -0.0004376471 0.05568314 -0.0379481
v -0.0004377663 0.006387442 -0.04743507
v -0.0004377663 0.01186472 -0.0379481

vt 0.2148231 -0.02638378
vt 0.2010812 -0.1249657
vt -0.004016101 -0.030617
vt 0.02102432 -0.1274049
vt -0.2036373 -0.1166053
vt -0.2150637 -0.03780063
vt -0.009857547 -0.1191175
vt 0.009728171 -0.04158145
vt -0.280878 0.06849653
vt -0.2805238 0.1678961
vt -0.007845282 0.1584917
vt -0.0721978 0.2349784
vt 0.2766323 0.1468363
vt 0.2679125 0.06647072
vt 0.06311272 0.2172602
vt 0.0116682 0.1570414
vt -0.2403128 0.0859175
vt -0.2308048 0.1789007
vt 0.06517766 0.06080782
vt 0.05581996 0.1597406
vt 0.2230993 0.1639606
vt 0.2376571 0.0852973
vt -0.04816612 0.1438002
vt -0.056474 0.0642747
vt -0.2446806 -0.1338008
vt -0.2478545 -0.02576602
vt 0.03365156 -0.1437336
vt 0.05792832 -0.04677846
vt 0.2456275 -0.03703127
vt 0.2421304 -0.1169542
vt -0.04846164 -0.05878403
vt -0.02845892 -0.136244
vt 0.2784792 0.1667904
vt 0.2787676 0.06739063
vt 0.08028892 0.235875
vt 0.01593532 0.1594312
vt -0.2765585 0.08233893
vt -0.2779608 0.1627446
vt -0.02078642 0.1727346
vt -0.07226995 0.2332536
vt 0.1949084 0.1552719
vt 0.2121764 0.05678424
vt 0.01482736 0.1538311
vt 0.002336825 0.05469062
vt -0.2102693 0.06898841
vt -0.1956213 0.1476287
vt 0.007311983 0.06393661
vt -0.00189092 0.1433598
vt 0.02804646 0.1470751
vt -0.06324809 0.1878806
vt 0.09915791 0.3327251
vt 0.0008100891 0.350376
vt 0.0563067 0.1774678
vt -0.01658974 0.1445132
vt -0.0124295 0.3510065
vt -0.09102345 0.3365016
vt -0.006725639 0.1629426
vt -0.07107977 0.2394852
vt 0.1458347 0.3718605
vt 0.04924383 0.3977402
vt 0.06569753 0.2309472
vt 0.01421378 0.1697148
vt -0.05883946 0.3949685
vt -0.1361116 0.3742625
vt 0.01172329 0.1122563
vt -0.07552191 0.1611301
vt 0.1078444 0.3905111
vt 0.008993186 0.4056265
vt 0.06526934 0.1588164
vt -0.00449647 0.1196683
vt -0.01826132 0.3985254
vt -0.09733322 0.3863793
vt 0.07907626 0.1527935
vt -0.01226825 0.1120984
vt -0.01692884 0.4053518
vt -0.1153061 0.3878391
vt 0.004705231 0.1204125
vt -0.0684566 0.1527788
vt 0.1031374 0.3851095
vt 0.02438668 0.3988819
vt 0.07984605 0.2321157
vt 0.01549128 0.1555736
vt -0.05038493 0.3973416
vt -0.1469735 0.3714605
vt -0.02124295 0.1638033
vt -0.07272648 0.2250358
vt 0.1370097 0.3739253
vt 0.05973713 0.3946311
vt 0.0624867 0.1814826
vt -0.02420317 0.131635
vt -0.0007794843 0.3443377
vt -0.09944454 0.3280961
vt 0.01487837 0.1362485
vt -0.05459475 0.1759154
vt 0.09070364 0.3376436
vt 0.01172901 0.3503889
vt 0.09982304 0.3974129
vt 0.000663756 0.4103547
vt 0.09998922 0.6000015
vt 0 0.5999994
vt -0.01006565 0.4051199
vt -0.08939252 0.3947672
vt -0.009734192 0.5999438
vt -0.08972485 0.5999401
vt 0.1462516 0.37153
vt 0.04965959 0.3974118
vt 0.15 0.6000001
vt 0.05000004 0.6000001
vt -0.05931849 0.3948246
vt -0.1365925 0.3741174
vt -0.06000007 0.6000003
vt -0.1400001 0.6000003
vt 0.09519342 0.3618597
vt -0.003965491 0.374804
vt 0.09786079 0.6033185
vt -0.00213164 0.6032942
vt -0.006283091 0.3760991
vt -0.08560985 0.3657472
vt -0.007947278 0.6020015
vt -0.08794036 0.6020154
vt 0.004085456 0.3739238
vt -0.09507362 0.3609807
vt 0.00225333 0.6024173
vt -0.09773821 0.6024359
vt 0.08569803 0.3664016
vt 0.006371365 0.3767542
vt 0.08803153 0.6026721
vt 0.008037857 0.6026543
vt -0.04965952 0.3974115
vt -0.1462515 0.3715298
vt -0.04999997 0.5999999
vt -0.1499999 0.5999999
vt 0.1365924 0.3741172
vt 0.05931842 0.3948244
vt 0.14 0.6
vt 0.06000001 0.6
vt -0.0006631381 0.4103378
vt -0.09982239 0.3973958
vt -0.09998769 0.5999783
vt 0.08940715 0.394875
vt 0.01008028 0.4052277
vt 0.08973936 0.6000515
vt 0.009747772 0.6000481
vt 0.002650712 0.2164839
vt 0.09131676 0.1712558
vt 0.003561399 0.1966261
vt 0.07449389 0.1604416
vt -0.05 0.08660255
vt 0 0
vt -0.06000001 0.06928203
vt -0.02 0
vt 0.09586902 0.07196061
vt 0.08692417 0.08102894
vt -0.15 0.08660254
vt -0.14 0.06928203
vt 0.2090562 -0.01333161
vt 0.1362451 -0.071939
vt 0.1972332 -0.003526326
vt 0.1363965 -0.05453323
vt -0.2 -8.742278E-09
vt -0.18 -6.993822E-09
vt 0.001451813 0.04703071
vt -0.09659153 0.09251785
vt 0.0003903208 0.06700321
vt -0.07090628 0.1032718
vt -0.15 -0.08660255
vt -0.14 -0.06928203
vt -0.09582391 0.06228621
vt -0.1003467 0.1615834
vt -0.07013874 0.07310054
vt -0.08265629 0.1525294
vt -0.05000001 -0.08660255
vt -0.06000001 -0.06928203
vt -0.08146355 0.1624218
vt -0.06372998 0.1533748

vn -0.8583335 -0.2687111 0.4371019
vn -0.850996 -0.2726409 0.448632
vn -0.8436584 -0.2765707 0.4601621
vn 0.8555467 0.2796871 -0.4356776
vn 0.8517961 0.2733043 -0.446734
vn 0.8480455 0.2669214 -0.4577903
vn -0.04573224 0.01772449 0.9987965
vn -0.025824 0.01704695 0.9993225
vn -0.005915754 0.01636941 0.9998485
vn 0.1516437 0.02940381 -0.9879978
vn 0.09464447 -0.01235977 -0.9929111
vn 0.03764525 -0.05412335 -0.9978244
vn 0.7494913 0.3071236 0.5864622
vn 0.7869742 0.2973523 0.5369356
vn 0.824457 0.2875811 0.487409
vn -0.7982043 -0.3076412 -0.5179062
vn -0.8044337 -0.3134878 -0.504336
vn -0.810663 -0.3193343 -0.4907658
vn 0.8562192 0.2842616 -0.4313747
vn 0.8518512 0.2762155 -0.4447383
vn 0.8474832 0.2681694 -0.458102
vn -0.8467545 -0.2658512 0.4607928
vn -0.8476827 -0.2657515 0.4591369
vn -0.8486108 -0.2656519 0.4574809
vn 0.04577902 -0.003249939 -0.9989463
vn 0.03092383 -0.0158595 -0.9992059
vn 0.01606863 -0.02846907 -0.9994655
vn -0.1549603 0.01251249 0.9878414
vn -0.08127434 0.01545225 0.9938217
vn -0.007588351 0.01839202 0.9998021
vn -0.8094919 -0.2722935 -0.5201722
vn -0.8153445 -0.2838191 -0.5042208
vn -0.821197 -0.2953447 -0.4882695
vn 0.8053007 0.2892968 0.5174921
vn 0.8161323 0.2854029 0.5020994
vn 0.8269638 0.281509 0.4867067
vn -0.5228219 -0.6853942 0.5068452
vn -0.538743 -0.6870431 0.4869024
vn -0.5546641 -0.6886919 0.4669597
vn 0.5356332 0.6749225 -0.5075202
vn 0.5349758 0.6883435 -0.4893607
vn 0.5343183 0.7017645 -0.4712012
vn 0.003817365 0.004793732 0.9999812
vn 0.000505715 0.002772794 0.9999885
vn -0.002805935 0.0007518564 0.9999958
vn -0.002080946 -0.006892869 -0.9999741
vn -0.0009693567 -0.003465492 -0.9999871
vn 0.0001422325 -3.811453E-05 -1
vn 0.5196798 0.7110808 0.4736
vn 0.5193508 0.7109803 0.4741115
vn -0.5214068 -0.7095619 -0.4739797
vn 0.5189638 0.6884797 -0.5066285
vn 0.5190293 0.6998075 -0.4903941
vn 0.5190947 0.7111352 -0.4741596
vn -0.5105441 -0.6951324 0.5060985
vn -0.5207534 -0.6994994 0.4889787
vn -0.5309626 -0.7038664 0.4718589
vn -0.0008114252 -0.008396004 -0.9999644
vn 0.0002822336 -0.004382339 -0.9999817
vn 0.001375892 -0.0003686733 -0.999999
vn 0.00278195 0.006059134 0.9999778
vn -0.0006974204 0.003589201 0.9999843
vn -0.004176791 0.001119268 0.9999907
vn -0.5462298 -0.6872339 -0.4788973
vn -0.5456305 -0.6910959 -0.4739559
vn -0.5450311 -0.6949579 -0.4690145
vn 0.5393133 0.6935935 0.477566
vn 0.5422473 0.6942294 0.4732715
vn 0.5451814 0.6948653 0.4689771
vn -0.001469287 -0.8732736 0.487228
vn 0.002376361 -0.8696411 0.4936092
vn 0.006222009 -0.8660085 0.4999905
vn -0.003054485 0.8735597 -0.4867074
vn -8.844316E-05 0.8697909 -0.4933525
vn 0.002877599 0.8660221 -0.4999976
vn 1.452295E-06 -3.891456E-07 1
vn 0.01969464 0.8719442 0.4892091
vn 0.01695259 0.8689411 0.4945792
vn 0.01421055 0.8659381 0.4999493
vn -0.01316529 -0.8724561 -0.4885151
vn -0.01532761 -0.8691745 -0.4942194
vn -0.01748992 -0.8658929 -0.4999236
vn 0.01431463 0.8723674 -0.4886411
vn 0.01693525 0.8691137 -0.4942727
vn 0.01955588 0.8658599 -0.4999042
vn -0.01761417 -0.8721126 0.4889881
vn -0.01533994 -0.869032 0.4944728
vn -0.0130657 -0.8659514 0.4999575
vn 0.006275874 -0.8737494 -0.4863359
vn 0.002408583 -0.8698869 -0.4931678
vn -0.001458707 -0.8660244 -0.4999997
vn 0.002903027 0.8731814 0.4873867
vn -6.170548E-05 0.8696015 0.493692
vn -0.003026437 0.8660217 0.4999973
vn -0.002697914 -0.9999955 -0.001336173
vn -1 1.632321E-06 9.42417E-07
vn 0.09109019 -0.8034918 -0.387123
vn 0.1848767 -0.6069883 -0.7729074
vn -0.3860459 -0.8275236 -0.4076434
vn -0.1394694 -0.9101764 -0.1772768
vn 0.107107 -0.9928291 0.05308978
vn 0.1062542 -0.9919088 0.06947579
vn 0.07384411 -0.9936343 0.07816106
vn 0.04143406 -0.9953597 0.08684632
vn -0.005825167 -0.9977316 0.06706598
vn 0.007985316 -0.9986992 0.0266176
vn 0.0217958 -0.9996668 -0.01383079

usemtl SmallPropGrid
f 3/3/2 4/4/3 2/2/2 1/1/1
f 7/7/5 8/8/6 6/6/5 5/5/4
f 10/11/8 3/12/9 1/10/8 9/9/7
f 8/15/11 12/16/12 11/14/11 6/13/10
f 14/19/14 10/20/15 9/18/14 13/17/13
f 12/23/17 16/24/18 15/22/17 11/21/16
f 18/27/20 14/28/21 13/26/20 17/25/19
f 16/31/23 20/32/24 19/30/23 15/29/22
f 22/35/26 18/36/27 17/34/26 21/33/25
f 20/39/29 24/40/30 23/38/29 19/37/28
f 4/43/32 22/44/33 21/42/32 2/41/31
f 24/47/35 7/48/36 5/46/35 23/45/34
f 25/51/38 26/52/39 4/50/38 3/49/37
f 27/55/41 28/56/42 8/54/41 7/53/40
f 29/59/44 25/60/45 3/58/44 10/57/43
f 28/63/47 30/64/48 12/62/47 8/61/46
f 31/67/49 29/68/50 10/66/49 14/65/49
f 30/71/51 32/72/51 16/70/51 12/69/51
f 33/75/53 31/76/54 14/74/53 18/73/52
f 32/79/56 34/80/57 20/78/56 16/77/55
f 35/83/59 33/84/60 18/82/59 22/81/58
f 34/87/62 36/88/63 24/86/62 20/85/61
f 26/91/65 35/92/66 22/90/65 4/89/64
f 36/95/68 27/96/69 7/94/68 24/93/67
f 37/99/71 38/100/72 26/98/71 25/97/70
f 39/103/74 40/104/75 28/102/74 27/101/73
f 41/107/76 37/108/76 25/106/76 29/105/76
f 40/111/48 42/112/48 30/110/48 28/109/48
f 43/115/78 41/116/79 29/114/78 31/113/77
f 42/119/81 44/120/82 32/118/81 30/117/80
f 45/123/84 43/124/85 31/122/84 33/121/83
f 44/127/87 46/128/88 34/126/87 32/125/86
f 47/131/48 45/132/48 33/130/48 35/129/48
f 46/135/76 48/136/76 36/134/76 34/133/76
f 38/100/90 47/139/91 35/138/90 26/137/89
f 48/142/93 39/143/94 27/141/93 36/140/92
f 5/146/95 6/147/95 1/145/95 2/144/95
f 40/150/96 39/151/96 38/149/96 37/148/96
f 6/147/97 11/153/98 9/152/97 1/145/95
f 42/155/96 40/150/96 37/148/96 41/154/96
f 11/158/100 15/159/101 13/157/100 9/156/99
f 44/161/96 42/155/96 41/154/96 43/160/96
f 15/164/103 19/165/104 17/163/103 13/162/102
f 46/167/96 44/161/96 43/160/96 45/166/96
f 19/170/106 23/171/107 21/169/106 17/168/105
f 48/173/96 46/167/96 45/166/96 47/172/96
f 23/175/95 5/146/95 2/144/95 21/174/95
f 39/151/96 48/173/96 47/172/96 38/149/96

g Top
v 0.057 0.121 0
v 0.057 0.1330213 0
v 0.08104255 0.121 0.04164291
v 0.08104255 0.1330213 0.04164291
v 0.1291276 0.121 0.04164291
v 0.1291276 0.1330213 0.04164291
v 0.1531702 0.121 -4.203732E-09
v 0.1531702 0.1330213 -4.203732E-09
v 0.1291276 0.121 -0.04164291
v 0.1291276 0.1330213 -0.04164291
v 0.08104255 0.121 -0.04164291
v 0.08104255 0.1330213 -0.04164291
v 0.1050851 0.121 0
v 0.1050851 0.1330213 0

vt 0 0
vt 0 0.01
vt 0.04 0
vt 0.04 0.01
vt 0.02 0
vt 0.02 0.01
vt 0.06 0
vt 0.06 0.01
vt 0.03999999 0
vt 0.03999999 0.01
vt -0.04000001 0
vt -0.04000001 0.01
vt -0.05999999 0
vt -0.05999999 0.01
vt -0.02 0
vt -0.02 0.01
vt 0.02 0.03464102
vt -0.04 0
vt -0.02 0.03464102
vt 0.06 0.03464102
vt -0.06 0.03464102
vt 0.08 -3.496911E-09
vt -0.08 -3.496911E-09
vt 0.05999999 -0.03464102
vt -0.05999999 -0.03464102
vt 0.02 -0.03464102
vt -0.02 -0.03464102

vn -0.8660253 0 0.5000001
vn 0 0 1
vn 0.8660254 0 0.5
vn 0.8660254 0 -0.5000001
vn 0 0 -1
vn -0.8660253 0 -0.5000001
vn 0 -1 0
vn 0 1 0

usemtl SmallPropGrid
f 49/176/114 61/184/114 51/192/114
f 51/192/114 61/184/114 53/195/114
f 53/195/114 61/184/114 55/197/114
f 55/197/114 61/184/114 57/199/114
f 57/199/114 61/184/114 59/201/114
f 59/201/114 61/184/114 49/176/114
f 52/194/115 62/193/115 50/176/115
f 54/196/115 62/193/115 52/194/115
f 56/198/115 62/193/115 54/196/115
f 58/200/115 62/193/115 56/198/115
f 60/202/115 62/193/115 58/200/115
f 50/176/115 62/193/115 60/202/115
f 52/179/108 50/177/108 49/176/108
f 49/176/108 51/178/108 52/179/108
f 54/183/109 52/181/109 51/180/109
f 51/180/109 53/182/109 54/183/109
f 56/185/110 54/177/110 53/176/110
f 53/176/110 55/184/110 56/185/110
f 58/177/111 56/187/111 55/186/111
f 55/186/111 57/176/111 58/177/111
f 60/191/112 58/189/112 57/188/112
f 57/188/112 59/190/112 60/191/112
f 50/177/113 60/187/113 59/186/113
f 59/186/113 49/176/113 50/177/113

g TopPipe
v 0.09100039 0.07841998 -2.533197E-07
v 0.09100039 0.1215341 -2.533197E-07
v 0.09780502 0.07841998 0.0117857
v 0.09780502 0.1215341 0.0117857
v 0.1114143 0.07841998 0.0117857
v 0.1114143 0.1215341 0.0117857
v 0.1182189 0.07841998 -2.545095E-07
v 0.1182189 0.1215341 -2.545095E-07
v 0.1114143 0.07841998 -0.01178621
v 0.1114143 0.1215341 -0.01178621
v 0.09780502 0.07841998 -0.01178621
v 0.09780502 0.1215341 -0.01178621
v 0.1046096 0.07841998 -2.533197E-07
v 0.1046096 0.1215341 -2.533197E-07

vt 0 0
vt 0 0.01
vt 0.04 0
vt 0.04 0.01
vt 0.02 0
vt 0.02 0.01
vt 0.06 0
vt 0.06 0.01
vt 0.03999999 0
vt 0.03999999 0.01
vt -0.04000001 0
vt -0.04000001 0.01
vt -0.05999999 0
vt -0.05999999 0.01
vt -0.02 0
vt -0.02 0.01
vt 0.02 0.03464102
vt -0.04 0
vt -0.02 0.03464102
vt 0.06 0.03464102
vt -0.06 0.03464102
vt 0.08 -3.496911E-09
vt -0.08 -3.496911E-09
vt 0.05999999 -0.03464102
vt -0.05999999 -0.03464102
vt 0.02 -0.03464102
vt -0.02 -0.03464102

vn -0.8660253 0 0.5000002
vn 0 0 1
vn 0.8660253 0 0.5000002
vn 0.8660253 0 -0.5000002
vn 0 0 -1
vn -0.8660253 0 -0.5000002
vn 0 -1 0
vn 0 1 0

usemtl SmallPropGrid
f 63/203/122 75/211/122 65/219/122
f 65/219/122 75/211/122 67/222/122
f 67/222/122 75/211/122 69/224/122
f 69/224/122 75/211/122 71/226/122
f 71/226/122 75/211/122 73/228/122
f 73/228/122 75/211/122 63/203/122
f 66/221/123 76/220/123 64/203/123
f 68/223/123 76/220/123 66/221/123
f 70/225/123 76/220/123 68/223/123
f 72/227/123 76/220/123 70/225/123
f 74/229/123 76/220/123 72/227/123
f 64/203/123 76/220/123 74/229/123
f 66/206/116 64/204/116 63/203/116
f 63/203/116 65/205/116 66/206/116
f 68/210/117 66/208/117 65/207/117
f 65/207/117 67/209/117 68/210/117
f 70/212/118 68/204/118 67/203/118
f 67/203/118 69/211/118 70/212/118
f 72/204/119 70/214/119 69/213/119
f 69/213/119 71/203/119 72/204/119
f 74/218/120 72/216/120 71/215/120
f 71/215/120 73/217/120 74/218/120
f 64/204/121 74/214/121 73/213/121
f 73/213/121 63/203/121 64/204/121

