# ProBuilder 4.2.3
# https://unity3d.com/unity/features/worldbuilding/probuilder
# 23/02/2021 13:11:49

mtllib ./Blackboard.mtl
o Blackboard

g BlackboardBody
v 0 0.37 0
v -3 0.37 0
v 0 2.37 0
v -3 2.37 0
v -3 0.37 -0.01
v -3 2.37 -0.01
v 0 0.37 -0.01
v 0 2.37 -0.01

vt 0 0
vt -3 0
vt 0 2
vt -3 2
vt -0.01 0
vt -0.01 2
vt 3 0
vt 3 2
vt 0.01 0
vt 0.01 2
vt 0 -0.01
vt 3 -0.01
vt -3 -0.01

vn 0 0 1
vn -1 0 0
vn 0 0 -1
vn 1 0 0
vn 0 1 0
vn 0 -1 0

usemtl ProBuilderDefault
f 3/3/1 4/4/1 2/2/1 1/1/1
f 4/3/2 6/6/2 5/5/2 2/1/2
f 6/8/3 8/3/3 7/1/3 5/7/3
f 8/10/4 3/3/4 1/1/4 7/9/4
f 8/11/5 6/12/5 4/7/5 3/1/5
f 1/1/6 2/2/6 5/13/6 7/11/6

g BlackboardLeg
v 0 0 0
v -0.1 0 0
v 0 0.37 0
v -0.1 0.37 0
v -0.1 0 -0.01
v -0.1 0.37 -0.01
v 0 0 -0.01
v 0 0.37 -0.01

vt 0 0
vt -0.1 0
vt 0 0.37
vt -0.1 0.37
vt -0.01 0
vt -0.01 0.37
vt 0.1 0
vt 0.1 0.37
vt 0.01 0
vt 0.01 0.37
vt 0 -0.01
vt 0.1 -0.01
vt -0.1 -0.01

vn 0 0 1
vn -1 0 0
vn 0 0 -1
vn 1 0 0
vn 0 1 0
vn 0 -1 0

usemtl ProBuilderDefault
f 11/16/7 12/17/7 10/15/7 9/14/7
f 12/16/8 14/19/8 13/18/8 10/14/8
f 14/21/9 16/16/9 15/14/9 13/20/9
f 16/23/10 11/16/10 9/14/10 15/22/10
f 16/24/11 14/25/11 12/20/11 11/14/11
f 9/14/12 10/15/12 13/26/12 15/24/12

g BlackboardLeg (1)
v -2.9 0 -9.872019E-08
v -3 0 -9.872019E-08
v -2.9 0.37 -9.872019E-08
v -3 0.37 -9.872019E-08
v -3 0 -0.0100001
v -3 0.37 -0.0100001
v -2.9 0 -0.0100001
v -2.9 0.37 -0.0100001

vt 0 0
vt -0.1 0
vt 0 0.37
vt -0.1 0.37
vt -0.01 0
vt -0.01 0.37
vt 0.1 0
vt 0.1 0.37
vt 0.01 0
vt 0.01 0.37
vt 0 -0.01
vt 0.1 -0.01
vt -0.1 -0.01

vn 0 0 1
vn -1 0 0
vn 0 0 -1
vn 1 0 0
vn 0 1 0
vn 0 -1 0

usemtl ProBuilderDefault
f 19/29/13 20/30/13 18/28/13 17/27/13
f 20/29/14 22/32/14 21/31/14 18/27/14
f 22/34/15 24/29/15 23/27/15 21/33/15
f 24/36/16 19/29/16 17/27/16 23/35/16
f 24/37/17 22/38/17 20/33/17 19/27/17
f 17/27/18 18/28/18 21/39/18 23/37/18

