# ProBuilder 4.2.3
# https://unity3d.com/unity/features/worldbuilding/probuilder
# 22/02/2021 09:41:41

mtllib ./BodyLengthMirror.mtl
o BodyLengthMirror

g BodyLengthMirror
v 0 0 0
v -0.04945466 0.007364576 0
v 0.3446621 2.314478 0
v 0.2952075 2.321842 0
v -0.04945466 0.007364576 -1
v 0.2952075 2.321842 -1
v 0 0 -1
v 0.3446621 2.314478 -1

vt 0 0
vt -0.05 0
vt 0 2.34
vt -0.05 2.34
vt -1 0
vt -1 2.34
vt 0.05 0
vt 0.05 2.34
vt 1 0
vt 1 2.34
vt 0 -1
vt 0.05 -1
vt -0.05 -1

vn 0 0 1
vn -0.9890931 0.1472915 0
vn 0 0 -1
vn 0.9890931 -0.1472915 0
vn 0.1472915 0.9890931 0
vn -0.1472915 -0.9890931 0

usemtl LargePropGrid
f 3/3/1 4/4/1 2/2/1 1/1/1
f 4/3/2 6/6/2 5/5/2 2/1/2
f 6/8/3 8/3/3 7/1/3 5/7/3
f 8/10/4 3/3/4 1/1/4 7/9/4
f 8/11/5 6/12/5 4/7/5 3/1/5
f 1/1/6 2/2/6 5/13/6 7/11/6

