# ProBuilder 4.2.3
# https://unity3d.com/unity/features/worldbuilding/probuilder
# 22/02/2021 09:41:54

mtllib ./BookGeneric.mtl
o BookGeneric

g BookGeneric
v -0.01585525 0.009097762 -0.00999999
v -0.41 0.009097762 -0.01
v -0.01585525 0.09090224 -0.00999999
v -0.41 0.09090224 -0.01
v -0.41 0.009097762 -0.52
v -0.41 0.09090224 -0.52
v -0.01585525 0.009097762 -0.52
v -0.01585525 0.09090224 -0.52
v 0 0 -0.53
v 0 0 0
v 0 0.1 -0.53
v 0 0.1 0
v -0.42 0.1 0
v -0.42 0.1 -0.53
v -0.42 0 -0.53
v -0.42 0 0
v -0.42 0.009097762 0
v -0.42 0.009097762 -0.53
v -0.42 0.09090224 0
v -0.01585525 0.09090224 0
v -0.01585525 0.009097762 -0.53
v -0.01585525 0.09090224 -0.53
v -0.42 0.09090224 -0.53
v -0.01585525 0.009097762 0

vt -0.01585525 0.009097762
vt -0.41 0.009097762
vt -0.01585525 0.09090224
vt -0.41 0.09090224
vt -0.01 0.009097762
vt -0.52 0.009097762
vt -0.01 0.09090224
vt -0.52 0.09090224
vt 0.41 0.009097762
vt 0.01585525 0.009097762
vt 0.41 0.09090224
vt 0.01585525 0.09090224
vt 0.53 0
vt 0 0
vt 0.53 0.1
vt 0 0.1
vt 0.42 0
vt 0 -0.53
vt 0.42 -0.53
vt -0.42 -0.53
vt -0.42 0
vt -0.53 0
vt 0 0.009097762
vt -0.53 0.009097762
vt -0.42 0.1
vt -0.42 0.09090224
vt -0.53 0.1
vt -0.53 0.09090224
vt 0 0.09090224
vt 0.42 0.009097762
vt 0.42 0.1
vt 0.42 0.09090224
vt -0.42 0.009097762
vt 0.41 -0.01
vt 0.41 -0.52
vt -0.01585525 0
vt -0.41 -0.01
vt -0.01585525 -0.00999999
vt -0.41 -0.52
vt 0.01585525 -0.53
vt 0.01585525 -0.52
vt -0.01585525 -0.53
vt -0.01585525 -0.52
vt 0.01585525 0
vt 0.01585525 -0.00999999

vn -2.362895E-08 0 1
vn -1 0 0
vn 0 0 -1
vn 1 0 0
vn 0 1 0
vn 0 -1 0

usemtl SmallPropGrid
f 3/3/1 4/4/1 2/2/1 1/1/1
f 4/7/2 6/8/2 5/6/2 2/5/2
f 6/11/3 8/12/3 7/10/3 5/9/3
f 11/15/4 12/16/4 10/14/4 9/13/4
f 11/18/5 14/19/5 13/17/5 12/14/5
f 10/14/6 16/21/6 15/20/6 9/18/6
f 17/23/2 18/24/2 15/22/2 16/14/2
f 19/26/1 20/3/1 12/16/1 13/25/1
f 21/10/3 22/12/3 11/16/3 9/14/3
f 23/28/2 19/29/2 13/16/2 14/27/2
f 18/30/3 21/10/3 9/14/3 15/17/3
f 22/12/3 23/32/3 14/31/3 11/16/3
f 24/1/1 17/33/1 16/21/1 10/14/1
f 20/3/1 24/1/1 10/14/1 12/16/1
f 2/34/5 5/35/5 18/19/5 17/17/5
f 4/37/6 3/38/6 20/36/6 19/21/6
f 7/6/2 8/8/2 22/28/2 21/24/2
f 6/39/6 4/37/6 19/21/6 23/20/6
f 5/35/5 7/41/5 21/40/5 18/19/5
f 8/43/6 6/39/6 23/20/6 22/42/6
f 1/45/5 2/34/5 17/17/5 24/44/5
f 3/7/2 1/5/2 24/23/2 20/29/2

