# ProBuilder 4.2.3
# https://unity3d.com/unity/features/worldbuilding/probuilder
# 22/02/2021 09:42:11

mtllib ./CandleC.mtl
o CandleC

g CandleC
v 0 0 0
v 0 0.1 0
v 0.00732233 0 0.01767767
v 0.00732233 0.1 0.01767767
v 0.025 0 0.025
v 0.025 0.1 0.025
v 0.04267767 0 0.01767767
v 0.04267767 0.1 0.01767767
v 0.05 0 -2.18557E-09
v 0.05 0.1 -2.18557E-09
v 0.04267767 0 -0.01767767
v 0.04267767 0.1 -0.01767767
v 0.025 0 -0.025
v 0.025 0.1 -0.025
v 0.007322334 0 -0.01767767
v 0.007322334 0.1 -0.01767767
v 0.025 0 0
v 0.025 0.1 0

vt 0 0
vt 0 0.1
vt 0.01913417 0
vt 0.01913417 0.1
vt 0.0135299 0
vt 0.0135299 0.1
vt 0.03266408 0
vt 0.03266408 0.1
vt -0.01913417 0
vt -0.01913417 0.1
vt -0.03266407 0
vt -0.03266407 0.1
vt -0.0135299 0
vt -0.0135299 0.1
vt 0.025 0
vt 0.00732233 0.01767767
vt -0.025 0
vt -0.00732233 0.01767767
vt 0.025 0.025
vt -0.025 0.025
vt 0.04267767 0.01767767
vt -0.04267767 0.01767767
vt 0.05 -2.18557E-09
vt -0.05 -2.18557E-09
vt 0.04267767 -0.01767767
vt -0.04267767 -0.01767767
vt 0.025 -0.025
vt -0.025 -0.025
vt 0.007322334 -0.01767767
vt -0.007322334 -0.01767767

vn -0.9238796 0 0.3826834
vn -0.3826834 0 0.9238796
vn 0.3826834 0 0.9238796
vn 0.9238796 0 0.3826834
vn 0.9238795 0 -0.3826835
vn 0.3826835 0 -0.9238795
vn -0.3826834 0 -0.9238796
vn -0.9238795 0 -0.3826835
vn 0 -1 0
vn 0 1 0

usemtl SmallPropGrid
f 1/1/9 17/15/9 3/16/9
f 3/16/9 17/15/9 5/19/9
f 5/19/9 17/15/9 7/21/9
f 7/21/9 17/15/9 9/23/9
f 9/23/9 17/15/9 11/25/9
f 11/25/9 17/15/9 13/27/9
f 13/27/9 17/15/9 15/29/9
f 15/29/9 17/15/9 1/1/9
f 4/18/10 18/17/10 2/1/10
f 6/20/10 18/17/10 4/18/10
f 8/22/10 18/17/10 6/20/10
f 10/24/10 18/17/10 8/22/10
f 12/26/10 18/17/10 10/24/10
f 14/28/10 18/17/10 12/26/10
f 16/30/10 18/17/10 14/28/10
f 2/1/10 18/17/10 16/30/10
f 4/4/1 2/2/1 1/1/1
f 1/1/1 3/3/1 4/4/1
f 6/8/2 4/6/2 3/5/2
f 3/5/2 5/7/2 6/8/2
f 8/8/3 6/6/3 5/5/3
f 5/5/3 7/7/3 8/8/3
f 10/4/4 8/2/4 7/1/4
f 7/1/4 9/3/4 10/4/4
f 12/2/5 10/10/5 9/9/5
f 9/9/5 11/1/5 12/2/5
f 14/14/6 12/12/6 11/11/6
f 11/11/6 13/13/6 14/14/6
f 16/14/7 14/12/7 13/11/7
f 13/11/7 15/13/7 16/14/7
f 2/2/8 16/10/8 15/9/8
f 15/9/8 1/1/8 2/2/8

