# ProBuilder 4.2.3
# https://unity3d.com/unity/features/worldbuilding/probuilder
# 22/02/2021 09:48:14

mtllib ./ChamberPot.mtl
o ChamberPot

g Cylinder
v 0.0610931 0.02115543 -3.570659E-10
v 0.271242 -0.02310822 0
v 0.1226443 0.02115543 0.1485977
v 0.08438617 0.02308124 0
v 0.271242 0.008203131 0
v 0.139115 0.02308124 0.132127
v 0.271242 0.02115543 0.2101489
v 0.271242 0.02308124 0.1868559
v 0.4198397 0.02115543 0.1485977
v 0.4033691 0.02308124 0.132127
v 0.4813909 0.02115543 -1.872887E-08
v 0.4580979 0.02308124 -1.633546E-08
v 0.4198397 0.02115543 -0.1485977
v 0.4033691 0.02308124 -0.132127
v 0.271242 0.02115543 -0.2101489
v 0.271242 0.02308124 -0.1868559
v 0.1226443 0.02115543 -0.1485977
v 0.139115 0.02308124 -0.1321271
v -0.01102463 0.2693699 0
v -0.01102463 0.3116408 0
v 0.07164936 0.3116408 0.1995926
v 0.07164936 0.2693699 0.1995926
v 0.271242 0.3116408 0.2822666
v 0.271242 0.2693699 0.2822666
v 0.4708347 0.3116408 0.1995926
v 0.4708347 0.2693699 0.1995926
v 0.5535086 0.3116408 -2.467653E-08
v 0.5535086 0.2693699 -2.467653E-08
v 0.4708347 0.3116408 -0.1995926
v 0.4708347 0.2693699 -0.1995926
v 0.271242 0.3116408 -0.2822666
v 0.271242 0.2693699 -0.2822666
v 0.07164938 0.3116408 -0.1995927
v 0.07164938 0.2693699 -0.1995927
v 0 0.1314069 0
v 0.07944495 0.1314069 0.1917971
v 0 0.2701954 0
v 0.07944495 0.2701954 0.1917971
v 0.271242 0.1314069 0.271242
v 0.271242 0.2701954 0.271242
v 0.4630391 0.1314069 0.1917971
v 0.4630391 0.2701954 0.1917971
v 0.542484 0.2701954 -2.371273E-08
v 0.542484 0.1314069 -2.371273E-08
v 0.4630391 0.2701954 -0.191797
v 0.4630391 0.1314069 -0.191797
v 0.271242 0.1314069 -0.271242
v 0.271242 0.2701954 -0.271242
v 0.07944497 0.1314069 -0.1917971
v 0.07944497 0.2701954 -0.1917971
v 0 0.3108153 0
v 0.07944495 0.3108153 0.1917971
v 0.271242 0.3108153 0.271242
v 0.4630391 0.3108153 0.1917971
v 0.07944497 0.3108153 -0.1917971
v 0.271242 0.3108153 -0.271242
v 0.4630391 0.3108153 -0.191797
v 0.542484 0.3108153 -2.371273E-08
v 0.0890348 0.3108153 0.1822072
v 0.01356211 0.3108153 0
v 0.271242 0.3108153 0.2576799
v 0.08903483 0.3108153 -0.1822072
v 0.271242 0.3108153 -0.2576799
v 0.4534492 0.3108153 -0.1822072
v 0.5289219 0.3108153 -2.252709E-08
v 0.4534492 0.3108153 0.1822072
v 0.0890348 0.1290992 0.1822072
v 0.01356211 0.1290992 0
v 0.271242 0.1290992 0.2576799
v 0.08903483 0.1290992 -0.1822072
v 0.271242 0.1290992 -0.2576799
v 0.4534492 0.1290992 -0.1822072
v 0.5289219 0.1290992 -2.252709E-08
v 0.4534492 0.1290992 0.1822072

vt 0.06129703 0.003132261
vt 0.2988265 0.003132261
vt 0.1279124 0.1680827
vt -0.09101237 0.001079622
vt -0.2983334 0.001079622
vt -0.1513527 0.1472942
vt 0.1331005 0.1680577
vt 0.3010861 0.0001259216
vt 0.296831 0.2376173
vt -0.1529393 0.1481014
vt -0.2995379 0.001503837
vt -0.2989955 0.2088242
vt 0.3008984 0.2269079
vt 0.2966433 -0.0105835
vt 0.464629 0.1573483
vt -0.3006785 0.2072552
vt -0.300136 -6.513165E-05
vt -0.4467347 0.1465325
vt 0.4592052 0.1575634
vt 0.2882911 -0.007387032
vt 0.5258206 -0.007387053
vt -0.4467543 0.1457293
vt -0.2997736 -0.0004852474
vt -0.5070947 -0.0004852654
vt 0.5258206 0.007387012
vt 0.2882911 0.007387033
vt 0.4592052 -0.1575634
vt -0.4467543 -0.1457293
vt 0.464629 -0.1573483
vt 0.2966433 0.0105835
vt 0.3008984 -0.2269079
vt -0.4467347 -0.1465325
vt -0.3006785 -0.2072552
vt 0.296831 -0.2376173
vt 0.1331005 -0.1680577
vt -0.2989955 -0.2088242
vt -0.2995379 -0.001503837
vt -0.1529393 -0.1481015
vt 0.1279125 -0.1680827
vt 0.2988265 -0.003132263
vt 0.06129703 -0.003132263
vt -0.1513528 -0.1472942
vt -0.2983334 -0.001079622
vt -0.09101237 -0.001079622
vt -0.004666251 0.2979294
vt -0.004666251 0.344682
vt 0.2342763 0.344682
vt 0.2342763 0.2979294
vt 0.1576926 0.2979294
vt 0.1576926 0.344682
vt 0.3966352 0.344682
vt 0.3966352 0.2979294
vt -0.2342763 0.2979294
vt -0.2342763 0.344682
vt 0.004666185 0.344682
vt 0.004666185 0.2979294
vt -0.3966351 0.2979294
vt -0.3966351 0.344682
vt -0.1576926 0.344682
vt -0.1576926 0.2979294
vt 0.203752 0.008115147
vt 0.02585807 0.008115146
vt 0 0.1412908
vt 0.2296101 0.1412908
vt 0 0.2905183
vt 0.2296101 0.2905183
vt 0.3661108 0.04616851
vt 0.1882169 0.04616851
vt 0.1623588 0.1793442
vt 0.3919689 0.1793442
vt 0.1623588 0.3285717
vt 0.3919689 0.3285717
vt 0.3661108 0.09998409
vt 0.1882169 0.09998409
vt 0.1623588 0.2331598
vt 0.3919689 0.2331598
vt 0.1623588 0.3823873
vt 0.3919689 0.3823873
vt -2.178806E-08 0.4204406
vt 0.2296101 0.4204406
vt 0.2296101 0.2712131
vt -2.178806E-08 0.2712131
vt 0.203752 0.1380374
vt 0.02585805 0.1380374
vt -0.2296101 0.4204406
vt -0.2296101 0.2712131
vt -0.02585815 0.1380374
vt -0.203752 0.1380374
vt -0.3661108 0.09998408
vt -0.3919688 0.2331597
vt -0.1623588 0.2331597
vt -0.1882169 0.09998408
vt -0.3919688 0.3823873
vt -0.1623588 0.3823873
vt -0.3661108 0.04616851
vt -0.3919689 0.1793442
vt -0.1623589 0.1793442
vt -0.1882169 0.04616851
vt -0.3919689 0.3285717
vt -0.1623589 0.3285717
vt -0.02585808 0.008115147
vt -0.203752 0.008115147
vt -0.2296101 0.1412908
vt -0.2296101 0.2905183
vt 0.5026217 0.1880627
vt 0.2905916 0.2761764
vt 0.5112679 0.1967089
vt 0.2906199 0.288404
vt 0.02566884 0.01059764
vt -0.06195384 0.2228311
vt 0.03789648 0.01059764
vt -0.05328763 0.2314573
vt -0.3105129 0.3241135
vt -0.522543 0.2359997
vt -0.3105412 0.3363411
vt -0.5311892 0.244646
vt 0.3091201 0.2775646
vt 0.09709003 0.1894509
vt 0.3090918 0.2897922
vt 0.08844376 0.1980971
vt -0.07716873 0.2373879
vt -0.2891988 0.3255017
vt -0.06852245 0.2460342
vt -0.2891705 0.3377293
vt 0.1099369 0.2030208
vt 0.02231423 -0.009212648
vt 0.1012707 0.2116471
vt 0.01008659 -0.009212648
vt 0.09709005 -0.1894509
vt 0.3091201 -0.2775646
vt 0.08844378 -0.1980971
vt 0.3090918 -0.2897922
vt 0.02231423 0.009212652
vt 0.1099369 -0.2030209
vt 0.0100866 0.009212652
vt 0.1012707 -0.2116471
vt -0.06195388 -0.2228311
vt 0.02566884 -0.01059763
vt -0.05328766 -0.2314574
vt 0.03789647 -0.01059763
vt 0.2905916 -0.2761764
vt 0.5026217 -0.1880626
vt 0.2906199 -0.288404
vt 0.5112679 -0.1967089
vt -0.2891988 -0.3255017
vt -0.07716876 -0.237388
vt -0.2891705 -0.3377293
vt -0.06852248 -0.2460342
vt -0.522543 -0.2359997
vt -0.3105129 -0.3241135
vt -0.5311892 -0.244646
vt -0.3105412 -0.3363411
vt 0.4883882 -0.2016358
vt 0.5760108 0.01059761
vt 0.4970544 -0.210262
vt 0.5882385 0.01059761
vt 0.5760108 -0.01059767
vt 0.4883882 0.2016358
vt 0.5882385 -0.01059767
vt 0.4970544 0.2102621
vt -0.6239939 -0.009212672
vt -0.5363712 -0.2214461
vt -0.6362215 -0.009212673
vt -0.5450374 -0.2300723
vt -0.5363712 0.2214461
vt -0.6239939 0.009212613
vt -0.5450374 0.2300723
vt -0.6362215 0.009212612
vt -0.08786798 0.212132
vt 0 0
vt -0.09847458 0.2015254
vt -0.01500002 0
vt -0.3 0.3
vt -0.3 0.285
vt -0.08786801 -0.2121321
vt -0.09847461 -0.2015255
vt -0.3 -0.3
vt -0.3 -0.285
vt -0.512132 -0.212132
vt -0.5015255 -0.2015254
vt -0.6 -2.622683E-08
vt -0.585 -2.491549E-08
vt -0.512132 0.212132
vt -0.5015255 0.2015254
vt -0.2238698 0.343769
vt -0.005740257 0.343769
vt -0.2238698 0.1427867
vt -0.005740257 0.1427867
vt -0.3862287 0.343769
vt -0.1680991 0.343769
vt -0.3862287 0.1427867
vt -0.1680991 0.1427867
vt 0.005740258 0.343769
vt 0.2238699 0.343769
vt 0.005740258 0.1427867
vt 0.2238699 0.1427867
vt 0.1680991 0.343769
vt 0.3862286 0.343769
vt 0.1680991 0.1427867
vt 0.3862286 0.1427867
vt -0.2238698 0.1142292
vt -0.005740257 0.1142292
vt -0.193893 -0.02356407
vt -0.03571702 -0.02356407
vt -0.3862287 0.1995016
vt -0.1680991 0.1995016
vt -0.3562519 0.06170835
vt -0.1980759 0.06170834
vt 0.005740258 0.1142292
vt 0.2238699 0.1142292
vt 0.03571703 -0.02356407
vt 0.1938931 -0.02356407
vt 0.1680991 0.1995016
vt 0.3862286 0.1995016
vt 0.1980759 0.06170836
vt 0.3562519 0.06170836
vt 0.1680991 0.3200949
vt 0.3862287 0.3200949
vt 0.1980758 0.1823017
vt 0.3562519 0.1823017
vt 0.005740337 0.4053673
vt 0.2238699 0.4053673
vt 0.03571709 0.2675741
vt 0.1938931 0.2675741
vt -0.2238698 0.4053673
vt -0.005740248 0.4053673
vt -0.1938931 0.2675741
vt -0.03571702 0.267574
vt -0.3862287 0.3200949
vt -0.1680991 0.3200949
vt -0.3562519 0.1823017
vt -0.1980759 0.1823017

vn -0.2053605 -0.9749827 0.08506313
vn 0.07932937 0.9963068 -0.0328593
vn -0.08506312 -0.9749827 0.2053606
vn 0.0328593 0.9963068 -0.07932937
vn 0.08506314 -0.9749827 0.2053605
vn -0.0328593 0.9963068 -0.07932937
vn 0.2053606 -0.9749827 0.08506315
vn -0.07932936 0.9963068 -0.0328593
vn 0.2053605 -0.9749827 -0.08506317
vn -0.07932936 0.9963068 0.03285931
vn 0.08506315 -0.9749827 -0.2053605
vn -0.0328593 0.9963068 0.07932937
vn -0.08506308 -0.9749827 -0.2053605
vn 0.03285929 0.9963068 0.07932936
vn -0.2053605 -0.9749827 -0.08506314
vn 0.07932936 0.9963068 0.0328593
vn -0.9238796 0 0.3826835
vn -0.3826835 0 0.9238796
vn 0.3826835 0 0.9238796
vn 0.9238796 0 0.3826833
vn 0.9238795 0 -0.3826835
vn 0.3826836 0 -0.9238795
vn -0.3826833 0 -0.9238796
vn -0.9238796 0 -0.3826835
vn -0.8223764 -0.4556993 0.3406395
vn -0.3406394 -0.4556994 0.8223764
vn 0.3406395 -0.4556993 0.8223764
vn 0.8223764 -0.4556993 0.3406395
vn 0.8223763 -0.4556994 -0.3406396
vn 0.3406396 -0.4556993 -0.8223764
vn -0.3406394 -0.4556993 -0.8223764
vn -0.8223764 -0.4556993 -0.3406395
vn -0.03091383 -0.9967318 -0.07463257
vn 0.07463258 0.9967318 -0.03091383
vn -0.03091385 0.9967318 -0.07463262
vn 0.03091385 -0.9967318 -0.07463263
vn 0.03091384 0.9967318 -0.0746326
vn 0.07463257 -0.9967318 -0.03091382
vn 0.03091379 -0.9967318 0.0746325
vn 0.07463258 -0.9967318 0.03091383
vn 0.07463253 0.9967318 0.03091381
vn -0.03091386 -0.9967318 0.07463262
vn 0.03091384 0.9967318 0.07463262
vn -0.03091384 0.9967318 0.07463257
vn -0.0746325 -0.9967318 0.03091382
vn -0.07463283 -0.9967318 -0.03091394
vn -0.07463282 0.9967318 0.03091395
vn -0.07463252 0.9967318 -0.03091381
vn 0 1 0
vn 0.7861965 0.5252095 -0.3256532
vn 0.3256532 0.5252095 -0.7861965
vn 0.7861965 0.5252095 0.3256533
vn 0.3256532 0.5252095 0.7861965
vn -0.3256533 0.5252095 0.7861965
vn -0.7861966 0.5252094 0.3256533
vn -0.7861967 0.5252092 -0.3256532
vn -0.3256533 0.5252095 -0.7861965

usemtl SmallPropGrid
f 1/1/1 2/2/1 3/3/1
f 3/7/3 2/8/3 7/9/3
f 7/13/5 2/14/5 9/15/5
f 9/19/7 2/20/7 11/21/7
f 11/25/9 2/26/9 13/27/9
f 13/29/11 2/30/11 15/31/11
f 15/34/13 2/8/13 17/35/13
f 17/39/15 2/40/15 1/41/15
f 6/6/2 5/5/2 4/4/2
f 8/12/4 5/11/4 6/10/4
f 10/18/6 5/17/6 8/16/6
f 12/24/8 5/23/8 10/22/8
f 14/28/10 5/23/10 12/24/10
f 16/33/12 5/17/12 14/32/12
f 18/38/14 5/37/14 16/36/14
f 4/44/16 5/43/16 18/42/16
f 20/46/17 19/45/17 22/48/17
f 22/48/17 21/47/17 20/46/17
f 21/50/18 22/49/18 24/52/18
f 24/52/18 23/51/18 21/50/18
f 23/50/19 24/49/19 26/52/19
f 26/52/19 25/51/19 23/50/19
f 28/48/20 27/47/20 25/46/20
f 25/46/20 26/45/20 28/48/20
f 29/55/21 27/54/21 28/53/21
f 28/53/21 30/56/21 29/55/21
f 32/60/22 31/59/22 29/58/22
f 29/58/22 30/57/22 32/60/22
f 33/59/23 31/58/23 32/57/23
f 32/57/23 34/60/23 33/59/23
f 33/54/24 34/53/24 19/56/24
f 19/56/24 20/55/24 33/54/24
f 35/63/25 1/62/25 3/61/25
f 3/61/25 36/64/25 35/63/25
f 37/65/17 35/63/17 36/64/17
f 36/64/17 38/66/17 37/65/17
f 36/69/26 3/68/26 7/67/26
f 7/67/26 39/70/26 36/69/26
f 38/71/18 36/69/18 39/70/18
f 39/70/18 40/72/18 38/71/18
f 39/75/27 7/74/27 9/73/27
f 9/73/27 41/76/27 39/75/27
f 40/77/19 39/75/19 41/76/19
f 41/76/19 42/78/19 40/77/19
f 43/80/20 42/79/20 41/82/20
f 41/82/20 44/81/20 43/80/20
f 11/83/28 44/81/28 41/82/28
f 41/82/28 9/84/28 11/83/28
f 45/79/21 43/85/21 44/86/21
f 44/86/21 46/82/21 45/79/21
f 13/87/29 46/82/29 44/86/29
f 44/86/29 11/88/29 13/87/29
f 15/92/30 47/91/30 46/90/30
f 46/90/30 13/89/30 15/92/30
f 48/94/22 45/93/22 46/90/22
f 46/90/22 47/91/22 48/94/22
f 49/97/31 47/96/31 15/95/31
f 15/95/31 17/98/31 49/97/31
f 50/100/23 48/99/23 47/96/23
f 47/96/23 49/97/23 50/100/23
f 49/103/32 17/102/32 1/101/32
f 1/101/32 35/63/32 49/103/32
f 50/104/24 49/103/24 35/63/24
f 35/63/24 37/65/24 50/104/24
f 24/108/33 40/106/33 42/105/33
f 42/105/33 26/107/33 24/108/33
f 21/112/34 52/110/34 51/109/34
f 51/109/34 20/111/34 21/112/34
f 25/116/35 54/114/35 53/113/35
f 53/113/35 23/115/35 25/116/35
f 22/120/36 38/118/36 40/117/36
f 40/117/36 24/119/36 22/120/36
f 23/124/37 53/122/37 52/121/37
f 52/121/37 21/123/37 23/124/37
f 19/128/38 37/126/38 38/125/38
f 38/125/38 22/127/38 19/128/38
f 32/132/39 48/130/39 50/129/39
f 50/129/39 34/131/39 32/132/39
f 34/136/40 50/134/40 37/133/40
f 37/133/40 19/135/40 34/136/40
f 20/140/41 51/138/41 55/137/41
f 55/137/41 33/139/41 20/140/41
f 30/144/42 45/142/42 48/141/42
f 48/141/42 32/143/42 30/144/42
f 33/148/43 55/146/43 56/145/43
f 56/145/43 31/147/43 33/148/43
f 31/152/44 56/150/44 57/149/44
f 57/149/44 29/151/44 31/152/44
f 28/156/45 43/154/45 45/153/45
f 45/153/45 30/155/45 28/156/45
f 26/160/46 42/158/46 43/157/46
f 43/157/46 28/159/46 26/160/46
f 29/164/47 57/162/47 58/161/47
f 58/161/47 27/163/47 29/164/47
f 27/168/48 58/166/48 54/165/48
f 54/165/48 25/167/48 27/168/48
f 60/172/49 51/170/49 52/169/49
f 52/169/49 59/171/49 60/172/49
f 59/171/49 52/169/49 53/173/49
f 53/173/49 61/174/49 59/171/49
f 62/176/49 55/175/49 51/170/49
f 51/170/49 60/172/49 62/176/49
f 63/178/49 56/177/49 55/175/49
f 55/175/49 62/176/49 63/178/49
f 64/180/49 57/179/49 56/177/49
f 56/177/49 63/178/49 64/180/49
f 65/182/49 58/181/49 57/179/49
f 57/179/49 64/180/49 65/182/49
f 66/184/49 54/183/49 58/181/49
f 58/181/49 65/182/49 66/184/49
f 61/174/49 53/173/49 54/183/49
f 54/183/49 66/184/49 61/174/49
f 68/188/21 60/186/21 59/185/21
f 59/185/21 67/187/21 68/188/21
f 67/192/22 59/190/22 61/189/22
f 61/189/22 69/191/22 67/192/22
f 70/196/20 62/194/20 60/193/20
f 60/193/20 68/195/20 70/196/20
f 71/200/19 63/198/19 62/197/19
f 62/197/19 70/199/19 71/200/19
f 72/200/18 64/198/18 63/197/18
f 63/197/18 71/199/18 72/200/18
f 73/196/17 65/194/17 64/193/17
f 64/193/17 72/195/17 73/196/17
f 74/188/24 66/186/24 65/185/24
f 65/185/24 73/187/24 74/188/24
f 69/192/23 61/190/23 66/189/23
f 66/189/23 74/191/23 69/192/23
f 4/204/50 68/202/50 67/201/50
f 67/201/50 6/203/50 4/204/50
f 6/208/51 67/206/51 69/205/51
f 69/205/51 8/207/51 6/208/51
f 18/212/52 70/210/52 68/209/52
f 68/209/52 4/211/52 18/212/52
f 16/216/53 71/214/53 70/213/53
f 70/213/53 18/215/53 16/216/53
f 14/220/54 72/218/54 71/217/54
f 71/217/54 16/219/54 14/220/54
f 12/224/55 73/222/55 72/221/55
f 72/221/55 14/223/55 12/224/55
f 10/228/56 74/226/56 73/225/56
f 73/225/56 12/227/56 10/228/56
f 8/232/57 69/230/57 74/229/57
f 74/229/57 10/231/57 8/232/57

g Cube
v 0.035 0.119 0.039
v -0.055414 0.119 0.039
v 0.035 0.2636624 0.039
v -0.055414 0.2636624 0.039
v -0.055414 0.119 -0.006207
v -0.055414 0.2636624 -0.006207
v 0.035 0.119 -0.006207
v 0.035 0.2636624 -0.006207

vt 0 0
vt -0.1 0
vt 0 0.16
vt -0.1 0.16
vt -0.05 0
vt -0.05 0.16
vt 0.1 0
vt 0.1 0.16
vt 0.05 0
vt 0.05 0.16
vt 0 -0.05
vt 0.1 -0.05
vt -0.1 -0.05

vn 0 0 1
vn -1 0 0
vn 0 0 -1
vn 1 0 0
vn 0 1 0
vn 0 -1 0

usemtl SmallPropGrid
f 77/235/58 78/236/58 76/234/58 75/233/58
f 78/235/59 80/238/59 79/237/59 76/233/59
f 80/240/60 82/235/60 81/233/60 79/239/60
f 82/242/61 77/235/61 75/233/61 81/241/61
f 82/243/62 80/244/62 78/239/62 77/233/62
f 75/233/63 76/234/63 79/245/63 81/243/63

