# ProBuilder 4.2.3
# https://unity3d.com/unity/features/worldbuilding/probuilder
# 22/02/2021 22:44:35

mtllib ./ChessTable.mtl
o ChessTable

g ChessTable
v 0 1 0
v -0.5 1 0
v -0.5 1 -0.5
v 0 1 -0.5
v -1 1 0
v -1 1 -0.5
v -1 1 -1
v -0.5 1 -1
v 0 1 -1
v 0 0 -1
v -0.5 0 -1
v -0.5 0 -0.5
v 0 0 -0.5
v -1 0 -1
v -1 0 -0.5
v -1 0 0
v -0.5 0 0
v 0 0 0
v -0.5 0.8328241 -0.2137861
v -0.7851171 0.8326313 -0.2148829
v -1 0.938585 0
v -0.5 0.938585 0
v -0.2148829 0.8326313 -0.2148829
v 0 0.938585 0
v -0.7862139 0.8328241 -0.5
v -0.7851171 0.8326313 -0.7851171
v -1 0.938585 -1
v -1 0.938585 -0.5
v -0.2148829 0.8326313 -0.7851171
v 0 0.938585 -1
v -0.5 0.938585 -1
v -0.5 0.8328241 -0.7862139
v 0 0.938585 -0.5
v -0.2137861 0.8328241 -0.5
v -0.5 0.06423312 0
v 0 0.06423312 0
v -0.5 0.1668751 -0.2137299
v -0.2148438 0.1671626 -0.2148438
v -1 0.06423312 0
v -0.7851563 0.1671626 -0.2148438
v -1 0.06423312 -0.5
v -0.7862701 0.1668751 -0.5
v -1 0.06423312 -1
v -0.7851563 0.1671626 -0.7851563
v -0.5 0.06423312 -1
v -0.5 0.1668751 -0.7862701
v 0 0.06423312 -1
v -0.2148438 0.1671626 -0.7851563
v 0 0.06423312 -0.5
v -0.2137299 0.1668751 -0.5

vt 0 0
vt 0.5 0
vt 0.5 -0.5
vt 0 -0.5
vt 1 0
vt 1 -0.5
vt 1 -1
vt 0.5 -1
vt 0 -1
vt -0.5 -1
vt -0.5 -0.5
vt -1 -1
vt -1 -0.5
vt -1 0
vt -0.5 0
vt -0.5 0.5201684
vt -0.786217 0.5174035
vt -1 0.8805432
vt -0.5 0.8805432
vt -1 0.938585
vt -1 1
vt -0.5 1
vt -0.5 0.938585
vt -0.213783 0.5174035
vt 0 0.8805432
vt 0 1
vt 0 0.938585
vt -0.5 0.5194155
vt -0.786217 0.5166506
vt -1 0.8797902
vt -0.5 0.8797902
vt -0.213783 0.5166506
vt 0 0.8797902
vt 0.213783 0.5166506
vt 0.5 0.8797902
vt 0.5 0.5194155
vt 0.5 1
vt 0.5 0.938585
vt 1 0.8797902
vt 0.786217 0.5166506
vt 1 1
vt 1 0.938585
vt 0.213783 0.5174035
vt 0.5 0.8805432
vt 0.5 0.5201684
vt 1 0.8805432
vt 0.786217 0.5174035
vt -0.5 0.06423312
vt 0 0.06423312
vt -0.5 0.1222746
vt -0.5 0.4801684
vt -0.2137336 0.4829625
vt 0 0.1222746
vt -1 0.06423312
vt -1 0.1222746
vt -0.7862664 0.4829625
vt -0.5 0.1215217
vt -0.5 0.4794155
vt -0.2137336 0.4822095
vt 0 0.1215217
vt -1 0.1215217
vt -0.7862664 0.4822095
vt 0.5 0.06423312
vt 1 0.06423312
vt 0.5 0.1215217
vt 0.5 0.4794155
vt 0.7862664 0.4822095
vt 1 0.1215217
vt 0.2137336 0.4822095
vt 0.5 0.1222746
vt 0.5 0.4801684
vt 0.7862664 0.4829625
vt 1 0.1222746
vt 0.2137336 0.4829625
vt -0.2140547 0.832644
vt -0.499174 0.8328368
vt -0.2140158 0.1671754
vt -0.4991742 0.1668878
vt -0.5008187 0.832842
vt -0.7859379 0.8326492
vt -0.5008184 0.166893
vt -0.7859769 0.1671805
vt -0.2179013 0.8325851
vt -0.5030205 0.8327779
vt -0.2178623 0.1671164
vt -0.5030208 0.1668288
vt -0.4969721 0.8327575
vt -0.7820913 0.8325648
vt -0.4969718 0.1668085
vt -0.7821302 0.167096
vt 0.7820913 0.8325849
vt 0.4969721 0.8327776
vt 0.7821303 0.1671161
vt 0.4969718 0.1668286
vt 0.5030206 0.8327578
vt 0.2179013 0.8325651
vt 0.5030208 0.1668088
vt 0.2178624 0.1670964
vt 0.7859379 0.8326439
vt 0.5008187 0.8328366
vt 0.7859769 0.1671751
vt 0.5008184 0.1668876
vt 0.4991739 0.8328424
vt 0.2140547 0.8326496
vt 0.4991742 0.1668933
vt 0.2140157 0.1671809

vn 0 1 0
vn 0 -1 0
vn -0.0005455319 -0.8968235 0.4423864
vn -0.001091064 -0.8973292 0.4413607
vn 0 -0.8963178 0.4434121
vn 0 0 1
vn 0.000549819 -0.8966074 0.4428253
vn 0.001099638 -0.8963174 0.4434119
vn 0 -0.8968974 0.4422388
vn -0.4423864 -0.8968235 -0.0005455319
vn -0.4413607 -0.8973292 -0.001091064
vn -0.4434121 -0.8963178 0
vn -1 0 0
vn -0.4428253 -0.8966074 0.000549819
vn -0.4434119 -0.8963174 0.001099638
vn -0.4422388 -0.8968974 0
vn 0.000549819 -0.8966074 -0.4428253
vn 0 -0.8968974 -0.4422388
vn 0.001099638 -0.8963174 -0.4434119
vn 0 0 -1
vn -0.0005455319 -0.8968235 -0.4423864
vn 0 -0.8963178 -0.4434121
vn -0.001091064 -0.8973292 -0.4413607
vn 0.4428253 -0.8966074 0.000549819
vn 0.4422388 -0.8968974 0
vn 0.4434119 -0.8963174 0.001099638
vn 1 0 0
vn 0.4423864 -0.8968235 -0.0005455319
vn 0.4434121 -0.8963178 0
vn 0.4413607 -0.8973292 -0.001091064
vn 0 0.9014381 0.432908
vn 0.0003877638 0.9017914 0.4321705
vn 0.0007755276 0.9021447 0.431433
vn -0.0007820014 0.9014379 0.4329078
vn -0.432908 0.9014381 0
vn -0.4321705 0.9017914 0.0003877638
vn -0.431433 0.9021447 0.0007755276
vn -0.4329078 0.9014379 -0.0007820014
vn -0.0003910007 0.9016404 -0.4324859
vn -0.0007820014 0.9014379 -0.4329078
vn 0.0007755276 0.9021447 -0.431433
vn 0 0.9014381 -0.432908
vn 0.4324859 0.9016404 -0.0003910007
vn 0.4329078 0.9014379 -0.0007820014
vn 0.431433 0.9021447 0.0007755276
vn 0.432908 0.9014381 0
vn 0.00384659 5.898213E-05 0.9999926
vn -0.003846607 8.44905E-05 0.9999926
vn -0.9999926 5.898213E-05 0.00384659
vn -0.9999926 8.44905E-05 -0.003846607
vn -0.00384659 5.898213E-05 -0.9999926
vn 0.003846607 8.44905E-05 -0.9999926
vn 0.9999926 5.898213E-05 -0.00384659
vn 0.9999926 8.44905E-05 0.003846607

usemtl MediumPropGrid
f 2/2/1 1/1/1 4/4/1 3/3/1
f 5/5/1 2/2/1 3/3/1 6/6/1
f 6/6/1 3/3/1 8/8/1 7/7/1
f 3/3/1 4/4/1 9/9/1 8/8/1
f 10/9/2 13/4/2 12/11/2 11/10/2
f 11/10/2 12/11/2 15/13/2 14/12/2
f 12/11/2 17/15/2 16/14/2 15/13/2
f 13/4/2 18/1/2 17/15/2 12/11/2
f 22/19/5 21/18/3 20/17/4 19/16/3
f 2/22/6 5/21/6 21/20/6 22/23/6
f 24/25/9 22/19/7 19/16/8 23/24/7
f 1/26/6 2/22/6 22/23/6 24/27/6
f 28/31/12 27/30/10 26/29/11 25/28/10
f 6/22/13 7/21/13 27/20/13 28/23/13
f 21/33/16 28/31/14 25/28/15 20/32/14
f 5/26/13 6/22/13 28/23/13 21/27/13
f 32/36/19 31/35/17 30/33/18 29/34/17
f 31/38/20 8/37/20 9/26/20 30/27/20
f 26/40/23 27/39/21 31/35/22 32/36/21
f 27/42/20 7/41/20 8/37/20 31/38/20
f 34/45/26 33/44/24 24/25/25 23/43/24
f 33/38/27 4/37/27 1/26/27 24/27/27
f 29/47/30 30/46/28 33/44/29 34/45/28
f 30/42/27 9/41/27 4/37/27 33/38/27
f 36/49/6 35/48/6 17/15/6 18/1/6
f 38/52/33 37/51/32 35/50/31 36/53/32
f 35/48/6 39/54/6 16/14/6 17/15/6
f 37/51/34 40/56/32 39/55/32 35/50/32
f 39/49/13 41/48/13 15/15/13 16/1/13
f 40/59/37 42/58/36 41/57/35 39/60/36
f 41/48/13 43/54/13 14/14/13 15/15/13
f 42/58/38 44/62/36 43/61/36 41/57/36
f 14/5/20 43/64/20 45/63/20 11/2/20
f 43/68/39 44/67/39 46/66/40 45/65/39
f 11/2/20 45/63/20 47/49/20 10/1/20
f 45/65/42 46/66/39 48/69/41 47/60/39
f 10/5/27 47/64/27 49/63/27 13/2/27
f 47/73/43 48/72/43 50/71/44 49/70/43
f 13/2/27 49/63/27 36/49/27 18/1/27
f 49/70/46 50/71/43 38/74/45 36/53/43
f 37/78/47 38/77/47 23/75/47 19/76/47
f 40/82/48 37/81/48 19/79/48 20/80/48
f 42/86/49 40/85/49 20/83/49 25/84/49
f 44/90/50 42/89/50 25/87/50 26/88/50
f 46/94/51 44/93/51 26/91/51 32/92/51
f 48/98/52 46/97/52 32/95/52 29/96/52
f 50/102/53 48/101/53 29/99/53 34/100/53
f 38/106/54 50/105/54 34/103/54 23/104/54

