# ProBuilder 4.2.3
# https://unity3d.com/unity/features/worldbuilding/probuilder
# 22/02/2021 10:23:55

mtllib ./DisplayPlaque.mtl
o DisplayPlaque

g WoodPlaque
v -6.090402E-07 1.214898 -9.209514E-07
v -0.5000006 1.415553 -9.507537E-07
v -0.5000006 1.415553 -0.02000141
v -6.078481E-07 1.214898 -0.02000138
v -1.000001 1.214898 -9.80556E-07
v -1.000001 1.214898 -0.02000144
v -6.078481E-07 0.08510208 -0.02000138
v -0.5000006 -0.1155534 -0.02000141
v -0.5000006 -0.1155534 -9.507537E-07
v -6.090402E-07 0.08510208 -9.209514E-07
v -1.000001 0.08510208 -0.02000144
v -1.000001 0.08510208 -9.80556E-07
v -1.14441 0.6500001 -0.02000145
v -1.14441 0.6500001 -9.891635E-07
v 0.1444048 0.6500001 -9.123441E-07
v 0.1444048 0.6500001 -0.02000137
v -0.5000006 0.6500001 -9.507537E-07
v -0.5000006 0.6500001 -0.02000141

vt 6.090402E-07 -9.209514E-07
vt 0.5000006 -9.507537E-07
vt 0.5000006 -0.02000141
vt 6.078481E-07 -0.02000138
vt 1.000001 -9.80556E-07
vt 1.000001 -0.02000144
vt -0.5000006 -0.02000141
vt -0.5000006 -9.507537E-07
vt -1.000001 -0.02000144
vt -1.000001 -9.80556E-07
vt -9.80556E-07 0.08510199
vt -0.02000144 0.08510199
vt -0.02000145 0.65
vt -9.891635E-07 0.65
vt -0.02000144 1.214898
vt -9.80556E-07 1.214898
vt 0.02000138 0.08510208
vt 9.166478E-07 0.6500001
vt 0.02000137 0.6500001
vt 0.02000138 1.214898
vt -0.5000006 -0.1155534
vt -0.5000006 0.6500001
vt 0.1444048 0.6500001
vt -0.5000006 1.415553
vt -1.000001 0.08510208
vt -1.14441 0.6500001
vt -1.000001 1.214898
vt 0.5000006 -0.1155534
vt 0.5000006 0.6500001
vt 1.14441 0.6500001
vt 1.000001 0.08510208
vt 0.5000006 1.415553
vt 1.000001 1.214898
vt -0.1444048 0.6500001

vn 0.3724393 0.9280566 0
vn -0.3724393 0.9280566 0
vn 0.3724393 -0.9280566 2.219911E-08
vn -0.3724393 -0.9280566 0
vn -0.9688438 -0.2476729 0
vn -0.9688436 0.2476731 0
vn 0.9688453 -0.2476668 0
vn 0.9688452 0.2476669 0
vn -5.960464E-08 0 1
vn 5.98729E-08 -6.960991E-10 -1

usemtl WoodGrid
f 2/2/1 1/1/1 4/4/1 3/3/1
f 5/5/2 2/2/2 3/3/2 6/6/2
f 7/4/3 10/1/3 9/8/3 8/7/3
f 8/7/4 9/8/4 12/10/4 11/9/4
f 14/14/5 13/13/5 11/12/5 12/11/5
f 5/16/6 6/15/6 13/13/6 14/14/6
f 10/11/7 7/17/7 16/19/7 15/18/7
f 15/18/8 16/19/8 4/20/8 1/16/8
f 15/23/9 17/22/9 9/21/9 10/11/9
f 1/16/9 2/24/9 17/22/9 15/23/9
f 17/22/9 14/26/9 12/25/9 9/21/9
f 2/24/9 5/27/9 14/26/9 17/22/9
f 11/31/10 13/30/10 18/29/10 8/28/10
f 13/30/10 6/33/10 3/32/10 18/29/10
f 8/28/10 18/29/10 16/34/10 7/11/10
f 18/29/10 3/32/10 4/16/10 16/34/10

