# ProBuilder 4.2.3
# https://unity3d.com/unity/features/worldbuilding/probuilder
# 22/02/2021 10:11:24

mtllib ./DressingTable.mtl
o DressingTable

g DressingTableTop
v -2.134 0.5700997 0
v -2.134 0.5700997 -1.034
v -2.134 0.7685233 -1.034
v -2.134 0.7685233 4.097819E-09
v -2.167 0.7685233 -1.067
v -2.167 0.8819031 -1.067
v -2.167 0.8819031 0.033
v -2.167 0.7685233 0.033
v 0 0.5700997 -1.034
v 0 0.5700997 0
v -2.868474E-08 0.7685233 4.097819E-09
v -2.868474E-08 0.7685233 -1.034
v 0.03299997 0.7685233 0.033
v 0.03299997 0.8819031 0.033
v 0.03299997 0.8819031 -1.067
v 0.03299997 0.7685233 -1.067
v -1.067 0.8819031 -1.067
v -0.6282991 0.8819031 -1.067
v -0.6282991 0.8819031 0.033
v -1.067 0.8819031 0.033
v -1.067 0.5700997 -1.034
v -1.067 0.5700997 0
v -0.6414601 0.5700997 0
v -0.6414601 0.5700997 -1.034
v -0.6414601 0.231 0
v 0 0.231 0
v 0 0.231 -1.034
v -0.6414601 0.231 -1.034
v -0.02007525 0.7457057 0.011
v -0.02007512 0.5929172 0.011
v -0.6213849 0.5929172 0.011
v -0.6213849 0.7457057 0.011
v -0.6521412 0.5939968 0.011
v -1.056319 0.5939968 0.011
v -1.056319 0.7446262 0.011
v -0.6521412 0.7446262 0.011
v -0.6282991 0.7685233 0.033
v -1.067 0.7685233 0.033
v -0.6414601 0.7685233 -1.034
v -1.067 0.7685233 -1.034
v -0.6282991 0.7685233 -1.067
v -1.067 0.7685233 -1.067
v -0.6414601 0.7685233 0
v -1.067 0.7685233 4.097819E-09
v -1.505701 0.8819031 -1.067
v -1.505701 0.8819031 0.033
v -2.134 0.231 -1.034
v -2.134 0.231 0
v -1.49254 0.231 0
v -1.49254 0.231 -1.034
v -1.49254 0.5700997 0
v -1.49254 0.5700997 -1.034
v -1.460497 0.5939968 0.011
v -1.460497 0.7446262 0.011
v -1.516799 0.5929172 0.011
v -2.109741 0.5929172 0.011
v -2.109741 0.7457057 0.011
v -1.516799 0.7457057 0.011
v -1.505701 0.7685233 0.033
v -1.49254 0.7685233 -1.034
v -1.505701 0.7685233 -1.067
v -1.49254 0.7685233 0
v -2.109741 0.5488676 0.011
v -1.5168 0.5488676 0.011
v -2.109741 0.252232 0.011
v -1.5168 0.252232 0.011
v -0.6213849 0.5488676 0.011
v -0.02007515 0.5488676 0.011
v -0.6213849 0.252232 0.011
v -0.02007515 0.252232 0.011

vt -0.03 0.5165423
vt -0.97 0.5165423
vt -0.97 0.6969274
vt -0.03 0.6969274
vt -1 0.6969274
vt -1 0.8
vt 0 0.8
vt 0 0.6969274
vt 0.97 0.5165423
vt 0.03 0.5165423
vt 0.03 0.6969274
vt 0.97 0.6969274
vt 1 0.8
vt 1 0.6969274
vt -2 -1
vt -2 0
vt -1.97 -0.97
vt -1.97 -0.03
vt 0 0
vt 0 -1
vt -0.03 -0.03
vt -0.03 -0.97
vt 1 -1
vt 0.6011809 -1
vt 0.6011809 0
vt 1 0
vt -1 -0.97
vt -1 -0.03
vt -0.6131455 -0.03
vt -0.6131455 -0.97
vt -0.02999997 -0.03
vt -0.0482502 0.6761842
vt -0.04825008 0.5372856
vt -0.5948954 0.5372856
vt -0.5948954 0.6761842
vt -0.6228556 0.538267
vt -0.9902899 0.538267
vt -0.9902899 0.6752028
vt -0.6228556 0.6752028
vt -0.6011809 0.6969274
vt -0.6011809 0.8
vt 0.6131455 0.6969274
vt 0.6131455 0.5165423
vt 0.02999997 0.5165423
vt 1 0.5165423
vt 0.6011809 0.8
vt 0.6011809 0.6969274
vt -0.6011809 -1
vt -1 -1
vt -0.6011809 0
vt -1 -0.03
vt -1 0
vt 2 -1
vt 1.398819 -1
vt 1.398819 0
vt 2 0
vt -1.97 -0.03
vt -1.386855 -0.03
vt -1.386855 -0.97
vt -1.357724 0.538267
vt -1.357724 0.6752028
vt -1.408908 0.5372856
vt -1.947946 0.5372856
vt -1.947946 0.6761842
vt -1.408908 0.6761842
vt -1.398819 0.6969274
vt -1.398819 0.8
vt -2 0.6969274
vt -2 0.8
vt 1.386855 0.6969274
vt 1.386855 0.5165423
vt 1.97 0.6969274
vt 1.97 0.5165423
vt 1.398819 0.8
vt 1.398819 0.6969274
vt 2 0.8
vt 2 0.6969274
vt -1.398819 -1
vt -1.398819 0
vt -1.947946 0.4972405
vt -1.408909 0.4972405
vt -1.947946 0.2275717
vt -1.408909 0.2275717
vt 0.03 0.2082699
vt 0.97 0.2082699
vt 1.386855 0.2082699
vt 1.97 0.2082699
vt -0.97 0.2082699
vt -0.03 0.2082699
vt -0.5948954 0.4972405
vt -0.04825011 0.4972405
vt -0.5948954 0.2275717
vt -0.04825011 0.2275717
vt 0.02999997 0.2082699
vt 0.6131455 0.2082699
vt -1.386855 0.4522681
vt -1.97 0.4522681
vt -1.408908 0.4752959
vt -1.947946 0.4752959
vt -1.806562 0.5165423
vt -1.806562 0.6969274
vt -1.782347 0.5372856
vt -1.782347 0.6761842
vt -1.250686 0.6969274
vt -1.250686 0.5165423
vt -1.274901 0.6761842
vt -1.274901 0.5372856
vt -1.97 0.6408125
vt -1.386855 0.6408125
vt -1.947946 0.6177846
vt -1.408908 0.6177846
vt -1.97 0.4724443
vt -1.386855 0.4724443
vt -1.947946 0.4507059
vt -1.408909 0.4507059
vt -1.806562 0.2082699
vt -1.782347 0.2275717
vt -1.782347 0.4972405
vt -1.250687 0.2082699
vt -1.274902 0.4972405
vt -1.274902 0.2275717
vt -1.386855 0.1711249
vt -1.97 0.1711249
vt -1.408909 0.1928633
vt -1.947946 0.1928633
vt -1 0.4566751
vt -1.386855 0.4566751
vt -0.9902899 0.4805907
vt -1.357724 0.4805907
vt -1.321458 0.5165423
vt -1.321458 0.6969274
vt -1.290659 0.538267
vt -1.290659 0.6752028
vt -0.4056141 0.6969274
vt -0.4056141 0.5165423
vt -0.4195528 0.6752028
vt -0.4195528 0.538267
vt -1.386855 0.6456223
vt -1 0.6456223
vt -1.357724 0.6217065
vt -0.9902899 0.6217065
vt -0.6131455 0.4566751
vt -0.6228556 0.4805907
vt -0.6131455 0.6456223
vt -0.6228556 0.6217066
vt -0.01189342 0.6969274
vt -0.0118934 0.5165423
vt -0.03270375 0.6761842
vt -0.03270365 0.5372856
vt -0.02999997 0.4522681
vt -0.6131455 0.4522681
vt -0.04825008 0.4752959
vt -0.5948954 0.4752959
vt -0.5521304 0.5165423
vt -0.5521304 0.6969274
vt -0.5313202 0.5372856
vt -0.5313202 0.6761842
vt -0.6131455 0.6408125
vt -0.03 0.6408125
vt -0.5948954 0.6177846
vt -0.0482502 0.6177846
vt -0.6131455 0.4724443
vt -0.02999997 0.4724443
vt -0.5948954 0.4507059
vt -0.04825011 0.4507059
vt -0.5521304 0.2082699
vt -0.5313202 0.2275717
vt -0.5313202 0.4972405
vt -0.01189334 0.2082699
vt -0.03270361 0.4972405
vt -0.03270361 0.2275717
vt -0.02999997 0.1711249
vt -0.6131455 0.1711249
vt -0.04825011 0.1928633
vt -0.5948954 0.1928633

vn -1 0 0
vn 1 1.445631E-07 0
vn 0 -1 0
vn 0 1 0
vn -3.097647E-09 -1.2191E-08 1
vn 0 0 -1
vn 0 -0.4342569 0.9007891
vn -0.4129637 -1.880864E-08 0.9107475
vn 0.412962 0 0.9107482
vn 5.754483E-09 0.4342569 0.9007891
vn 0 0.4600143 0.8879115
vn 0 -0.460014 0.8879117
vn 0 -0.4181355 0.9083847
vn -0.3246865 0 0.9458217
vn 0.7174281 0 0.6966326
vn -8.747466E-09 0.4181355 0.9083847
vn 0.4805305 5.135575E-08 0.876978
vn -0.4805321 0 0.8769772

usemtl WoodGrid
f 4/4/1 3/3/1 2/2/1 1/1/1
f 7/7/1 6/6/1 5/5/1 8/8/1
f 9/9/2 12/12/2 11/11/2 10/10/2
f 16/14/2 15/13/2 14/7/2 13/8/2
f 3/17/3 4/18/3 8/16/3 5/15/3
f 11/21/3 12/22/3 16/20/3 13/19/3
f 20/26/4 19/25/4 18/24/4 17/23/4
f 19/25/4 14/19/4 15/20/4 18/24/4
f 21/27/3 24/30/3 23/29/3 22/28/3
f 28/30/3 27/22/3 26/31/3 25/29/3
f 32/35/5 31/34/5 30/33/5 29/32/5
f 36/39/5 35/38/5 34/37/5 33/36/5
f 14/7/5 19/41/5 37/40/5 13/8/5
f 19/41/5 20/6/5 38/5/5 37/40/5
f 9/44/6 24/43/6 39/42/6 12/11/6
f 21/45/6 40/14/6 39/42/6 24/43/6
f 41/47/6 18/46/6 15/7/6 16/8/6
f 42/14/6 17/13/6 18/46/6 41/47/6
f 39/30/3 41/48/3 16/20/3 12/22/3
f 40/27/3 42/49/3 41/48/3 39/30/3
f 37/50/3 43/29/3 11/21/3 13/19/3
f 38/52/3 44/51/3 43/29/3 37/50/3
f 7/56/4 46/55/4 45/54/4 6/53/4
f 46/55/4 20/26/4 17/23/4 45/54/4
f 47/17/3 50/59/3 49/58/3 48/57/3
f 52/59/3 21/27/3 22/28/3 51/58/3
f 35/38/5 54/61/5 53/60/5 34/37/5
f 58/65/5 57/64/5 56/63/5 55/62/5
f 20/6/5 46/67/5 59/66/5 38/5/5
f 46/67/5 7/69/5 8/68/5 59/66/5
f 52/71/6 60/70/6 40/14/6 21/45/6
f 2/73/6 3/72/6 60/70/6 52/71/6
f 61/75/6 45/74/6 17/13/6 42/14/6
f 5/77/6 6/76/6 45/74/6 61/75/6
f 3/17/3 5/15/3 61/78/3 60/59/3
f 61/78/3 42/49/3 40/27/3 60/59/3
f 8/16/3 4/18/3 62/58/3 59/79/3
f 44/51/3 38/52/3 59/79/3 62/58/3
f 65/82/5 66/83/5 64/81/5 63/80/5
f 49/84/2 50/85/2 52/9/2 51/10/2
f 50/86/6 47/87/6 2/73/6 52/71/6
f 47/88/1 48/89/1 1/1/1 2/2/1
f 69/92/5 70/93/5 68/91/5 67/90/5
f 26/84/2 27/85/2 9/9/2 10/10/2
f 27/94/6 28/95/6 24/43/6 9/44/6
f 28/88/1 25/89/1 23/1/1 24/2/1
f 55/98/7 56/99/7 1/97/7 51/96/7
f 56/102/8 57/103/8 4/101/8 1/100/8
f 58/106/9 55/107/9 51/105/9 62/104/9
f 57/110/10 58/111/10 62/109/10 4/108/10
f 63/114/11 64/115/11 51/113/11 1/112/11
f 65/117/8 63/118/8 1/100/8 48/116/8
f 64/120/9 66/121/9 49/119/9 51/105/9
f 66/124/12 65/125/12 48/123/12 49/122/12
f 34/128/13 53/129/13 51/127/13 22/126/13
f 53/132/14 54/133/14 62/131/14 51/130/14
f 36/136/15 33/137/15 23/135/15 43/134/15
f 54/140/16 35/141/16 44/139/16 62/138/16
f 33/143/13 34/128/13 22/126/13 23/142/13
f 35/141/16 36/145/16 43/144/16 44/139/16
f 29/148/17 30/149/17 10/147/17 11/146/17
f 30/152/7 31/153/7 23/151/7 10/150/7
f 31/156/18 32/157/18 43/155/18 23/154/18
f 32/160/10 29/161/10 11/159/10 43/158/10
f 67/164/11 68/165/11 10/163/11 23/162/11
f 69/167/18 67/168/18 23/154/18 25/166/18
f 68/170/17 70/171/17 26/169/17 10/147/17
f 70/174/12 69/175/12 25/173/12 26/172/12

g Leg
v 0 0 0
v -0.11 0 0
v 0 0.231 0
v -0.11 0.231 0
v -0.11 0 -0.11
v -0.11 0.231 -0.11
v 0 0 -0.11
v 0 0.231 -0.11

vt 0 0
vt -0.1 0
vt 0 0.21
vt -0.1 0.21
vt 0.1 0
vt 0.1 0.21
vt 0 -0.1
vt 0.1 -0.1
vt -0.1 -0.1

vn 0 0 1
vn -1 0 0
vn 0 0 -1
vn 1 0 0
vn 0 1 0
vn 0 -1 0

usemtl WoodGrid
f 73/178/19 74/179/19 72/177/19 71/176/19
f 74/178/20 76/179/20 75/177/20 72/176/20
f 76/181/21 78/178/21 77/176/21 75/180/21
f 78/181/22 73/178/22 71/176/22 77/180/22
f 78/182/23 76/183/23 74/180/23 73/176/23
f 71/176/24 72/177/24 75/184/24 77/182/24

g Leg (1)
v -2.024 0 2.384186E-07
v -2.134 0 2.384186E-07
v -2.024 0.231 2.384186E-07
v -2.134 0.231 2.384186E-07
v -2.134 0 -0.1099998
v -2.134 0.231 -0.1099998
v -2.024 0 -0.1099998
v -2.024 0.231 -0.1099998

vt 0 0
vt -0.1 0
vt 0 0.21
vt -0.1 0.21
vt 0.1 0
vt 0.1 0.21
vt 0 -0.1
vt 0.1 -0.1
vt -0.1 -0.1

vn 0 0 1
vn -1 0 0
vn 0 0 -1
vn 1 0 0
vn 0 1 0
vn 0 -1 0

usemtl WoodGrid
f 81/187/25 82/188/25 80/186/25 79/185/25
f 82/187/26 84/188/26 83/186/26 80/185/26
f 84/190/27 86/187/27 85/185/27 83/189/27
f 86/190/28 81/187/28 79/185/28 85/189/28
f 86/191/29 84/192/29 82/189/29 81/185/29
f 79/185/30 80/186/30 83/193/30 85/191/30

g Leg (2)
v -3.129244E-07 0 -0.9239998
v -0.1100003 0 -0.9239998
v -3.129244E-07 0.231 -0.9239998
v -0.1100003 0.231 -0.9239998
v -0.1100003 0 -1.034
v -0.1100003 0.231 -1.034
v -3.129244E-07 0 -1.034
v -3.129244E-07 0.231 -1.034

vt 0 0
vt -0.1 0
vt 0 0.21
vt -0.1 0.21
vt 0.1 0
vt 0.1 0.21
vt 0 -0.1
vt 0.1 -0.1
vt -0.1 -0.1

vn 0 0 1
vn -1 0 0
vn 0 0 -1
vn 1 0 0
vn 0 1 0
vn 0 -1 0

usemtl WoodGrid
f 89/196/31 90/197/31 88/195/31 87/194/31
f 90/196/32 92/197/32 91/195/32 88/194/32
f 92/199/33 94/196/33 93/194/33 91/198/33
f 94/199/34 89/196/34 87/194/34 93/198/34
f 94/200/35 92/201/35 90/198/35 89/194/35
f 87/194/36 88/195/36 91/202/36 93/200/36

g Leg (3)
v -2.024 0 -0.9239998
v -2.134 0 -0.9239998
v -2.024 0.231 -0.9239998
v -2.134 0.231 -0.9239998
v -2.134 0 -1.034
v -2.134 0.231 -1.034
v -2.024 0 -1.034
v -2.024 0.231 -1.034

vt 0 0
vt -0.1 0
vt 0 0.21
vt -0.1 0.21
vt 0.1 0
vt 0.1 0.21
vt 0 -0.1
vt 0.1 -0.1
vt -0.1 -0.1

vn 0 0 1
vn -1 0 0
vn 0 0 -1
vn 1 0 0
vn 0 1 0
vn 0 -1 0

usemtl WoodGrid
f 97/205/37 98/206/37 96/204/37 95/203/37
f 98/205/38 100/206/38 99/204/38 96/203/38
f 100/208/39 102/205/39 101/203/39 99/207/39
f 102/208/40 97/205/40 95/203/40 101/207/40
f 102/209/41 100/210/41 98/207/41 97/203/41
f 95/203/42 96/204/42 99/211/42 101/209/42

