# ProBuilder 4.2.3
# https://unity3d.com/unity/features/worldbuilding/probuilder
# 22/02/2021 10:12:15

mtllib ./Fireplace.mtl
o Fireplace

g Fireplace
v 0 1.7 0
v -0.5572147 1.7 0
v 0 1.7 -3.25
v -0.5572147 1.7 -3.25
v 0 0 -3.25
v -0.5572147 0 -3.25
v 0 0 0
v -0.5572147 0 0
v -0.5572149 1.425739 0
v 0 1.425739 0
v -0.5572149 1.425739 -3.25
v 0 1.425739 -3.25
v -0.5572149 0.3030189 0
v 0 0.3030189 0
v -0.4245447 0.3030189 -0.1
v -0.4245447 1.425739 -0.1
v -0.1326702 1.425739 -0.1
v -0.1326702 0.3030189 -0.1
v -0.5572149 0.3030189 -3.25
v -0.4245447 0.3030189 -3.15
v -0.4245447 1.425739 -3.15
v 0 0.3030189 -3.25
v -0.1326702 0.3030189 -3.15
v -0.1326702 1.425739 -3.15

vt 0 0
vt 0.42 0
vt 0 -3.25
vt 0.42 -3.25
vt -0.42 -3.25
vt -0.42 0
vt -0.4200001 1.425739
vt -0.42 1.7
vt 0 1.7
vt 0 1.425739
vt -3.25 1.425739
vt -3.25 1.7
vt 0.42 1.7
vt 0.4200001 1.425739
vt 3.25 1.7
vt 3.25 1.425739
vt -0.4200001 0.3030189
vt 0 0.3030189
vt -0.3200001 0.3030189
vt -0.3200001 1.425739
vt -0.1 1.425739
vt -0.1 0.3030189
vt -3.25 -6.496985E-09
vt -3.25 0.3030189
vt -3.15 0.3030189
vt -3.15 1.425739
vt 0.4200001 0.3030189
vt 0.1 0.3030189
vt 0.1 1.425739
vt 0.3200001 1.425739
vt 0.3200001 0.3030189
vt 3.25 0.3030189
vt 3.25 0
vt 3.15 1.425739
vt 3.15 0.3030189
vt 0.4200001 0
vt 0.1 -0.1
vt 0.3200001 -0.1
vt -0.1 -0.1
vt -0.1 -3.15
vt 0.1 -3.15
vt -0.4200001 -3.25
vt -0.4200001 0
vt -0.3200001 -3.15
vt -0.3200001 -0.1
vt 0.4200001 -3.25
vt 0.3200001 -3.15

vn 0 1 0
vn 0 -1 0
vn 0 0 1
vn -1.326702 3.259921E-07 0
vn 0 0 -1
vn 1.326702 0 0

usemtl LargePropGrid
f 3/3/1 4/4/1 2/2/1 1/1/1
f 7/1/2 8/6/2 6/5/2 5/3/2
f 1/9/3 2/8/3 9/7/3 10/10/3
f 2/9/4 4/12/4 11/11/4 9/10/4
f 11/14/5 4/13/5 3/9/5 12/10/5
f 12/16/6 3/15/6 1/9/6 10/10/6
f 13/17/3 8/6/3 7/1/3 14/18/3
f 16/20/3 15/19/3 18/22/3 17/21/3
f 13/18/4 19/24/4 6/23/4 8/1/4
f 16/21/4 21/26/4 20/25/4 15/22/4
f 22/18/5 5/1/5 6/2/5 19/27/5
f 24/29/5 23/28/5 20/31/5 21/30/5
f 5/33/6 22/32/6 14/18/6 7/1/6
f 23/35/6 24/34/6 17/29/6 18/28/6
f 18/37/1 15/38/1 13/36/1 14/1/1
f 17/39/2 24/40/2 12/3/2 10/1/2
f 23/41/1 18/37/1 14/1/1 22/3/1
f 21/44/2 16/45/2 9/43/2 11/42/2
f 16/45/2 17/39/2 10/1/2 9/43/2
f 15/38/1 20/47/1 19/46/1 13/36/1
f 24/40/2 21/44/2 11/42/2 12/3/2
f 20/47/1 23/41/1 22/3/1 19/46/1

