# ProBuilder 4.2.3
# https://unity3d.com/unity/features/worldbuilding/probuilder
# 22/02/2021 10:13:21

mtllib ./FireplaceFrame.mtl
o FireplaceFrame

g RSide
v 0 0 0.3840003
v -5.811453E-07 0 0.5840003
v 0 2.3 0.3840003
v -5.811453E-07 2.3 0.5840003
v -0.9000007 0 0.5839977
v -0.9000007 2.3 0.5839977
v -0.9000001 0 0.3839977
v -0.9000001 2.3 0.3839977

vt 0 0
vt -0.2 0
vt 0 2.3
vt -0.2 2.3
vt -0.9 0
vt -0.9 2.3
vt 0.2 0
vt 0.2 2.3
vt 0.9 0
vt 0.9 2.3
vt 0 -0.9
vt 0.2 -0.9
vt -0.2 -0.9

vn 1 0 2.905726E-06
vn -2.914004E-06 0 1
vn -1 0 -2.980232E-06
vn 2.914004E-06 0 -1
vn 0 1 0
vn 0 -1 0

usemtl StoneArchGrid
f 3/3/1 4/4/1 2/2/1 1/1/1
f 4/3/2 6/6/2 5/5/2 2/1/2
f 6/8/3 8/3/3 7/1/3 5/7/3
f 8/10/4 3/3/4 1/1/4 7/9/4
f 8/11/5 6/12/5 4/7/5 3/1/5
f 1/1/6 2/2/6 5/13/6 7/11/6

g LSide
v 9.536743E-06 1.311302E-05 -3.866
v 8.955598E-06 1.311302E-05 -3.666
v 9.536743E-06 2.300013 -3.866
v 8.955598E-06 2.300013 -3.666
v -0.8999912 1.311302E-05 -3.666003
v -0.8999912 2.300013 -3.666003
v -0.8999906 1.311302E-05 -3.866003
v -0.8999906 2.300013 -3.866003

vt 0 0
vt -0.2 0
vt 0 2.3
vt -0.2 2.3
vt -0.9 0
vt -0.9 2.3
vt 0.2 0
vt 0.2 2.3
vt 0.9 0
vt 0.9 2.3
vt 0 -0.9
vt 0.2 -0.9
vt -0.2 -0.9

vn 1 0 2.905726E-06
vn -2.914004E-06 0 1
vn -1 0 -2.980232E-06
vn 2.914004E-06 0 -1
vn 0 1 0
vn 0 -1 0

usemtl StoneArchGrid
f 11/16/7 12/17/7 10/15/7 9/14/7
f 12/16/8 14/19/8 13/18/8 10/14/8
f 14/21/9 16/16/9 15/14/9 13/20/9
f 16/23/10 11/16/10 9/14/10 15/22/10
f 16/24/11 14/25/11 12/20/11 11/14/11
f 9/14/12 10/15/12 13/26/12 15/24/12

g Top
v -2.384186E-07 2.3 0.5840011
v -2.384186E-07 2.5 0.5840016
v 1.289099E-05 2.300012 -3.865999
v 1.289099E-05 2.500012 -3.865998
v -0.9000002 2.5 0.583999
v -0.8999871 2.500012 -3.866001
v -0.9000002 2.3 0.5839984
v -0.8999871 2.300012 -3.866002

vt 0 0
vt -0.2 0
vt 0 4.45
vt -0.2 4.45
vt -0.9 0
vt -0.9 4.45
vt 0.2 0
vt 0.2 4.45
vt 0.9 0
vt 0.9 4.45
vt 0 -0.9
vt 0.2 -0.9
vt -0.2 -0.9

vn 1 -7.913668E-12 2.95043E-06
vn -7.650089E-12 1 2.625283E-06
vn -1 7.903788E-12 -2.946746E-06
vn 7.806213E-12 -1 -2.678861E-06
vn 3.178914E-06 2.384188E-06 -1
vn -2.914005E-06 -2.682208E-06 1

usemtl StoneArchGrid
f 19/29/13 20/30/13 18/28/13 17/27/13
f 20/29/14 22/32/14 21/31/14 18/27/14
f 22/34/15 24/29/15 23/27/15 21/33/15
f 24/36/16 19/29/16 17/27/16 23/35/16
f 24/37/17 22/38/17 20/33/17 19/27/17
f 17/27/18 18/28/18 21/39/18 23/37/18

