# ProBuilder 4.2.3
# https://unity3d.com/unity/features/worldbuilding/probuilder
# 22/02/2021 10:13:38

mtllib ./FirewoodStack.mtl
o FirewoodStack

g FirewoodStack
v 0 0 0
v -0.691408 0 0
v 0 2 0
v -0.691408 2 0
v -0.691408 0 -2
v -0.691408 2 -2
v 0 0 -2
v 0 2 -2
v -0.3887159 0.1341422 -1.865858
v -0.3887159 0.1341422 -0.1341422
v -0.3887159 1.865858 -1.865858
v -0.3887159 1.865858 -0.1341422
v 0.01382848 0.1341422 -1.865858
v 0.01382848 0.1341422 -0.1341422
v 0.01382848 1.865858 -1.865858
v 0.01382848 1.865858 -0.1341422

vt 0 0
vt -0.5 0
vt 0 2
vt -0.5 2
vt -2 0
vt -2 2
vt 0.5 0
vt 0.5 2
vt 1.865858 0.1341422
vt 0.1341422 0.1341422
vt 1.865858 1.865858
vt 0.1341422 1.865858
vt 0 -2
vt 0.5 -2
vt -0.5 -2
vt 2 0
vt 1.865858 0.1345144
vt 0.1341422 0.1345144
vt 1.994465 2
vt 1.994465 0
vt 1.859951 1.865858
vt 1.859951 0.1341422
vt 0.1345144 0.1341422
vt 0.1345144 1.865858
vt 0 1.994465
vt 2 1.994465
vt 0.1341422 1.859951
vt 1.865858 1.859951
vt -0.01000023 -1.865858
vt -0.01000023 -0.1341422
vt 0.2811046 -1.865858
vt 0.2811046 -0.1341422
vt 0.01000023 1.865858
vt 0.01000023 0.1341422
vt -0.2811046 1.865858
vt -0.2811046 0.1341422
vt -0.01000023 0.1341422
vt -0.01000023 1.865858
vt 0.2811046 0.1341422
vt 0.2811046 1.865858
vt 0.01000023 -0.1341422
vt 0.01000023 -1.865858
vt -0.2811046 -0.1341422
vt -0.2811046 -1.865858

vn 0 0 1
vn -1.382816 0 0
vn 0 0 -1
vn 1.382816 0 0
vn 0 1 0
vn 0 -1 0
vn 1.378989 -0.07434319 0
vn 1.378989 0 -0.07434319
vn 1.378989 0 0.07434319
vn 1.378989 0.07434319 0

usemtl MediumPropGrid
f 3/3/1 4/4/1 2/2/1 1/1/1
f 4/3/2 6/6/2 5/5/2 2/1/2
f 6/8/3 8/3/3 7/1/3 5/7/3
f 11/11/4 12/12/4 10/10/4 9/9/4
f 8/13/5 6/14/5 4/7/5 3/1/5
f 1/1/6 2/2/6 5/15/6 7/13/6
f 13/17/7 14/18/7 1/1/7 7/16/7
f 15/21/8 13/22/8 7/20/8 8/19/8
f 14/23/9 16/24/9 3/3/9 1/1/9
f 16/27/10 15/28/10 8/26/10 3/25/10
f 9/31/5 10/32/5 14/30/5 13/29/5
f 11/35/1 9/36/1 13/34/1 15/33/1
f 10/39/3 12/40/3 16/38/3 14/37/3
f 12/43/6 11/44/6 15/42/6 16/41/6

g WoodLog
v -0.3889002 0.135 -0.4129999
v -0.3889001 0.135 -0.1441618
v -0.3889002 0.3331778 -0.2785808
v 0.0121833 0.135 -0.1441625
v 0.01218324 0.3331778 -0.2785815
v 0.01218317 0.135 -0.4130006

vt 0 0
vt 0.26 0
vt 0.13 0.18
vt 0 -0.1522275
vt 0.76 -0.1522275
vt 0 0.06980852
vt 0.76 0.06980852
vt -0.26 0
vt -0.13 0.18
vt -0.76 0
vt -0.76 0.222036
vt 0 0.222036
vt 0 0.76
vt -0.26 0.76

vn -0.5277413 0 8.296448E-07
vn 3.690875E-07 0.6446179 0.8382363
vn 0.5277413 0 -9.481656E-07
vn -3.690875E-07 0.6446179 -0.8382363
vn 0 -1.100988 0

usemtl WoodGrid
f 17/45/11 18/46/11 19/47/11
f 20/52/13 22/45/13 21/53/13
f 19/50/12 18/48/12 20/49/12
f 20/49/12 21/51/12 19/50/12
f 21/55/14 22/54/14 17/45/14
f 17/45/14 19/56/14 21/55/14
f 20/58/15 18/52/15 17/45/15
f 17/45/15 22/57/15 20/58/15

g WoodLog (1)
v -0.3889002 0.135 -0.6966999
v -0.3889001 0.135 -0.4278618
v -0.3889002 0.3331778 -0.5622808
v 0.0121833 0.135 -0.4278625
v 0.01218324 0.3331778 -0.5622815
v 0.01218317 0.135 -0.6967005

vt 0 0
vt 0.26 0
vt 0.13 0.18
vt 0 -0.1522275
vt 0.76 -0.1522275
vt 0 0.06980852
vt 0.76 0.06980852
vt -0.26 0
vt -0.13 0.18
vt -0.76 0
vt -0.76 0.222036
vt 0 0.222036
vt 0 0.76
vt -0.26 0.76

vn -0.5277413 0 8.296448E-07
vn 3.690875E-07 0.6446179 0.8382363
vn 0.5277413 0 -9.481656E-07
vn -3.690875E-07 0.6446179 -0.8382363
vn 0 -1.100988 0

usemtl WoodGrid
f 23/59/16 24/60/16 25/61/16
f 26/66/18 28/59/18 27/67/18
f 25/64/17 24/62/17 26/63/17
f 26/63/17 27/65/17 25/64/17
f 27/69/19 28/68/19 23/59/19
f 23/59/19 25/70/19 27/69/19
f 26/72/20 24/66/20 23/59/20
f 23/59/20 28/71/20 26/72/20

g WoodLog (2)
v -0.3889002 0.135 -0.9891999
v -0.3889001 0.135 -0.7203618
v -0.3889002 0.3331778 -0.8547809
v 0.0121833 0.135 -0.7203625
v 0.01218324 0.3331778 -0.8547815
v 0.01218317 0.135 -0.9892005

vt 0 0
vt 0.26 0
vt 0.13 0.18
vt 0 -0.1522275
vt 0.76 -0.1522275
vt 0 0.06980852
vt 0.76 0.06980852
vt -0.26 0
vt -0.13 0.18
vt -0.76 0
vt -0.76 0.222036
vt 0 0.222036
vt 0 0.76
vt -0.26 0.76

vn -0.5277413 0 8.296448E-07
vn 3.690875E-07 0.6446179 0.8382363
vn 0.5277413 0 -9.481656E-07
vn -3.690875E-07 0.6446179 -0.8382363
vn 0 -1.100988 0

usemtl WoodGrid
f 29/73/21 30/74/21 31/75/21
f 32/80/23 34/73/23 33/81/23
f 31/78/22 30/76/22 32/77/22
f 32/77/22 33/79/22 31/78/22
f 33/83/24 34/82/24 29/73/24
f 29/73/24 31/84/24 33/83/24
f 32/86/25 30/80/25 29/73/25
f 29/73/25 34/85/25 32/86/25

g WoodLog (3)
v -0.3889002 0.135 -1.2851
v -0.3889001 0.135 -1.016262
v -0.3889002 0.3331778 -1.150681
v 0.0121833 0.135 -1.016262
v 0.01218324 0.3331778 -1.150681
v 0.01218317 0.135 -1.2851

vt 0 0
vt 0.26 0
vt 0.13 0.18
vt 0 -0.1522275
vt 0.76 -0.1522275
vt 0 0.06980852
vt 0.76 0.06980852
vt -0.26 0
vt -0.13 0.18
vt -0.76 0
vt -0.76 0.222036
vt 0 0.222036
vt 0 0.76
vt -0.26 0.76

vn -0.5277413 0 8.296448E-07
vn 3.690875E-07 0.6446179 0.8382363
vn 0.5277413 0 -9.481656E-07
vn -3.690875E-07 0.6446179 -0.8382363
vn 0 -1.100988 0

usemtl WoodGrid
f 35/87/26 36/88/26 37/89/26
f 38/94/28 40/87/28 39/95/28
f 37/92/27 36/90/27 38/91/27
f 38/91/27 39/93/27 37/92/27
f 39/97/29 40/96/29 35/87/29
f 35/87/29 37/98/29 39/97/29
f 38/100/30 36/94/30 35/87/30
f 35/87/30 40/99/30 38/100/30

g WoodLog (4)
v -0.3889002 0.135 -1.58
v -0.3889001 0.135 -1.311162
v -0.3889002 0.3331778 -1.445581
v 0.0121833 0.135 -1.311163
v 0.01218324 0.3331778 -1.445582
v 0.01218317 0.135 -1.580001

vt 0 0
vt 0.26 0
vt 0.13 0.18
vt 0 -0.1522275
vt 0.76 -0.1522275
vt 0 0.06980852
vt 0.76 0.06980852
vt -0.26 0
vt -0.13 0.18
vt -0.76 0
vt -0.76 0.222036
vt 0 0.222036
vt 0 0.76
vt -0.26 0.76

vn -0.5277413 0 8.296448E-07
vn 3.690875E-07 0.6446179 0.8382363
vn 0.5277413 0 -9.481656E-07
vn -3.690875E-07 0.6446179 -0.8382363
vn 0 -1.100988 0

usemtl WoodGrid
f 41/101/31 42/102/31 43/103/31
f 44/108/33 46/101/33 45/109/33
f 43/106/32 42/104/32 44/105/32
f 44/105/32 45/107/32 43/106/32
f 45/111/34 46/110/34 41/101/34
f 41/101/34 43/112/34 45/111/34
f 44/114/35 42/108/35 41/101/35
f 41/101/35 46/113/35 44/114/35

g WoodLog (5)
v -0.3889002 0.135 -1.871
v -0.3889001 0.135 -1.602162
v -0.3889002 0.3331778 -1.736581
v 0.0121833 0.135 -1.602163
v 0.01218324 0.3331778 -1.736582
v 0.01218317 0.135 -1.871001

vt 0 0
vt 0.26 0
vt 0.13 0.18
vt 0 -0.1522275
vt 0.76 -0.1522275
vt 0 0.06980852
vt 0.76 0.06980852
vt -0.26 0
vt -0.13 0.18
vt -0.76 0
vt -0.76 0.222036
vt 0 0.222036
vt 0 0.76
vt -0.26 0.76

vn -0.5277413 0 8.296448E-07
vn 3.690875E-07 0.6446179 0.8382363
vn 0.5277413 0 -9.481656E-07
vn -3.690875E-07 0.6446179 -0.8382363
vn 0 -1.100988 0

usemtl WoodGrid
f 47/115/36 48/116/36 49/117/36
f 50/122/38 52/115/38 51/123/38
f 49/120/37 48/118/37 50/119/37
f 50/119/37 51/121/37 49/120/37
f 51/125/39 52/124/39 47/115/39
f 47/115/39 49/126/39 51/125/39
f 50/128/40 48/122/40 47/115/40
f 47/115/40 52/127/40 50/128/40

g WoodLog (7)
v -0.3889002 0.34331 -1.4616
v -0.3889001 0.3433101 -1.730438
v -0.3889002 0.1451322 -1.596019
v 0.0121833 0.3433101 -1.730437
v 0.01218324 0.1451322 -1.596018
v 0.01218317 0.34331 -1.461599

vt 0 0
vt 0.26 0
vt 0.13 0.18
vt 0 -0.1522275
vt 0.76 -0.1522275
vt 0 0.06980852
vt 0.76 0.06980852
vt -0.26 0
vt -0.13 0.18
vt -0.76 0
vt -0.76 0.222036
vt 0 0.222036
vt 0 0.76
vt -0.26 0.76

vn -0.5277413 1.730774E-13 -8.296448E-07
vn 3.690875E-07 -0.6446177 -0.8382365
vn 0.5277413 -1.978027E-13 9.481656E-07
vn -3.690875E-07 -0.644618 0.8382362
vn 0 1.100988 2.296839E-07

usemtl WoodGrid
f 53/129/41 54/130/41 55/131/41
f 56/136/43 58/129/43 57/137/43
f 55/134/42 54/132/42 56/133/42
f 56/133/42 57/135/42 55/134/42
f 57/139/44 58/138/44 53/129/44
f 53/129/44 55/140/44 57/139/44
f 56/142/45 54/136/45 53/129/45
f 53/129/45 58/141/45 56/142/45

g WoodLog (8)
v -0.3889002 0.34331 -1.1645
v -0.3889001 0.3433101 -1.433338
v -0.3889002 0.1451322 -1.298919
v 0.0121833 0.3433101 -1.433337
v 0.01218324 0.1451322 -1.298918
v 0.01218317 0.34331 -1.164499

vt 0 0
vt 0.26 0
vt 0.13 0.18
vt 0 -0.1522275
vt 0.76 -0.1522275
vt 0 0.06980852
vt 0.76 0.06980852
vt -0.26 0
vt -0.13 0.18
vt -0.76 0
vt -0.76 0.222036
vt 0 0.222036
vt 0 0.76
vt -0.26 0.76

vn -0.5277413 1.730774E-13 -8.296448E-07
vn 3.690875E-07 -0.6446177 -0.8382365
vn 0.5277413 -1.978027E-13 9.481656E-07
vn -3.690875E-07 -0.644618 0.8382362
vn 0 1.100988 2.296839E-07

usemtl WoodGrid
f 59/143/46 60/144/46 61/145/46
f 62/150/48 64/143/48 63/151/48
f 61/148/47 60/146/47 62/147/47
f 62/147/47 63/149/47 61/148/47
f 63/153/49 64/152/49 59/143/49
f 59/143/49 61/154/49 63/153/49
f 62/156/50 60/150/50 59/143/50
f 59/143/50 64/155/50 62/156/50

g WoodLog (9)
v -0.3889002 0.34331 -0.8673999
v -0.3889001 0.3433101 -1.136238
v -0.3889002 0.1451322 -1.001819
v 0.0121833 0.3433101 -1.136237
v 0.01218324 0.1451322 -1.001818
v 0.01218317 0.34331 -0.8673993

vt 0 0
vt 0.26 0
vt 0.13 0.18
vt 0 -0.1522275
vt 0.76 -0.1522275
vt 0 0.06980852
vt 0.76 0.06980852
vt -0.26 0
vt -0.13 0.18
vt -0.76 0
vt -0.76 0.222036
vt 0 0.222036
vt 0 0.76
vt -0.26 0.76

vn -0.5277413 1.730774E-13 -8.296448E-07
vn 3.690875E-07 -0.6446177 -0.8382365
vn 0.5277413 -1.978027E-13 9.481656E-07
vn -3.690875E-07 -0.644618 0.8382362
vn 0 1.100988 2.296839E-07

usemtl WoodGrid
f 65/157/51 66/158/51 67/159/51
f 68/164/53 70/157/53 69/165/53
f 67/162/52 66/160/52 68/161/52
f 68/161/52 69/163/52 67/162/52
f 69/167/54 70/166/54 65/157/54
f 65/157/54 67/168/54 69/167/54
f 68/170/55 66/164/55 65/157/55
f 65/157/55 70/169/55 68/170/55

g WoodLog (10)
v -0.3889002 0.34331 -0.5782998
v -0.3889001 0.3433101 -0.8471378
v -0.3889002 0.1451322 -0.7127188
v 0.0121833 0.3433101 -0.8471372
v 0.01218324 0.1451322 -0.7127181
v 0.01218317 0.34331 -0.5782991

vt 0 0
vt 0.26 0
vt 0.13 0.18
vt 0 -0.1522275
vt 0.76 -0.1522275
vt 0 0.06980852
vt 0.76 0.06980852
vt -0.26 0
vt -0.13 0.18
vt -0.76 0
vt -0.76 0.222036
vt 0 0.222036
vt 0 0.76
vt -0.26 0.76

vn -0.5277413 1.730774E-13 -8.296448E-07
vn 3.690875E-07 -0.6446177 -0.8382365
vn 0.5277413 -1.978027E-13 9.481656E-07
vn -3.690875E-07 -0.644618 0.8382362
vn 0 1.100988 2.296839E-07

usemtl WoodGrid
f 71/171/56 72/172/56 73/173/56
f 74/178/58 76/171/58 75/179/58
f 73/176/57 72/174/57 74/175/57
f 74/175/57 75/177/57 73/176/57
f 75/181/59 76/180/59 71/171/59
f 71/171/59 73/182/59 75/181/59
f 74/184/60 72/178/60 71/171/60
f 71/171/60 76/183/60 74/184/60

g WoodLog (11)
v -0.3889002 0.34331 -0.2845998
v -0.3889001 0.3433101 -0.5534378
v -0.3889002 0.1451322 -0.4190188
v 0.0121833 0.3433101 -0.5534372
v 0.01218324 0.1451322 -0.4190182
v 0.01218317 0.34331 -0.2845991

vt 0 0
vt 0.26 0
vt 0.13 0.18
vt 0 -0.1522275
vt 0.76 -0.1522275
vt 0 0.06980852
vt 0.76 0.06980852
vt -0.26 0
vt -0.13 0.18
vt -0.76 0
vt -0.76 0.222036
vt 0 0.222036
vt 0 0.76
vt -0.26 0.76

vn -0.5277413 1.730774E-13 -8.296448E-07
vn 3.690875E-07 -0.6446177 -0.8382365
vn 0.5277413 -1.978027E-13 9.481656E-07
vn -3.690875E-07 -0.644618 0.8382362
vn 0 1.100988 2.296839E-07

usemtl WoodGrid
f 77/185/61 78/186/61 79/187/61
f 80/192/63 82/185/63 81/193/63
f 79/190/62 78/188/62 80/189/62
f 80/189/62 81/191/62 79/190/62
f 81/195/64 82/194/64 77/185/64
f 77/185/64 79/196/64 81/195/64
f 80/198/65 78/192/65 77/185/65
f 77/185/65 82/197/65 80/198/65

g WoodLog (12)
v -0.3889002 0.35583 -0.5565999
v -0.3889001 0.35583 -0.2877618
v -0.3889002 0.5540078 -0.4221808
v 0.0121833 0.35583 -0.2877625
v 0.01218324 0.5540078 -0.4221815
v 0.01218317 0.35583 -0.5566005

vt 0 0
vt 0.26 0
vt 0.13 0.18
vt 0 -0.1522275
vt 0.76 -0.1522275
vt 0 0.06980852
vt 0.76 0.06980852
vt -0.26 0
vt -0.13 0.18
vt -0.76 0
vt -0.76 0.222036
vt 0 0.222036
vt 0 0.76
vt -0.26 0.76

vn -0.5277413 0 8.296448E-07
vn 3.690875E-07 0.6446179 0.8382363
vn 0.5277413 0 -9.481656E-07
vn -3.690875E-07 0.6446179 -0.8382363
vn 0 -1.100988 0

usemtl WoodGrid
f 83/199/66 84/200/66 85/201/66
f 86/206/68 88/199/68 87/207/68
f 85/204/67 84/202/67 86/203/67
f 86/203/67 87/205/67 85/204/67
f 87/209/69 88/208/69 83/199/69
f 83/199/69 85/210/69 87/209/69
f 86/212/70 84/206/70 83/199/70
f 83/199/70 88/211/70 86/212/70

g WoodLog (13)
v -0.3889002 0.35583 -0.8457999
v -0.3889001 0.35583 -0.5769619
v -0.3889002 0.5540078 -0.7113809
v 0.0121833 0.35583 -0.5769625
v 0.01218324 0.5540078 -0.7113816
v 0.01218317 0.35583 -0.8458006

vt 0 0
vt 0.26 0
vt 0.13 0.18
vt 0 -0.1522275
vt 0.76 -0.1522275
vt 0 0.06980852
vt 0.76 0.06980852
vt -0.26 0
vt -0.13 0.18
vt -0.76 0
vt -0.76 0.222036
vt 0 0.222036
vt 0 0.76
vt -0.26 0.76

vn -0.5277413 0 8.296448E-07
vn 3.690875E-07 0.6446179 0.8382363
vn 0.5277413 0 -9.481656E-07
vn -3.690875E-07 0.6446179 -0.8382363
vn 0 -1.100988 0

usemtl WoodGrid
f 89/213/71 90/214/71 91/215/71
f 92/220/73 94/213/73 93/221/73
f 91/218/72 90/216/72 92/217/72
f 92/217/72 93/219/72 91/218/72
f 93/223/74 94/222/74 89/213/74
f 89/213/74 91/224/74 93/223/74
f 92/226/75 90/220/75 89/213/75
f 89/213/75 94/225/75 92/226/75

g WoodLog (14)
v -0.3889002 0.35583 -1.1383
v -0.3889001 0.35583 -0.8694619
v -0.3889002 0.5540078 -1.003881
v 0.0121833 0.35583 -0.8694625
v 0.01218324 0.5540078 -1.003882
v 0.01218317 0.35583 -1.138301

vt 0 0
vt 0.26 0
vt 0.13 0.18
vt 0 -0.1522275
vt 0.76 -0.1522275
vt 0 0.06980852
vt 0.76 0.06980852
vt -0.26 0
vt -0.13 0.18
vt -0.76 0
vt -0.76 0.222036
vt 0 0.222036
vt 0 0.76
vt -0.26 0.76

vn -0.5277413 0 8.296448E-07
vn 3.690875E-07 0.6446179 0.8382363
vn 0.5277413 0 -9.481656E-07
vn -3.690875E-07 0.6446179 -0.8382363
vn 0 -1.100988 0

usemtl WoodGrid
f 95/227/76 96/228/76 97/229/76
f 98/234/78 100/227/78 99/235/78
f 97/232/77 96/230/77 98/231/77
f 98/231/77 99/233/77 97/232/77
f 99/237/79 100/236/79 95/227/79
f 95/227/79 97/238/79 99/237/79
f 98/240/80 96/234/80 95/227/80
f 95/227/80 100/239/80 98/240/80

g WoodLog (15)
v -0.3889002 0.35583 -1.4343
v -0.3889001 0.35583 -1.165462
v -0.3889002 0.5540078 -1.299881
v 0.0121833 0.35583 -1.165463
v 0.01218324 0.5540078 -1.299882
v 0.01218317 0.35583 -1.434301

vt 0 0
vt 0.26 0
vt 0.13 0.18
vt 0 -0.1522275
vt 0.76 -0.1522275
vt 0 0.06980852
vt 0.76 0.06980852
vt -0.26 0
vt -0.13 0.18
vt -0.76 0
vt -0.76 0.222036
vt 0 0.222036
vt 0 0.76
vt -0.26 0.76

vn -0.5277413 0 8.296448E-07
vn 3.690875E-07 0.6446179 0.8382363
vn 0.5277413 0 -9.481656E-07
vn -3.690875E-07 0.6446179 -0.8382363
vn 0 -1.100988 0

usemtl WoodGrid
f 101/241/81 102/242/81 103/243/81
f 104/248/83 106/241/83 105/249/83
f 103/246/82 102/244/82 104/245/82
f 104/245/82 105/247/82 103/246/82
f 105/251/84 106/250/84 101/241/84
f 101/241/84 103/252/84 105/251/84
f 104/254/85 102/248/85 101/241/85
f 101/241/85 106/253/85 104/254/85

g WoodLog (16)
v -0.3889002 0.35583 -1.7291
v -0.3889001 0.35583 -1.460262
v -0.3889002 0.5540078 -1.594681
v 0.0121833 0.35583 -1.460262
v 0.01218324 0.5540078 -1.594681
v 0.01218317 0.35583 -1.7291

vt 0 0
vt 0.26 0
vt 0.13 0.18
vt 0 -0.1522275
vt 0.76 -0.1522275
vt 0 0.06980852
vt 0.76 0.06980852
vt -0.26 0
vt -0.13 0.18
vt -0.76 0
vt -0.76 0.222036
vt 0 0.222036
vt 0 0.76
vt -0.26 0.76

vn -0.5277413 0 8.296448E-07
vn 3.690875E-07 0.6446179 0.8382363
vn 0.5277413 0 -9.481656E-07
vn -3.690875E-07 0.6446179 -0.8382363
vn 0 -1.100988 0

usemtl WoodGrid
f 107/255/86 108/256/86 109/257/86
f 110/262/88 112/255/88 111/263/88
f 109/260/87 108/258/87 110/259/87
f 110/259/87 111/261/87 109/260/87
f 111/265/89 112/264/89 107/255/89
f 107/255/89 109/266/89 111/265/89
f 110/268/90 108/262/90 107/255/90
f 107/255/90 112/267/90 110/268/90

g WoodLog (20)
v -0.3889002 0.56414 -1.3136
v -0.3889001 0.5641401 -1.582438
v -0.3889002 0.3659623 -1.448019
v 0.0121833 0.5641401 -1.582437
v 0.01218324 0.3659623 -1.448018
v 0.01218317 0.56414 -1.313599

vt 0 0
vt 0.26 0
vt 0.13 0.18
vt 0 -0.1522275
vt 0.76 -0.1522275
vt 0 0.06980852
vt 0.76 0.06980852
vt -0.26 0
vt -0.13 0.18
vt -0.76 0
vt -0.76 0.222036
vt 0 0.222036
vt 0 0.76
vt -0.26 0.76

vn -0.5277413 1.730774E-13 -8.296448E-07
vn 3.690875E-07 -0.6446177 -0.8382365
vn 0.5277413 -1.978027E-13 9.481656E-07
vn -3.690875E-07 -0.644618 0.8382362
vn 0 1.100988 2.296839E-07

usemtl WoodGrid
f 113/269/91 114/270/91 115/271/91
f 116/276/93 118/269/93 117/277/93
f 115/274/92 114/272/92 116/273/92
f 116/273/92 117/275/92 115/274/92
f 117/279/94 118/278/94 113/269/94
f 113/269/94 115/280/94 117/279/94
f 116/282/95 114/276/95 113/269/95
f 113/269/95 118/281/95 116/282/95

g WoodLog (21)
v -0.3889002 0.56414 -1.0165
v -0.3889001 0.5641401 -1.285338
v -0.3889002 0.3659623 -1.150919
v 0.0121833 0.5641401 -1.285337
v 0.01218324 0.3659623 -1.150918
v 0.01218317 0.56414 -1.016499

vt 0 0
vt 0.26 0
vt 0.13 0.18
vt 0 -0.1522275
vt 0.76 -0.1522275
vt 0 0.06980852
vt 0.76 0.06980852
vt -0.26 0
vt -0.13 0.18
vt -0.76 0
vt -0.76 0.222036
vt 0 0.222036
vt 0 0.76
vt -0.26 0.76

vn -0.5277413 1.730774E-13 -8.296448E-07
vn 3.690875E-07 -0.6446177 -0.8382365
vn 0.5277413 -1.978027E-13 9.481656E-07
vn -3.690875E-07 -0.644618 0.8382362
vn 0 1.100988 2.296839E-07

usemtl WoodGrid
f 119/283/96 120/284/96 121/285/96
f 122/290/98 124/283/98 123/291/98
f 121/288/97 120/286/97 122/287/97
f 122/287/97 123/289/97 121/288/97
f 123/293/99 124/292/99 119/283/99
f 119/283/99 121/294/99 123/293/99
f 122/296/100 120/290/100 119/283/100
f 119/283/100 124/295/100 122/296/100

g WoodLog (22)
v -0.3889002 0.56414 -0.7273998
v -0.3889001 0.5641401 -0.9962379
v -0.3889002 0.3659623 -0.8618189
v 0.0121833 0.5641401 -0.9962372
v 0.01218324 0.3659623 -0.8618182
v 0.01218317 0.56414 -0.7273992

vt 0 0
vt 0.26 0
vt 0.13 0.18
vt 0 -0.1522275
vt 0.76 -0.1522275
vt 0 0.06980852
vt 0.76 0.06980852
vt -0.26 0
vt -0.13 0.18
vt -0.76 0
vt -0.76 0.222036
vt 0 0.222036
vt 0 0.76
vt -0.26 0.76

vn -0.5277413 1.730774E-13 -8.296448E-07
vn 3.690875E-07 -0.6446177 -0.8382365
vn 0.5277413 -1.978027E-13 9.481656E-07
vn -3.690875E-07 -0.644618 0.8382362
vn 0 1.100988 2.296839E-07

usemtl WoodGrid
f 125/297/101 126/298/101 127/299/101
f 128/304/103 130/297/103 129/305/103
f 127/302/102 126/300/102 128/301/102
f 128/301/102 129/303/102 127/302/102
f 129/307/104 130/306/104 125/297/104
f 125/297/104 127/308/104 129/307/104
f 128/310/105 126/304/105 125/297/105
f 125/297/105 130/309/105 128/310/105

g WoodLog (23)
v -0.3889002 0.56414 -0.4336998
v -0.3889001 0.5641401 -0.7025379
v -0.3889002 0.3659623 -0.5681189
v 0.0121833 0.5641401 -0.7025372
v 0.01218324 0.3659623 -0.5681182
v 0.01218317 0.56414 -0.4336992

vt 0 0
vt 0.26 0
vt 0.13 0.18
vt 0 -0.1522275
vt 0.76 -0.1522275
vt 0 0.06980852
vt 0.76 0.06980852
vt -0.26 0
vt -0.13 0.18
vt -0.76 0
vt -0.76 0.222036
vt 0 0.222036
vt 0 0.76
vt -0.26 0.76

vn -0.5277413 1.730774E-13 -8.296448E-07
vn 3.690875E-07 -0.6446177 -0.8382365
vn 0.5277413 -1.978027E-13 9.481656E-07
vn -3.690875E-07 -0.644618 0.8382362
vn 0 1.100988 2.296839E-07

usemtl WoodGrid
f 131/311/106 132/312/106 133/313/106
f 134/318/108 136/311/108 135/319/108
f 133/316/107 132/314/107 134/315/107
f 134/315/107 135/317/107 133/316/107
f 135/321/109 136/320/109 131/311/109
f 131/311/109 133/322/109 135/321/109
f 134/324/110 132/318/110 131/311/110
f 131/311/110 136/323/110 134/324/110

