# ProBuilder 4.2.3
# https://unity3d.com/unity/features/worldbuilding/probuilder
# 22/02/2021 10:14:04

mtllib ./GlobeOrnament.mtl
o GlobeOrnament

g Globe
v 0.1787486 0.8252212 0
v 0.2750658 0.706 0.1050658
v 0.1050658 0.8110658 0.17
v 0.2892213 0.536 0.1787486
v 0.17 0.6410658 0.2750658
v 0 0.7147486 0.2892213
v 0 0.876 0
v -0.1050658 0.8110658 0.17
v -0.1787486 0.8252212 0
v 0.1050658 0.8110658 -0.17
v -0.1050658 0.8110658 -0.17
v 0 0.7147486 -0.2892213
v 0.2750658 0.706 -0.1050658
v 0.17 0.6410658 -0.2750658
v 0.2892213 0.536 -0.1787486
v 0.34 0.536 0
v -0.2750658 0.706 0.1050658
v -0.17 0.6410658 0.2750658
v -0.2892213 0.536 0.1787486
v 0 0.536 0.34
v 0.17 0.4309342 0.2750658
v 0 0.3572514 0.2892213
v 0.2750658 0.366 0.1050658
v 0.2750658 0.366 -0.1050658
v 0.1787486 0.2467787 0
v 0.17 0.4309342 -0.2750658
v 0 0.536 -0.34
v 0 0.3572514 -0.2892213
v -0.17 0.6410658 -0.2750658
v -0.2750658 0.706 -0.1050658
v -0.2892213 0.536 -0.1787486
v -0.1787486 0.2467787 0
v -0.2750658 0.366 0.1050658
v -0.1050658 0.2609342 0.17
v -0.17 0.4309342 0.2750658
v 0 0.196 0
v 0.1050658 0.2609342 0.17
v -0.1050658 0.2609342 -0.17
v 0.1050658 0.2609342 -0.17
v -0.2750658 0.366 -0.1050658
v -0.17 0.4309342 -0.2750658
v -0.34 0.536 0

vt -0.1787486 0
vt -0.2750658 0.1050658
vt -0.1050658 0.17
vt -0.1050658 0.51
vt -0.1787486 0.34
vt -0.2750658 0.4450658
vt 0.2750658 0.51
vt 0.17 0.4450658
vt 0.1050658 0.6150658
vt 0 0.5187486
vt 0 0
vt 0 0.2892213
vt 0.1050658 0.17
vt 0.1787486 0
vt -0.1050658 -0.17
vt 0.1050658 -0.17
vt 0 -0.2892213
vt -0.2750658 -0.1050658
vt -0.1050658 0.6150658
vt -0.17 0.4450658
vt -0.2750658 0.51
vt 0.1050658 0.51
vt 0.2750658 0.4450658
vt 0.1787486 0.34
vt 0 0.6292213
vt 0 0.34
vt 0.2750658 0.1050658
vt 0.2892213 0.34
vt 0.17 0.2349342
vt 0 0.1612514
vt 0 0.05077875
vt -0.2892213 0.34
vt -0.17 0.2349342
vt 0.2750658 -0.1050658
vt 0.2750658 0.2349342
vt -0.2750658 0.17
vt -0.1050658 0.06493422
vt 0.1050658 0.06493422
vt 0.2750658 0.17
vt -0.2750658 0.2349342

vn 0.5831289 0.7487835 0.3150937
vn 0.7487835 0.3150938 0.5831288
vn 0.5773504 0.5773502 0.5773503
vn 0.3150937 0.5831288 0.7487835
vn 0.268035 0.9435222 0.1947385
vn 0 0.7778674 0.6284285
vn 0 0.9341724 0.356822
vn -0.268035 0.9435222 0.1947385
vn 0.268035 0.9435222 -0.1947385
vn -0.268035 0.9435222 -0.1947385
vn 0 0.9341724 -0.356822
vn 0 0.7778674 -0.6284285
vn 0.5831289 0.7487835 -0.3150937
vn 0.3150937 0.5831288 -0.7487835
vn 0.5773504 0.5773502 -0.5773502
vn 0.7487835 0.3150938 -0.5831288
vn 0.7778675 0.6284283 0
vn 0.9435222 0.1947387 -0.268035
vn 0.9341723 0.3568221 0
vn 0.9435222 0.1947387 0.268035
vn -0.5831289 0.7487835 0.3150937
vn -0.3150937 0.5831288 0.7487835
vn -0.5773504 0.5773502 0.5773502
vn -0.7487835 0.3150938 0.5831288
vn 0.1947387 0.268035 0.9435222
vn 0.6284284 0 0.7778675
vn 0.3568221 0 0.9341724
vn 0.1947387 -0.268035 0.9435222
vn 0.9435222 -0.1947387 0.268035
vn 0.9435222 -0.1947387 -0.268035
vn 0.9341723 -0.3568221 0
vn 0.7778675 -0.6284284 0
vn 0.6284284 0 -0.7778675
vn 0.1947387 0.268035 -0.9435222
vn 0.3568221 0 -0.9341724
vn 0.1947387 -0.268035 -0.9435222
vn -0.3150937 0.5831288 -0.7487835
vn -0.5831289 0.7487834 -0.3150937
vn -0.5773504 0.5773502 -0.5773502
vn -0.7487835 0.3150938 -0.5831288
vn -0.5831288 -0.7487835 0.3150938
vn -0.7487835 -0.3150938 0.5831288
vn -0.5773503 -0.5773503 0.5773503
vn -0.3150938 -0.5831288 0.7487835
vn -0.268035 -0.9435222 0.1947387
vn 0 -0.7778675 0.6284284
vn 0 -0.9341723 0.3568221
vn 0.268035 -0.9435222 0.1947387
vn -0.268035 -0.9435222 -0.1947387
vn 0.268035 -0.9435222 -0.1947387
vn 0 -0.9341723 -0.3568221
vn 0 -0.7778675 -0.6284284
vn -0.5831288 -0.7487835 -0.3150938
vn -0.3150938 -0.5831288 -0.7487835
vn -0.5773503 -0.5773503 -0.5773503
vn -0.7487835 -0.3150938 -0.5831288
vn -0.7778675 -0.6284284 0
vn -0.9435222 -0.1947387 -0.268035
vn -0.9341723 -0.3568221 0
vn -0.9435222 -0.1947387 0.268035
vn -0.1947387 -0.268035 0.9435222
vn -0.6284284 0 0.7778675
vn -0.3568221 0 0.9341724
vn -0.1947387 0.268035 0.9435222
vn 0.5831288 -0.7487835 0.3150938
vn 0.3150938 -0.5831288 0.7487835
vn 0.5773503 -0.5773503 0.5773503
vn 0.7487835 -0.3150938 0.5831288
vn 0.3150938 -0.5831288 -0.7487835
vn 0.5831288 -0.7487835 -0.3150938
vn 0.5773503 -0.5773503 -0.5773503
vn 0.7487835 -0.3150938 -0.5831288
vn -0.6284284 0 -0.7778675
vn -0.1947387 -0.268035 -0.9435222
vn -0.3568221 0 -0.9341724
vn -0.1947387 0.268035 -0.9435222
vn -0.9435222 0.1947387 0.268035
vn -0.9435222 0.1947387 -0.268035
vn -0.9341723 0.3568221 0
vn -0.7778675 0.6284283 0

usemtl SmallPropGrid
f 3/3/1 2/2/1 1/1/1
f 5/6/2 4/5/2 2/4/2
f 3/9/3 5/8/3 2/7/3
f 6/10/4 5/8/4 3/9/4
f 7/11/5 3/3/5 1/1/5
f 8/13/6 6/12/6 3/3/6
f 7/11/7 8/13/7 3/3/7
f 9/14/8 8/13/8 7/11/8
f 10/15/9 7/11/9 1/1/9
f 11/16/10 9/14/10 7/11/10
f 10/15/11 11/16/11 7/11/11
f 12/17/12 11/16/12 10/15/12
f 13/18/13 10/15/13 1/1/13
f 14/20/14 12/10/14 10/19/14
f 13/21/15 14/20/15 10/19/15
f 15/24/16 14/23/16 13/22/16
f 2/4/17 13/22/17 1/25/17
f 16/26/18 15/24/18 13/22/18
f 2/4/19 16/26/19 13/22/19
f 4/5/20 16/26/20 2/4/20
f 17/27/21 8/13/21 9/14/21
f 18/20/22 6/10/22 8/19/22
f 17/21/23 18/20/23 8/19/23
f 19/24/24 18/23/24 17/22/24
f 20/26/25 5/8/25 6/10/25
f 21/29/26 4/28/26 5/8/26
f 20/26/27 21/29/27 5/8/27
f 22/30/28 21/29/28 20/26/28
f 23/3/29 16/26/29 4/5/29
f 24/13/30 15/24/30 16/26/30
f 23/3/31 24/13/31 16/26/31
f 25/31/32 24/13/32 23/3/32
f 26/33/33 14/20/33 15/32/33
f 27/26/34 12/10/34 14/20/34
f 26/33/35 27/26/35 14/20/35
f 28/30/36 27/26/36 26/33/36
f 29/8/37 11/9/37 12/10/37
f 30/34/38 9/14/38 11/16/38
f 29/8/39 30/7/39 11/9/39
f 31/5/40 30/4/40 29/6/40
f 34/3/41 33/2/41 32/1/41
f 35/35/42 19/24/42 33/13/42
f 34/37/43 35/33/43 33/36/43
f 22/30/44 35/33/44 34/37/44
f 36/11/45 34/3/45 32/1/45
f 37/13/46 22/12/46 34/3/46
f 36/11/47 37/13/47 34/3/47
f 25/14/48 37/13/48 36/11/48
f 38/15/49 36/11/49 32/1/49
f 39/16/50 25/14/50 36/11/50
f 38/15/51 39/16/51 36/11/51
f 28/17/52 39/16/52 38/15/52
f 40/18/53 38/15/53 32/1/53
f 41/29/54 28/30/54 38/38/54
f 40/39/55 41/29/55 38/38/55
f 31/5/56 41/40/56 40/3/56
f 33/13/57 40/3/57 32/31/57
f 42/26/58 31/5/58 40/3/58
f 33/13/59 42/26/59 40/3/59
f 19/24/60 42/26/60 33/13/60
f 20/26/61 35/33/61 22/30/61
f 18/20/62 19/32/62 35/33/62
f 20/26/63 18/20/63 35/33/63
f 6/10/64 18/20/64 20/26/64
f 23/27/65 37/13/65 25/14/65
f 21/29/66 22/30/66 37/38/66
f 23/39/67 21/29/67 37/38/67
f 4/5/68 21/40/68 23/3/68
f 26/33/69 39/37/69 28/30/69
f 24/34/70 25/14/70 39/16/70
f 26/33/71 24/36/71 39/37/71
f 15/24/72 24/13/72 26/35/72
f 29/8/73 41/29/73 31/28/73
f 27/26/74 28/30/74 41/29/74
f 29/8/75 27/26/75 41/29/75
f 12/10/76 27/26/76 29/8/76
f 17/22/77 42/26/77 19/24/77
f 30/4/78 31/5/78 42/26/78
f 17/22/79 30/4/79 42/26/79
f 9/25/80 30/4/80 17/22/80

g GlobeStand
v -0.2257739 0 0
v -0.1948394 0.1107124 7.177459E-07
v -0.1596463 0 0.1596463
v -0.1377716 0.1107124 0.1377743
v 0 0 0.2257739
v 1.910919E-06 0.1107124 0.194842
v 0.1596463 0 0.1596463
v 0.1377726 0.1107124 0.1377743
v 0.2257739 0 -1.973778E-08
v 0.1948432 0.1107124 7.177459E-07
v 0.1596463 0 -0.1596463
v 0.1377726 0.1107124 -0.1377728
v 0 0 -0.2257739
v 1.910919E-06 0.1107124 -0.1948406
v -0.1596463 0 -0.1596463
v -0.1377716 0.1107124 -0.1377757
v 0 0 0
v -0.1825886 0.2464544 7.177459E-07
v 1.910919E-06 0.2464544 7.177459E-07
v -0.1291086 0.2464544 0.1291141
v 1.910919E-06 0.2464544 0.1825941
v 0.1291125 0.2464544 0.1291141
v 0.1825953 0.2464544 7.177459E-07
v 0.1291125 0.2464544 -0.1291098
v 1.910919E-06 0.2464544 -0.1825898
v -0.1291086 0.2464544 -0.1291126

vt 0 0
vt 0.0262183 0.1943855
vt 0.3826834 2.558467E-10
vt 0.3564713 0.1943855
vt 0.2705981 -0.08810363
vt 0.2968178 0.1062808
vt 0.6532815 -0.08810363
vt 0.6270708 0.1062808
vt 0.2705981 -0.2126909
vt 0.2968166 -0.01830759
vt 0.6532816 -0.2126909
vt 0.6270638 -0.01830677
vt -1.034491E-07 -0.3008095
vt 0.02621288 -0.1064247
vt 0.3826833 -0.3008095
vt 0.3564683 -0.1064266
vt -0.3826834 -0.3007895
vt -0.3564713 -0.1064062
vt -0.0262159 -0.1064043
vt -0.6532815 -0.2127072
vt -0.6270649 -0.01832206
vt -0.270598 -0.2127072
vt -0.2968177 -0.01832287
vt -0.6532815 -0.08810714
vt -0.6270696 0.1062782
vt -0.2705981 -0.08810714
vt -0.296819 0.1062764
vt -0.3826835 4.409467E-09
vt -0.3564742 0.1943851
vt -0.02621536 0.1943858
vt 0.5 0
vt 0.1464466 0.3535534
vt -0.0956385 1.589523E-06
vt -0.5000042 1.589523E-06
vt -0.2140755 0.2859367
vt 0.5 0.5
vt -0.5000042 0.4043736
vt 0.8535534 0.3535534
vt -0.785933 0.2859367
vt 1 -4.371139E-08
vt -0.9043763 1.589523E-06
vt 0.8535534 -0.3535534
vt -0.785933 -0.2859272
vt 0.5 -0.5
vt -0.5000042 -0.4043642
vt 0.1464467 -0.3535534
vt -0.2140755 -0.2859335
vt -0.02621491 0.1896633
vt -0.3564737 0.1896633
vt -0.03659718 0.4163974
vt -0.3460906 0.4163975
vt 0.3564713 0.1896629
vt 0.02621832 0.1896629
vt 0.3460942 0.4163969
vt 0.03660077 0.416397
vt -0.2968154 0.1597463
vt -0.627066 0.1597463
vt -0.3071988 0.3864805
vt -0.616684 0.3864804
vt -0.2968133 0.1174425
vt -0.6270605 0.1174425
vt -0.3071959 0.3441766
vt -0.6166835 0.3441765
vt -0.02623135 0.08754534
vt -0.3564867 0.08754535
vt -0.03661627 0.3142789
vt -0.3461063 0.3142788
vt 0.3564838 0.0875514
vt 0.02622843 0.0875514
vt 0.3461033 0.3142848
vt 0.03660751 0.3142847
vt 0.6270593 0.1174605
vt 0.2968121 0.1174605
vt 0.6166799 0.3441938
vt 0.3071923 0.3441939
vt 0.6270709 0.159754
vt 0.2968179 0.159754
vt 0.6166909 0.3864875
vt 0.3072033 0.3864876

vn -0.4231108 0.2103904 7.434148E-07
vn -0.299185 0.210386 0.2991857
vn 4.33058E-07 0.2103765 0.4231147
vn 0.2991868 0.2103801 0.2991863
vn 0.4231155 0.2103737 1.660059E-06
vn 0.2991848 0.2103836 -0.2991869
vn 1.133168E-06 0.2103868 -0.4231118
vn -0.2991842 0.2103843 -0.2991872
vn 0 -0.6023761 0
vn 0 0.6023761 0
vn -0.41462 0.06659289 -0.1717378
vn -0.414619 0.06658949 0.171741
vn -0.1717335 0.06659535 -0.4146215
vn 0.1717439 0.06659243 -0.4146175
vn 0.4146166 0.066581 -0.1717485
vn 0.414617 0.06657676 0.1717487
vn 0.1717445 0.06657436 0.4146189
vn -0.1717414 0.06657731 0.4146199

usemtl SmallPropGrid
f 43/41/89 59/71/89 45/72/89
f 45/72/89 59/71/89 47/76/89
f 47/76/89 59/71/89 49/78/89
f 49/78/89 59/71/89 51/80/89
f 51/80/89 59/71/89 53/82/89
f 53/82/89 59/71/89 55/84/89
f 55/84/89 59/71/89 57/86/89
f 57/86/89 59/71/89 43/41/89
f 62/75/90 61/74/90 60/73/90
f 63/77/90 61/74/90 62/75/90
f 64/79/90 61/74/90 63/77/90
f 65/81/90 61/74/90 64/79/90
f 66/83/90 61/74/90 65/81/90
f 67/85/90 61/74/90 66/83/90
f 68/87/90 61/74/90 67/85/90
f 60/73/90 61/74/90 68/87/90
f 46/44/82 44/42/81 43/41/81
f 43/41/81 45/43/82 46/44/82
f 48/48/83 46/46/82 45/45/82
f 45/45/82 47/47/83 48/48/83
f 50/52/84 48/50/83 47/49/83
f 47/49/83 49/51/84 50/52/84
f 52/56/85 50/54/84 49/53/84
f 49/53/84 51/55/85 52/56/85
f 54/59/86 52/58/85 51/57/85
f 51/57/85 53/53/86 54/59/86
f 56/63/87 54/61/86 53/60/86
f 53/60/86 55/62/87 56/63/87
f 58/67/88 56/65/87 55/64/87
f 55/64/87 57/66/88 58/67/88
f 44/70/81 58/69/88 57/68/88
f 57/68/88 43/41/81 44/70/81
f 68/91/91 58/89/91 44/88/91
f 44/88/91 60/90/91 68/91/91
f 60/95/92 44/93/92 46/92/92
f 46/92/92 62/94/92 60/95/92
f 67/99/93 56/97/93 58/96/93
f 58/96/93 68/98/93 67/99/93
f 66/103/94 54/101/94 56/100/94
f 56/100/94 67/102/94 66/103/94
f 65/107/95 52/105/95 54/104/95
f 54/104/95 66/106/95 65/107/95
f 64/111/96 50/109/96 52/108/96
f 52/108/96 65/110/96 64/111/96
f 63/115/97 48/113/97 50/112/97
f 50/112/97 64/114/97 63/115/97
f 62/119/98 46/117/98 48/116/98
f 48/116/98 63/118/98 62/119/98

