# ProBuilder 4.2.3
# https://unity3d.com/unity/features/worldbuilding/probuilder
# 22/02/2021 10:14:41

mtllib ./Jug.mtl
o Jug

g Jug
v 0.03171128 0 0
v 0.22 0 0
v 0.08685976 0 0.1331402
v 0.1107828 0.4145174 0
v 0.22 0.4145174 0
v 0.1427718 0.4145174 0.0772282
v 0.22 0 0.1882887
v 0.22 0.4145174 0.1092172
v 0.3531402 0 0.1331402
v 0.2972282 0.4145174 0.0772282
v 0.4082887 0 -1.646072E-08
v 0.3292171 0.4145174 -9.548068E-09
v 0.3531402 0 -0.1331402
v 0.2972282 0.4145174 -0.07722819
v 0.22 0 -0.1882887
v 0.22 0.4145174 -0.1092172
v 0.08685979 0 -0.1331403
v 0.1427718 0.4145174 -0.07722821
v 0.02546827 0.6083785 0
v 0.03203201 0.65 0
v 0.08708656 0.65 0.1329134
v 0.08244531 0.6083785 0.1375547
v 0.22 0.65 0.187968
v 0.22 0.6083785 0.1945317
v 0.3529134 0.65 0.1329134
v 0.3575547 0.6083785 0.1375547
v 0.407968 0.65 -1.643268E-08
v 0.4145317 0.6083785 -1.976419E-08
v 0.3529134 0.65 -0.1329134
v 0.3575547 0.6083785 -0.1375547
v 0.22 0.65 -0.187968
v 0.22 0.6083785 -0.1945317
v 0.08708659 0.65 -0.1329135
v 0.08244532 0.6083785 -0.1375547
v 0.1291899 0.4014028 0.09081006
v 0.09157516 0.4014028 0
v 0.09004194 0.5574222 -3.100931E-09
v 0.1281058 0.5574222 0.09189422
v 0.22 0.4014028 0.1284248
v 0.22 0.5574222 0.1299581
v 0.3108101 0.4014028 0.09081006
v 0.3118942 0.5574222 0.09189422
v 0.3499581 0.5574222 -1.630452E-08
v 0.3484248 0.4014028 -1.304781E-08
v 0.3118942 0.5574222 -0.09189422
v 0.3108101 0.4014028 -0.09081006
v 0.22 0.5574222 -0.1299581
v 0.22 0.4014028 -0.1284248
v 0.1281058 0.5574222 -0.09189425
v 0.1291899 0.4014028 -0.0908101
v 0.06443651 0.3132027 0.1555635
v 0 0.3132027 0
v 0.22 0.3132027 0.22
v 0.3755635 0.3132027 0.1555635
v 0.44 0.3132027 -2.079238E-08
v 0.3755635 0.3132027 -0.1555635
v 0.22 0.3132027 -0.22
v 0.06443654 0.3132027 -0.1555635
v 0.04260546 0.1462757 0.1773945
v -0.03087375 0.1462757 0
v 0.22 0.1462757 0.2508737
v 0.3973945 0.1462757 0.1773945
v 0.4708737 0.1462757 -2.282118E-08
v 0.3973945 0.1462757 -0.1773945
v 0.22 0.1462757 -0.2508737
v 0.0426055 0.1462757 -0.1773946
v 0.08997957 0.64 0
v 0.1280617 0.64 -0.09193835
v 0.1280617 0.64 0.09193832
v 0.22 0.64 -0.1300204
v 0.3119383 0.64 -0.09193832
v 0.3500204 0.64 -1.136675E-08
v 0.3119383 0.64 0.09193832
v 0.22 0.64 0.1300204
v 0.1107828 0.6010653 0
v 0.1427718 0.6010653 -0.07722821
v 0.1427718 0.6010653 0.0772282
v 0.22 0.6010653 -0.1092172
v 0.2972282 0.6010653 -0.07722819
v 0.3292171 0.6010653 -9.548068E-09
v 0.2972282 0.6010653 0.0772282
v 0.22 0.6010653 0.1092172

vt 0.03171128 0
vt 0.22 0
vt 0.08685976 0.1331402
vt -0.1107828 0
vt -0.22 0
vt -0.1427718 0.0772282
vt 0.22 0.1882887
vt -0.22 0.1092172
vt 0.3531402 0.1331402
vt -0.2972282 0.0772282
vt 0.4082887 -1.646072E-08
vt -0.3292171 -9.548068E-09
vt 0.3531402 -0.1331402
vt -0.2972282 -0.07722819
vt 0.22 -0.1882887
vt -0.22 -0.1092172
vt 0.08685979 -0.1331403
vt -0.1427718 -0.07722821
vt 0.009746288 0.6075982
vt 0.01225812 0.6490546
vt 0.1561226 0.6490546
vt 0.1586344 0.6075982
vt 0.1288094 0.6105809
vt 0.1313213 0.6520373
vt 0.2751857 0.6520373
vt 0.2776976 0.6105809
vt 0.1288094 0.614799
vt 0.1313212 0.6562555
vt 0.2751857 0.6562555
vt 0.2776975 0.614799
vt 0.009746274 0.6177818
vt 0.01225808 0.6592382
vt 0.1561226 0.6592382
vt 0.1586344 0.6177818
vt -0.1586344 0.6177818
vt -0.1561226 0.6592382
vt -0.01225815 0.6592382
vt -0.009746324 0.6177818
vt -0.2776976 0.6147991
vt -0.2751857 0.6562555
vt -0.1313213 0.6562555
vt -0.1288094 0.6147991
vt -0.2776976 0.6105809
vt -0.2751857 0.6520373
vt -0.1313213 0.6520373
vt -0.1288095 0.6105809
vt -0.1586345 0.6075982
vt -0.1561226 0.6490546
vt -0.01225812 0.6490546
vt -0.009746288 0.6075982
vt 0.1333364 0.3991573
vt 0.0350443 0.3991573
vt 0.03445756 0.5551633
vt 0.1339231 0.5551633
vt 0.2523996 0.4021401
vt 0.1541074 0.4021401
vt 0.1535207 0.5581459
vt 0.2529863 0.5581459
vt 0.2523995 0.4063582
vt 0.1541074 0.4063582
vt 0.1535207 0.5623642
vt 0.2529863 0.5623642
vt 0.1339231 0.5653468
vt 0.03445754 0.5653468
vt 0.1333364 0.4093409
vt 0.03504428 0.4093409
vt -0.03445758 0.5653469
vt -0.1339231 0.5653469
vt -0.03504432 0.4093409
vt -0.1333364 0.4093409
vt -0.2523996 0.4063582
vt -0.2529863 0.5623642
vt -0.1535207 0.5623642
vt -0.1541074 0.4063582
vt -0.1535207 0.5581459
vt -0.2529863 0.5581459
vt -0.1541075 0.4021401
vt -0.2523996 0.4021401
vt -0.0350443 0.3991573
vt -0.1333364 0.3991573
vt -0.1339232 0.5551633
vt -0.03445756 0.5551633
vt 0.1683807 0.3131044
vt 0 0.3131044
vt 0.1190631 0.3160871
vt 0.2874439 0.3160871
vt 0.2874438 0.3203053
vt 0.1190631 0.3203053
vt 0.1683807 0.323288
vt -2.000741E-08 0.323288
vt -0.1683807 0.3232881
vt -0.2874438 0.3203053
vt -0.1190631 0.3203053
vt -0.1190632 0.3160871
vt -0.2874438 0.3160871
vt -0.1683808 0.3131044
vt 0.1801956 0.1469444
vt -0.01181487 0.1469444
vt 0.1562453 -0.0007339421
vt 0.01213538 -0.0007339425
vt 0.2753085 0.002248772
vt 0.1311985 0.002248772
vt 0.1072483 0.1499271
vt 0.2992587 0.1499271
vt 0.2992587 0.1541453
vt 0.1072482 0.1541453
vt 0.2753084 0.006466937
vt 0.1311985 0.006466937
vt 0.1801956 0.157128
vt -0.01181489 0.157128
vt 0.1562453 0.009449652
vt 0.01213534 0.009449652
vt -0.1562453 0.009449675
vt -0.1801956 0.157128
vt 0.01181484 0.157128
vt -0.0121354 0.009449675
vt -0.2753085 0.006466959
vt -0.2992587 0.1541453
vt -0.1072483 0.1541453
vt -0.1311985 0.006466959
vt -0.2753085 0.002248765
vt -0.2992587 0.1499271
vt -0.1072483 0.1499271
vt -0.1311985 0.002248765
vt -0.01213538 -0.0007339432
vt -0.1562454 -0.0007339432
vt -0.1801956 0.1469444
vt 0.01181487 0.1469444
vt 0.078971 -0.04539004
vt 0.02471832 -0.1786329
vt 0.02016692 -0.04539004
vt -0.01736052 -0.1375562
vt 0.02471834 0.1786328
vt 0.07897098 0.04539002
vt -0.01736051 0.1375562
vt 0.02016691 0.04539002
vt -0.04052077 -0.242023
vt -0.1730959 -0.2978872
vt -0.08210459 -0.2004453
vt -0.1738089 -0.2390874
vt -0.2657843 -0.2925655
vt -0.3983595 -0.2367013
vt -0.2650713 -0.2337657
vt -0.3567756 -0.1951236
vt -0.4583095 -0.1733752
vt -0.5125622 -0.04013246
vt -0.4162306 -0.1322986
vt -0.453758 -0.04013246
vt -0.5125621 0.04013241
vt -0.4583095 0.1733752
vt -0.453758 0.04013242
vt -0.4162306 0.1322986
vt -0.3983595 0.2367013
vt -0.2657843 0.2925655
vt -0.3567756 0.1951236
vt -0.2650713 0.2337657
vt -0.1730959 0.2978872
vt -0.04052073 0.242023
vt -0.1738089 0.2390875
vt -0.08210456 0.2004453
vt 0.0344337 0.5370889
vt 0.1339471 0.5370889
vt 0.04239477 0.4936687
vt 0.125986 0.4936687
vt -0.133947 0.5370889
vt -0.0344337 0.5370889
vt -0.125986 0.4936687
vt -0.04239476 0.4936687
vt 0.1534969 0.5897916
vt 0.2530102 0.5897916
vt 0.1614579 0.5463715
vt 0.2450491 0.5463715
vt 0.1534968 0.6643244
vt 0.2530101 0.6643244
vt 0.1614579 0.6209043
vt 0.2450491 0.6209043
vt 0.0344337 0.7170271
vt 0.133947 0.7170271
vt 0.04239476 0.673607
vt 0.1259859 0.673607
vt -0.133947 0.7170271
vt -0.03443365 0.7170271
vt -0.1259859 0.673607
vt -0.04239472 0.673607
vt -0.2530101 0.6643244
vt -0.1534968 0.6643244
vt -0.2450491 0.6209043
vt -0.1614579 0.6209043
vt -0.2530102 0.5897915
vt -0.1534968 0.5897915
vt -0.2450491 0.5463713
vt -0.1614579 0.5463713
vt 0.04239476 0.6010653
vt 0.125986 0.6010653
vt 0.04239476 0.4145174
vt 0.125986 0.4145174
vt -0.125986 0.6010653
vt -0.04239477 0.6010653
vt -0.125986 0.4145174
vt -0.04239477 0.4145174
vt 0.1614579 0.6010653
vt 0.2450491 0.6010653
vt 0.1614579 0.4145174
vt 0.2450491 0.4145174
vt -0.2450491 0.6010653
vt -0.1614579 0.6010653
vt -0.2450491 0.4145174
vt -0.1614579 0.4145174

vn 0 -1 0
vn 0 1 0
vn -0.9142271 0.1441744 0.3786854
vn -0.3786854 0.1441737 0.9142272
vn 0.3786855 0.1441745 0.9142271
vn 0.9142272 0.1441741 0.3786852
vn 0.9142271 0.1441742 -0.3786853
vn 0.3786854 0.1441743 -0.9142271
vn -0.3786852 0.1441743 -0.9142272
vn -0.9142271 0.1441743 -0.3786854
vn -0.9238415 -0.009078712 0.3826677
vn -0.6000348 -0.7603847 0.2485426
vn -0.3826677 -0.009078744 0.9238415
vn -0.2485426 -0.7603846 0.6000348
vn 0.3826678 -0.009078708 0.9238414
vn 0.2485426 -0.7603847 0.6000347
vn 0.6000349 -0.7603846 0.2485425
vn 0.9238415 -0.009078752 0.3826675
vn 0.6000349 -0.7603846 -0.2485426
vn 0.9238415 -0.009078765 -0.3826676
vn 0.3826677 -0.00907877 -0.9238414
vn 0.2485426 -0.7603846 -0.600035
vn -0.2485425 -0.7603847 -0.6000348
vn -0.3826675 -0.009078702 -0.9238415
vn -0.9238414 -0.009078707 -0.3826677
vn -0.6000348 -0.7603847 -0.2485426
vn -0.6667304 0.6922438 0.2761688
vn -0.2761688 0.6922438 0.6667304
vn 0.2761689 0.6922438 0.6667304
vn 0.6667304 0.6922438 0.2761686
vn 0.6667303 0.6922438 -0.2761688
vn 0.2761688 0.6922438 -0.6667303
vn -0.2761687 0.6922437 -0.6667304
vn -0.6667304 0.6922438 -0.2761689
vn -0.9106801 0.1684337 0.3772161
vn -0.8591896 -0.3676099 0.3558879
vn -0.3558879 -0.3676098 0.8591896
vn -0.377216 0.1684336 0.9106801
vn 0.3772162 0.1684336 0.9106801
vn 0.3558881 -0.3676098 0.8591896
vn 0.9106801 0.1684336 0.377216
vn 0.8591896 -0.3676098 0.3558879
vn 0.8591896 -0.3676099 -0.355888
vn 0.9106801 0.1684336 -0.377216
vn 0.355888 -0.3676099 -0.8591896
vn 0.3772161 0.1684336 -0.9106801
vn -0.3558879 -0.3676099 -0.8591896
vn -0.3772159 0.1684336 -0.9106801
vn -0.8591896 -0.3676099 -0.3558881
vn -0.91068 0.1684336 -0.3772161
vn 0.1696357 0.9829987 0.07026544
vn 0.1696357 0.9829987 -0.07026541
vn 0.0702654 0.9829987 0.1696357
vn -0.07026544 0.9829987 0.1696358
vn -0.1696357 0.9829987 0.07026543
vn -0.1696357 0.9829987 -0.0702654
vn -0.07026543 0.9829987 -0.1696357
vn 0.07026542 0.9829987 -0.1696358
vn 0.82844 0.4426449 0.3431512
vn 0.82844 0.442645 -0.3431511
vn 0.3431509 0.442645 0.82844
vn -0.3431511 0.442645 0.8284398
vn -0.82844 0.442645 0.3431511
vn -0.8284399 0.4426452 -0.3431509
vn -0.3431511 0.442645 -0.8284399
vn 0.3431511 0.4426451 -0.82844
vn 0.9238795 0 0.3826835
vn 0.9238795 0 -0.3826836
vn 0.3826833 0 0.9238796
vn -0.3826835 0 0.9238795
vn -0.9238796 0 0.3826833
vn -0.9238796 0 -0.3826832
vn -0.3826835 0 -0.9238795
vn 0.3826834 0 -0.9238796

usemtl SmallPropGrid
f 1/1/1 2/2/1 3/3/1
f 3/3/1 2/2/1 7/7/1
f 7/7/1 2/2/1 9/9/1
f 9/9/1 2/2/1 11/11/1
f 11/11/1 2/2/1 13/13/1
f 13/13/1 2/2/1 15/15/1
f 15/15/1 2/2/1 17/17/1
f 17/17/1 2/2/1 1/1/1
f 6/6/2 5/5/2 4/4/2
f 8/8/2 5/5/2 6/6/2
f 10/10/2 5/5/2 8/8/2
f 12/12/2 5/5/2 10/10/2
f 14/14/2 5/5/2 12/12/2
f 16/16/2 5/5/2 14/14/2
f 18/18/2 5/5/2 16/16/2
f 4/4/2 5/5/2 18/18/2
f 20/20/3 19/19/3 22/22/3
f 22/22/3 21/21/3 20/20/3
f 21/24/4 22/23/4 24/26/4
f 24/26/4 23/25/4 21/24/4
f 23/28/5 24/27/5 26/30/5
f 26/30/5 25/29/5 23/28/5
f 27/33/6 25/32/6 26/31/6
f 26/31/6 28/34/6 27/33/6
f 29/37/7 27/36/7 28/35/7
f 28/35/7 30/38/7 29/37/7
f 31/41/8 29/40/8 30/39/8
f 30/39/8 32/42/8 31/41/8
f 33/45/9 31/44/9 32/43/9
f 32/43/9 34/46/9 33/45/9
f 33/48/10 34/47/10 19/50/10
f 19/50/10 20/49/10 33/48/10
f 37/53/11 36/52/11 35/51/11
f 35/51/11 38/54/11 37/53/11
f 19/19/12 37/53/12 38/54/12
f 38/54/12 22/22/12 19/19/12
f 38/57/13 35/56/13 39/55/13
f 39/55/13 40/58/13 38/57/13
f 22/23/14 38/57/14 40/58/14
f 40/58/14 24/26/14 22/23/14
f 40/61/15 39/60/15 41/59/15
f 41/59/15 42/62/15 40/61/15
f 24/27/16 40/61/16 42/62/16
f 42/62/16 26/30/16 24/27/16
f 28/34/17 26/31/17 42/64/17
f 42/64/17 43/63/17 28/34/17
f 43/63/18 42/64/18 41/66/18
f 41/66/18 44/65/18 43/63/18
f 30/38/19 28/35/19 43/68/19
f 43/68/19 45/67/19 30/38/19
f 45/67/20 43/68/20 44/70/20
f 44/70/20 46/69/20 45/67/20
f 48/74/21 47/73/21 45/72/21
f 45/72/21 46/71/21 48/74/21
f 47/73/22 32/42/22 30/39/22
f 30/39/22 45/72/22 47/73/22
f 34/46/23 32/43/23 47/76/23
f 47/76/23 49/75/23 34/46/23
f 49/75/24 47/76/24 48/78/24
f 48/78/24 50/77/24 49/75/24
f 49/81/25 50/80/25 36/79/25
f 36/79/25 37/82/25 49/81/25
f 34/47/26 49/81/26 37/82/26
f 37/82/26 19/50/26 34/47/26
f 36/52/27 52/84/27 51/83/27
f 51/83/27 35/51/27 36/52/27
f 35/56/28 51/85/28 53/86/28
f 53/86/28 39/55/28 35/56/28
f 39/60/29 53/88/29 54/87/29
f 54/87/29 41/59/29 39/60/29
f 54/90/30 55/89/30 44/65/30
f 44/65/30 41/66/30 54/90/30
f 56/90/31 46/69/31 44/70/31
f 44/70/31 55/91/31 56/90/31
f 57/93/32 48/74/32 46/71/32
f 46/71/32 56/92/32 57/93/32
f 58/94/33 50/77/33 48/78/33
f 48/78/33 57/95/33 58/94/33
f 50/80/34 58/96/34 52/84/34
f 52/84/34 36/79/34 50/80/34
f 52/84/35 60/98/35 59/97/35
f 59/97/35 51/83/35 52/84/35
f 1/100/36 3/99/36 59/97/36
f 59/97/36 60/98/36 1/100/36
f 59/103/37 3/102/37 7/101/37
f 7/101/37 61/104/37 59/103/37
f 51/85/38 59/103/38 61/104/38
f 61/104/38 53/86/38 51/85/38
f 53/88/39 61/106/39 62/105/39
f 62/105/39 54/87/39 53/88/39
f 7/108/40 9/107/40 62/105/40
f 62/105/40 61/106/40 7/108/40
f 55/89/41 54/90/41 62/110/41
f 62/110/41 63/109/41 55/89/41
f 11/111/42 63/109/42 62/110/42
f 62/110/42 9/112/42 11/111/42
f 13/116/43 64/115/43 63/114/43
f 63/114/43 11/113/43 13/116/43
f 64/115/44 56/90/44 55/91/44
f 55/91/44 63/114/44 64/115/44
f 15/120/45 65/119/45 64/118/45
f 64/118/45 13/117/45 15/120/45
f 65/119/46 57/93/46 56/92/46
f 56/92/46 64/118/46 65/119/46
f 17/124/47 66/123/47 65/122/47
f 65/122/47 15/121/47 17/124/47
f 66/123/48 58/94/48 57/95/48
f 57/95/48 65/122/48 66/123/48
f 66/127/49 17/126/49 1/125/49
f 1/125/49 60/128/49 66/127/49
f 58/96/50 66/127/50 60/128/50
f 60/128/50 52/84/50 58/96/50
f 68/132/51 33/130/51 20/129/51
f 20/129/51 67/131/51 68/132/51
f 67/136/52 20/134/52 21/133/52
f 21/133/52 69/135/52 67/136/52
f 70/140/53 31/138/53 33/137/53
f 33/137/53 68/139/53 70/140/53
f 71/144/54 29/142/54 31/141/54
f 31/141/54 70/143/54 71/144/54
f 72/148/55 27/146/55 29/145/55
f 29/145/55 71/147/55 72/148/55
f 73/152/56 25/150/56 27/149/56
f 27/149/56 72/151/56 73/152/56
f 74/156/57 23/154/57 25/153/57
f 25/153/57 73/155/57 74/156/57
f 69/160/58 21/158/58 23/157/58
f 23/157/58 74/159/58 69/160/58
f 76/164/59 68/162/59 67/161/59
f 67/161/59 75/163/59 76/164/59
f 75/168/60 67/166/60 69/165/60
f 69/165/60 77/167/60 75/168/60
f 78/172/61 70/170/61 68/169/61
f 68/169/61 76/171/61 78/172/61
f 79/176/62 71/174/62 70/173/62
f 70/173/62 78/175/62 79/176/62
f 80/180/63 72/178/63 71/177/63
f 71/177/63 79/179/63 80/180/63
f 81/184/64 73/182/64 72/181/64
f 72/181/64 80/183/64 81/184/64
f 82/188/65 74/186/65 73/185/65
f 73/185/65 81/187/65 82/188/65
f 77/192/66 69/190/66 74/189/66
f 74/189/66 82/191/66 77/192/66
f 18/196/67 76/194/67 75/193/67
f 75/193/67 4/195/67 18/196/67
f 4/200/68 75/198/68 77/197/68
f 77/197/68 6/199/68 4/200/68
f 16/204/69 78/202/69 76/201/69
f 76/201/69 18/203/69 16/204/69
f 14/204/70 79/202/70 78/201/70
f 78/201/70 16/203/70 14/204/70
f 12/196/71 80/194/71 79/193/71
f 79/193/71 14/195/71 12/196/71
f 10/200/72 81/198/72 80/197/72
f 80/197/72 12/199/72 10/200/72
f 8/208/73 82/206/73 81/205/73
f 81/205/73 10/207/73 8/208/73
f 6/208/74 77/206/74 82/205/74
f 82/205/74 8/207/74 6/208/74

