# ProBuilder 4.2.3
# https://unity3d.com/unity/features/worldbuilding/probuilder
# 22/02/2021 10:14:55

mtllib ./MirrorRectangle.mtl
o MirrorRectangle

g MirrorRectangle
v 0 0 0
v -2 0 0
v 0 2.920628E-09 0.001
v -2 2.920628E-09 0.001
v -2 1 -2.920628E-06
v -2 1 0.0009970794
v 0 1 -2.920628E-06
v 0 1 0.0009970794

vt 0 0
vt -2 0
vt 0 0.001
vt -2 0.001
vt -1 0
vt -1 0.001
vt 2 0
vt 2 0.001
vt 1 0
vt 1 0.001
vt 0 -1
vt 2 -1
vt -2 -1

vn 0 -1 2.920628E-06
vn -1 0 0
vn 0 1 -2.920628E-06
vn 1 0 0
vn 0 2.920628E-06 1
vn 0 -2.920628E-06 -1

usemtl MediumPropGrid
f 3/3/1 4/4/1 2/2/1 1/1/1
f 4/3/2 6/6/2 5/5/2 2/1/2
f 6/8/3 8/3/3 7/1/3 5/7/3
f 8/10/4 3/3/4 1/1/4 7/9/4
f 8/11/5 6/12/5 4/7/5 3/1/5
f 1/1/6 2/2/6 5/13/6 7/11/6

