# ProBuilder 4.2.3
# https://unity3d.com/unity/features/worldbuilding/probuilder
# 22/02/2021 20:17:09

mtllib ./Ottoman.mtl
o Ottoman

g Seat
v 0 0.3 0
v -1.6 0.3 0
v 0 0.58 0
v -1.6 0.58 0
v -1.6 0.3 -0.8
v -1.6 0.58 -0.8
v 0 0.3 -0.8
v 0 0.58 -0.8

vt 0 0
vt -1.6 0
vt 0 0.28
vt -1.6 0.28
vt -0.8 0
vt -0.8 0.28
vt 1.6 0
vt 1.6 0.28
vt 0.8 0
vt 0.8 0.28
vt 0 -0.8
vt 1.6 -0.8
vt -1.6 -0.8

vn 0 0 1
vn -1 0 0
vn 0 0 -1
vn 1 0 0
vn 0 1 0
vn 0 -1 0

usemtl ProBuilderDefault
f 3/3/1 4/4/1 2/2/1 1/1/1
f 4/3/2 6/6/2 5/5/2 2/1/2
f 6/8/3 8/3/3 7/1/3 5/7/3
f 8/10/4 3/3/4 1/1/4 7/9/4
f 8/11/5 6/12/5 4/7/5 3/1/5
f 1/1/6 2/2/6 5/13/6 7/11/6

g Leg
v -0.1617565 0 -0.09500122
v -0.1617565 0.3 -0.09500122
v -0.1367565 0 -0.05169995
v -0.1367565 0.3 -0.05169995
v -0.08675651 0 -0.05169995
v -0.08675651 0.3 -0.05169995
v -0.06175651 0 -0.09500123
v -0.06175651 0.3 -0.09500123
v -0.08675652 0 -0.1383025
v -0.08675652 0.3 -0.1383025
v -0.1367565 0 -0.1383025
v -0.1367565 0.3 -0.1383025
v -0.1117565 0 -0.09500122
v -0.1117565 0.3 -0.09500122

vt 0 0
vt 0 0.3
vt 0.05 0
vt 0.05 0.3
vt 0.025 0
vt 0.025 0.3
vt 0.075 0
vt 0.075 0.3
vt -0.05000001 0
vt -0.05000001 0.3
vt -0.075 0
vt -0.075 0.3
vt -0.025 0
vt -0.025 0.3
vt 0.025 0.04330127
vt -0.025 0.04330127
vt 0.075 0.04330127
vt -0.075 0.04330127
vt 0.1 -4.371139E-09
vt -0.1 -4.371139E-09
vt 0.075 -0.04330127
vt -0.075 -0.04330127
vt 0.025 -0.04330127
vt -0.025 -0.04330127

vn -0.8660254 0 0.5
vn 7.450581E-08 0 1
vn 0.8660254 0 0.5
vn 0.8660253 0 -0.5000001
vn 0 0 -1
vn -0.8660254 0 -0.5000001
vn 0 -1 0
vn 0 1 0

usemtl ProBuilderDefault
f 9/14/13 21/16/13 11/28/13
f 11/28/13 21/16/13 13/30/13
f 13/30/13 21/16/13 15/32/13
f 15/32/13 21/16/13 17/34/13
f 17/34/13 21/16/13 19/36/13
f 19/36/13 21/16/13 9/14/13
f 12/29/14 22/22/14 10/14/14
f 14/31/14 22/22/14 12/29/14
f 16/33/14 22/22/14 14/31/14
f 18/35/14 22/22/14 16/33/14
f 20/37/14 22/22/14 18/35/14
f 10/14/14 22/22/14 20/37/14
f 12/17/7 10/15/7 9/14/7
f 9/14/7 11/16/7 12/17/7
f 14/21/8 12/19/8 11/18/8
f 11/18/8 13/20/8 14/21/8
f 16/17/9 14/15/9 13/14/9
f 13/14/9 15/16/9 16/17/9
f 18/15/10 16/23/10 15/22/10
f 15/22/10 17/14/10 18/15/10
f 20/27/11 18/25/11 17/24/11
f 17/24/11 19/26/11 20/27/11
f 10/15/12 20/23/12 19/22/12
f 19/22/12 9/14/12 10/15/12

g Leg (1)
v -0.1617565 0 -0.7159996
v -0.1617565 0.3 -0.7159996
v -0.1367565 0 -0.6726983
v -0.1367565 0.3 -0.6726983
v -0.08675651 0 -0.6726983
v -0.08675651 0.3 -0.6726983
v -0.06175651 0 -0.7159996
v -0.06175651 0.3 -0.7159996
v -0.08675652 0 -0.7593009
v -0.08675652 0.3 -0.7593009
v -0.1367565 0 -0.7593009
v -0.1367565 0.3 -0.7593009
v -0.1117565 0 -0.7159996
v -0.1117565 0.3 -0.7159996

vt 0 0
vt 0 0.3
vt 0.05 0
vt 0.05 0.3
vt 0.025 0
vt 0.025 0.3
vt 0.075 0
vt 0.075 0.3
vt -0.05000001 0
vt -0.05000001 0.3
vt -0.075 0
vt -0.075 0.3
vt -0.025 0
vt -0.025 0.3
vt 0.025 0.04330127
vt -0.025 0.04330127
vt 0.075 0.04330127
vt -0.075 0.04330127
vt 0.1 -4.371139E-09
vt -0.1 -4.371139E-09
vt 0.075 -0.04330127
vt -0.075 -0.04330127
vt 0.025 -0.04330127
vt -0.025 -0.04330127

vn -0.8660254 0 0.5
vn 7.450581E-08 0 1
vn 0.8660254 0 0.5
vn 0.8660253 0 -0.5000001
vn 0 0 -1
vn -0.8660254 0 -0.5000001
vn 0 -1 0
vn 0 1 0

usemtl ProBuilderDefault
f 23/38/21 35/40/21 25/52/21
f 25/52/21 35/40/21 27/54/21
f 27/54/21 35/40/21 29/56/21
f 29/56/21 35/40/21 31/58/21
f 31/58/21 35/40/21 33/60/21
f 33/60/21 35/40/21 23/38/21
f 26/53/22 36/46/22 24/38/22
f 28/55/22 36/46/22 26/53/22
f 30/57/22 36/46/22 28/55/22
f 32/59/22 36/46/22 30/57/22
f 34/61/22 36/46/22 32/59/22
f 24/38/22 36/46/22 34/61/22
f 26/41/15 24/39/15 23/38/15
f 23/38/15 25/40/15 26/41/15
f 28/45/16 26/43/16 25/42/16
f 25/42/16 27/44/16 28/45/16
f 30/41/17 28/39/17 27/38/17
f 27/38/17 29/40/17 30/41/17
f 32/39/18 30/47/18 29/46/18
f 29/46/18 31/38/18 32/39/18
f 34/51/19 32/49/19 31/48/19
f 31/48/19 33/50/19 34/51/19
f 24/39/20 34/47/20 33/46/20
f 33/46/20 23/38/20 24/39/20

g Leg (2)
v -1.558756 0 -0.7159996
v -1.558756 0.3 -0.7159996
v -1.533756 0 -0.6726983
v -1.533756 0.3 -0.6726983
v -1.483756 0 -0.6726983
v -1.483756 0.3 -0.6726983
v -1.458756 0 -0.7159996
v -1.458756 0.3 -0.7159996
v -1.483756 0 -0.7593009
v -1.483756 0.3 -0.7593009
v -1.533756 0 -0.7593009
v -1.533756 0.3 -0.7593009
v -1.508756 0 -0.7159996
v -1.508756 0.3 -0.7159996

vt 0 0
vt 0 0.3
vt 0.05 0
vt 0.05 0.3
vt 0.025 0
vt 0.025 0.3
vt 0.075 0
vt 0.075 0.3
vt -0.05000001 0
vt -0.05000001 0.3
vt -0.075 0
vt -0.075 0.3
vt -0.025 0
vt -0.025 0.3
vt 0.025 0.04330127
vt -0.025 0.04330127
vt 0.075 0.04330127
vt -0.075 0.04330127
vt 0.1 -4.371139E-09
vt -0.1 -4.371139E-09
vt 0.075 -0.04330127
vt -0.075 -0.04330127
vt 0.025 -0.04330127
vt -0.025 -0.04330127

vn -0.8660254 0 0.5
vn 7.450581E-08 0 1
vn 0.8660254 0 0.5
vn 0.8660253 0 -0.5000001
vn 0 0 -1
vn -0.8660254 0 -0.5000001
vn 0 -1 0
vn 0 1 0

usemtl ProBuilderDefault
f 37/62/29 49/64/29 39/76/29
f 39/76/29 49/64/29 41/78/29
f 41/78/29 49/64/29 43/80/29
f 43/80/29 49/64/29 45/82/29
f 45/82/29 49/64/29 47/84/29
f 47/84/29 49/64/29 37/62/29
f 40/77/30 50/70/30 38/62/30
f 42/79/30 50/70/30 40/77/30
f 44/81/30 50/70/30 42/79/30
f 46/83/30 50/70/30 44/81/30
f 48/85/30 50/70/30 46/83/30
f 38/62/30 50/70/30 48/85/30
f 40/65/23 38/63/23 37/62/23
f 37/62/23 39/64/23 40/65/23
f 42/69/24 40/67/24 39/66/24
f 39/66/24 41/68/24 42/69/24
f 44/65/25 42/63/25 41/62/25
f 41/62/25 43/64/25 44/65/25
f 46/63/26 44/71/26 43/70/26
f 43/70/26 45/62/26 46/63/26
f 48/75/27 46/73/27 45/72/27
f 45/72/27 47/74/27 48/75/27
f 38/63/28 48/71/28 47/70/28
f 47/70/28 37/62/28 38/63/28

g Leg (3)
v -1.558756 0 -0.1
v -1.558756 0.3 -0.1
v -1.533756 0 -0.05669873
v -1.533756 0.3 -0.05669873
v -1.483756 0 -0.05669873
v -1.483756 0.3 -0.05669873
v -1.458756 0 -0.1
v -1.458756 0.3 -0.1
v -1.483756 0 -0.1433013
v -1.483756 0.3 -0.1433013
v -1.533756 0 -0.1433013
v -1.533756 0.3 -0.1433013
v -1.508756 0 -0.1
v -1.508756 0.3 -0.1

vt 0 0
vt 0 0.3
vt 0.05 0
vt 0.05 0.3
vt 0.025 0
vt 0.025 0.3
vt 0.075 0
vt 0.075 0.3
vt -0.05000001 0
vt -0.05000001 0.3
vt -0.075 0
vt -0.075 0.3
vt -0.025 0
vt -0.025 0.3
vt 0.025 0.04330127
vt -0.025 0.04330127
vt 0.075 0.04330127
vt -0.075 0.04330127
vt 0.1 -4.371139E-09
vt -0.1 -4.371139E-09
vt 0.075 -0.04330127
vt -0.075 -0.04330127
vt 0.025 -0.04330127
vt -0.025 -0.04330127

vn -0.8660254 0 0.5
vn 7.450581E-08 0 1
vn 0.8660254 0 0.5
vn 0.8660253 0 -0.5000001
vn 0 0 -1
vn -0.8660254 0 -0.5000001
vn 0 -1 0
vn 0 1 0

usemtl ProBuilderDefault
f 51/86/37 63/88/37 53/100/37
f 53/100/37 63/88/37 55/102/37
f 55/102/37 63/88/37 57/104/37
f 57/104/37 63/88/37 59/106/37
f 59/106/37 63/88/37 61/108/37
f 61/108/37 63/88/37 51/86/37
f 54/101/38 64/94/38 52/86/38
f 56/103/38 64/94/38 54/101/38
f 58/105/38 64/94/38 56/103/38
f 60/107/38 64/94/38 58/105/38
f 62/109/38 64/94/38 60/107/38
f 52/86/38 64/94/38 62/109/38
f 54/89/31 52/87/31 51/86/31
f 51/86/31 53/88/31 54/89/31
f 56/93/32 54/91/32 53/90/32
f 53/90/32 55/92/32 56/93/32
f 58/89/33 56/87/33 55/86/33
f 55/86/33 57/88/33 58/89/33
f 60/87/34 58/95/34 57/94/34
f 57/94/34 59/86/34 60/87/34
f 62/99/35 60/97/35 59/96/35
f 59/96/35 61/98/35 62/99/35
f 52/87/36 62/95/36 61/94/36
f 61/94/36 51/86/36 52/87/36

