# ProBuilder 4.2.3
# https://unity3d.com/unity/features/worldbuilding/probuilder
# 22/02/2021 20:27:17

mtllib ./PhotoFrameTiny.mtl
o PhotoFrameTiny

g PhotoFrameTiny
v 0 0 0
v -0.01642459 0.004400947 0
v 0.09494508 0.3543405 0
v 0.07852049 0.3587414 0
v -0.01642459 0.004400947 -0.2550597
v 0.07852049 0.3587414 -0.2550597
v 0 0 -0.2550597
v 0.09494508 0.3543405 -0.2550597

vt 0 0
vt -0.05 0
vt 0 1
vt -0.05 1
vt -0.75 0
vt -0.75 1
vt 0.05 0
vt 0.05 1
vt 0.75 0
vt 0.75 1
vt 0 -0.75
vt 0.05 -0.75
vt -0.05 -0.75

vn 0 0 1
vn -0.9659259 0.2588186 0
vn 0 0 -1
vn 0.9659259 -0.2588186 0
vn 0.2588181 0.9659261 0
vn -0.2588186 -0.9659259 0

usemtl SmallPropGrid
f 3/3/1 4/4/1 2/2/1 1/1/1
f 4/3/2 6/6/2 5/5/2 2/1/2
f 6/8/3 8/3/3 7/1/3 5/7/3
f 8/10/4 3/3/4 1/1/4 7/9/4
f 8/11/5 6/12/5 4/7/5 3/1/5
f 1/1/6 2/2/6 5/13/6 7/11/6

