# ProBuilder 4.2.3
# https://unity3d.com/unity/features/worldbuilding/probuilder
# 22/02/2021 23:00:48

mtllib ./RugBearskin.mtl
o RugBearskin

g RugBearskin (1)
v -0.5695896 0 -1.023751
v -0.5695896 0.01 -1.023751
v 0.2009619 0 0.75
v 0.2009619 0.01 0.75
v 0.04649448 0 2.381799
v 0.04649448 0.01 2.381799
v 1.193058 0 1.926733
v 1.193058 0.01 1.926733
v 1.80695 0 1.926733
v 1.80695 0.01 1.926733
v 2.953506 0 2.381799
v 2.953506 0.01 2.381799
v 2.799038 0 0.7500001
v 2.799038 0.01 0.7500001
v 3.56959 0 -1.023751
v 3.56959 0.01 -1.023751
v 2.620758 0 -1.381782
v 2.620758 0.01 -1.381782
v 1.826105 0 -2.168489
v 1.826105 0.01 -2.168489
v 1.5 0 -2.313717
v 1.5 0.01 -2.313717
v 1.173895 0 -2.168489
v 1.173895 0.01 -2.168489
v 0.3792419 0 -1.381782
v 0.3792419 0.01 -1.381782
v 1.5 0 0
v 1.495312 0.01 0.00768246
v 1.504688 0.01 0.00768246
v 1.5 0 1.491
v 1.491933 0.01 -0.003990449
v 1.492206 0.01 0.0045
v 1.507794 0.01 0.004500001
v 1.508067 0.01 -0.003990449
v 1.505669 0.01 -0.006989825
v 1.501338 0.01 -0.008899925
v 1.5 0.01 -0.009
v 1.498662 0.01 -0.008899925
v 1.494331 0.01 -0.006989825
v 1.5 0.009999999 -0.002217771

vt -1.165927 0
vt -1.165927 0.01
vt 0.7679664 0
vt 0.7679664 0.01
vt 0.7277236 0
vt 0.7277236 0.01
vt 2.366817 0
vt 2.366817 0.01
vt -1.195647 0
vt -1.195647 0.01
vt 0.4954257 0
vt 0.4954257 0.01
vt 2.069475 0
vt 2.069475 0.01
vt 3.760547 0
vt 3.760547 0.01
vt -2.649536 0
vt -2.649536 0.01
vt -1.010443 0
vt -1.010443 0.01
vt 0.4273708 0
vt 0.4273708 0.01
vt 2.361264 0
vt 2.361264 0.01
vt -2.978311 0
vt -2.978311 0.01
vt -1.964177 0
vt -1.964177 0.01
vt -0.8902971 0
vt -0.8902971 0.01
vt 0.227908 0
vt 0.227908 0.01
vt -0.7859745 0
vt -0.7859745 0.01
vt -0.4289933 0
vt -0.4289933 0.01
vt -2.311531 0
vt -2.311531 0.01
vt -1.954549 0
vt -1.954549 0.01
vt -2.359859 0
vt -2.359859 0.01
vt -1.241654 0
vt -1.241654 0.01
vt -0.8426468 0
vt -0.8426468 0.01
vt 0.1714869 0
vt 0.1714869 0.01
vt -0.5695896 -1.023751
vt 1.5 0
vt 0.2009619 0.75
vt 0.04649448 2.381799
vt -0.04649448 2.381799
vt -1.495312 0.00768246
vt -1.492305 1.504668
vt -1.507695 1.504668
vt -1.504688 0.00768246
vt -2.953506 2.381799
vt 2.953506 2.381799
vt 2.799038 0.7500001
vt 3.56959 -1.023751
vt 2.620758 -1.381782
vt 1.826105 -2.168489
vt 1.5 -2.313717
vt 1.173895 -2.168489
vt 0.3792419 -1.381782
vt 1.193058 0.01
vt 1.193058 0
vt 1.80695 0.01
vt 1.80695 0
vt -1.193058 1.926733
vt -1.80695 1.926733
vt 1.193058 1.926733
vt 1.5 1.491
vt 1.80695 1.926733
vt -1.491933 -0.003990449
vt -1.492206 0.0045
vt -0.2009619 0.75
vt 0.5695896 -1.023751
vt -1.507794 0.004500001
vt -2.799038 0.7500001
vt -1.508067 -0.003990449
vt -3.56959 -1.023751
vt -1.505669 -0.006989825
vt -2.620758 -1.381782
vt -1.501338 -0.008899925
vt -1.826105 -2.168489
vt -1.5 -0.009
vt -1.5 -2.313717
vt -1.498662 -0.008899925
vt -1.173895 -2.168489
vt -1.494331 -0.006989825
vt -0.3792419 -1.381782
vt -1.5 -0.00221777
vt 0 0
vt -1.492206 0.0045

vn -0.9171919 0 0.3984458
vn -0.9955496 0 -0.09423957
vn 0.3689017 0 0.9294685
vn -0.3689038 0 0.9294676
vn 0.9955496 0 -0.09423965
vn 0.9171919 0 0.3984458
vn 0.3530406 0 -0.935608
vn 0.7035453 0 -0.7106505
vn 0.406821 0 -0.9135079
vn -0.406821 0 -0.9135079
vn -0.7035453 0 -0.7106505
vn -0.3530406 0 -0.935608
vn 0 -1 0
vn 0 1 0
vn 0 0 1
vn 0 0 0

usemtl LargePropGrid
f 1/49/13 27/50/13 3/51/13
f 3/51/13 27/50/13 5/52/13
f 11/59/13 27/50/13 13/60/13
f 13/60/13 27/50/13 15/61/13
f 15/61/13 27/50/13 17/62/13
f 17/62/13 27/50/13 19/63/13
f 19/63/13 27/50/13 21/64/13
f 21/64/13 27/50/13 23/65/13
f 23/65/13 27/50/13 25/66/13
f 25/66/13 27/50/13 1/49/13
f 8/55/14 28/54/14 6/53/14
f 12/58/14 29/57/14 10/56/14
f 30/74/13 9/75/13 7/73/13
f 29/57/14 40/94/14 28/54/14
f 33/80/14 40/94/14 29/57/14
f 34/82/14 40/94/14 33/80/14
f 35/84/14 40/94/14 34/82/14
f 36/86/14 40/94/14 35/84/14
f 37/95/16 40/95/16 36/95/16
f 38/95/16 40/95/16 37/95/16
f 39/92/14 40/94/14 38/90/14
f 31/76/14 40/94/14 39/92/14
f 32/77/14 40/94/14 31/76/14
f 28/54/14 40/94/14 32/96/14
f 4/4/1 2/2/1 1/1/1
f 1/1/1 3/3/1 4/4/1
f 6/8/2 4/6/2 3/5/2
f 3/5/2 5/7/2 6/8/2
f 8/12/3 6/10/3 5/9/3
f 5/9/3 7/11/3 8/12/3
f 12/16/4 10/14/4 9/13/4
f 9/13/4 11/15/4 12/16/4
f 14/20/5 12/18/5 11/17/5
f 11/17/5 13/19/5 14/20/5
f 16/24/6 14/22/6 13/21/6
f 13/21/6 15/23/6 16/24/6
f 18/28/7 16/26/7 15/25/7
f 15/25/7 17/27/7 18/28/7
f 20/32/8 18/30/8 17/29/8
f 17/29/8 19/31/8 20/32/8
f 22/36/9 20/34/9 19/33/9
f 19/33/9 21/35/9 22/36/9
f 24/40/10 22/38/10 21/37/10
f 21/37/10 23/39/10 24/40/10
f 26/44/11 24/42/11 23/41/11
f 23/41/11 25/43/11 26/44/11
f 2/48/12 26/46/12 25/45/12
f 25/45/12 1/47/12 2/48/12
f 10/69/15 8/67/15 7/68/15
f 7/68/15 9/70/15 10/69/15
f 29/57/14 28/54/14 8/71/14
f 8/71/14 10/72/14 29/57/14
f 5/52/13 27/50/13 30/74/13
f 30/74/13 7/73/13 5/52/13
f 27/50/13 11/59/13 9/75/13
f 9/75/13 30/74/13 27/50/13
f 32/77/14 31/76/14 2/79/14
f 2/79/14 4/78/14 32/77/14
f 28/54/14 32/77/14 4/78/14
f 4/78/14 6/53/14 28/54/14
f 14/81/14 33/80/14 29/57/14
f 29/57/14 12/58/14 14/81/14
f 16/83/14 34/82/14 33/80/14
f 33/80/14 14/81/14 16/83/14
f 16/83/14 18/85/14 35/84/14
f 35/84/14 34/82/14 16/83/14
f 18/85/14 20/87/14 36/86/14
f 36/86/14 35/84/14 18/85/14
f 20/87/14 22/89/14 37/88/14
f 37/88/14 36/86/14 20/87/14
f 37/88/14 22/89/14 24/91/14
f 24/91/14 38/90/14 37/88/14
f 38/90/14 24/91/14 26/93/14
f 26/93/14 39/92/14 38/90/14
f 39/92/14 26/93/14 2/79/14
f 2/79/14 31/76/14 39/92/14

