# ProBuilder 4.2.3
# https://unity3d.com/unity/features/worldbuilding/probuilder
# 22/02/2021 10:16:04

mtllib ./RugRound.mtl
o RugRound

g RugRound
v 0.21563 0.001 -0.18954
v 0.3303324 0.001 0.2078269
v -0.09010109 0.001 -0.3241844
v -0.02440235 0.001 0.1181621
v 0.3486184 0.001 0.9999599
v -0.01392855 0.001 0.9999599
v 0.3303324 0.001 1.792093
v -0.02440235 0.001 1.881758
v 0.21563 0.001 2.18946
v -0.09010109 0.001 2.324104
v -0.9098833 0.001 -0.3241844
v -0.9755821 0.001 0.1181621
v -1.215614 0.001 -0.18954
v -1.330317 0.001 0.2078269
v -0.9860559 0.001 0.9999599
v -1.348603 0.001 0.9999599
v -0.9755821 0.001 1.881758
v -1.330317 0.001 1.792093
v -0.9098833 0.001 2.324104
v -1.215614 0.001 2.18946
v -0.4999922 0.001 0.09163463
v -0.4999922 0.001 -0.3640193
v -0.4999922 0.001 0.9999599
v -0.4999922 0.001 1.908285
v -0.4999922 0.001 2.363939

vt 0 0
vt -0.08014172 0.3340622
vt 0.2136121 -0.1131941
vt 0.1677088 0.2586819
vt -0.09291804 1
vt 0.1603909 1
vt -0.08014172 1.665938
vt 0.1677088 1.741318
vt 0 2
vt 0.2136121 2.113194
vt 0.7863879 -0.1131941
vt 0.8322912 0.2586819
vt 1 0
vt 1.080142 0.3340622
vt 0.8396091 1
vt 1.092918 1
vt 0.8322912 1.741318
vt 1.080142 1.665938
vt 0.7863879 2.113194
vt 1 2
vt 0.5 0.2363805
vt 0.5 -0.1466829
vt 0.5 1
vt 0.5 1.76362
vt 0.5 2.146683

vn 0 1 0

usemtl SmallPropGrid
f 3/3/1 4/4/1 2/2/1 1/1/1
f 4/4/1 6/6/1 5/5/1 2/2/1
f 6/6/1 8/8/1 7/7/1 5/5/1
f 8/8/1 10/10/1 9/9/1 7/7/1
f 13/13/1 14/14/1 12/12/1 11/11/1
f 14/14/1 16/16/1 15/15/1 12/12/1
f 16/16/1 18/18/1 17/17/1 15/15/1
f 18/18/1 20/20/1 19/19/1 17/17/1
f 4/4/1 3/3/1 22/22/1 21/21/1
f 12/12/1 21/21/1 22/22/1 11/11/1
f 6/6/1 4/4/1 21/21/1 23/23/1
f 15/15/1 23/23/1 21/21/1 12/12/1
f 8/8/1 6/6/1 23/23/1 24/24/1
f 24/24/1 23/23/1 15/15/1 17/17/1
f 10/10/1 8/8/1 24/24/1 25/25/1
f 25/25/1 24/24/1 17/17/1 19/19/1

