# ProBuilder 4.2.3
# https://unity3d.com/unity/features/worldbuilding/probuilder
# 23/02/2021 15:03:19

mtllib ./RugXLarge.mtl
o RugXLarge

g RugXLarge
v 3.331785 0.001828334 4.515986
v -0.1509172 0.001828334 4.515995
v 3.331766 0.001828334 -0.05484998
v -0.1509361 0.001828334 -0.05484126
v -3.63362 0.001828334 4.516003
v -3.633639 0.001828334 -0.05483254
v 3.331748 0.001828334 -4.625686
v -0.1509549 0.001828334 -4.625677
v -3.633657 0.001828334 -4.625669

vt 0 0
vt 0 1.5
vt 2.5 0
vt 2.5 1.5
vt 0 3
vt 2.5 3
vt 5 0
vt 5 1.5
vt 5 3

vn 0 1 0

usemtl RugsGrid
f 3/3/1 4/4/1 2/2/1 1/1/1
f 4/4/1 6/6/1 5/5/1 2/2/1
f 7/7/1 8/8/1 4/4/1 3/3/1
f 8/8/1 9/9/1 6/6/1 4/4/1

