# ProBuilder 4.2.3
# https://unity3d.com/unity/features/worldbuilding/probuilder
# 04/03/2021 10:36:00

mtllib ./RunnerRugShort.mtl
o RunnerRugShort

g RunnerRugShort
v 0 0.001 0
v 0 0.001 2.75
v -0.770802 0.001 0
v -0.770802 0.001 2.75
v 0 0.001 5.5
v -0.770802 0.001 5.5
v -1.541604 0.001 0
v -1.541604 0.001 2.75
v -1.541604 0.001 5.5

vt 0.0002322495 0.0750916
vt 0.0002322495 1.856113
vt 0.4994375 0.0750916
vt 0.4994375 1.856113
vt 0.0002322495 3.637134
vt 0.4994375 3.637134
vt 0.998643 0.0750916
vt 0.998643 1.856113
vt 0.998643 3.637134

vn 0 1 0

usemtl RunnerRug
f 3/3/1 4/4/1 2/2/1 1/1/1
f 4/4/1 6/6/1 5/5/1 2/2/1
f 7/7/1 8/8/1 4/4/1 3/3/1
f 8/8/1 9/9/1 6/6/1 4/4/1

