# ProBuilder 4.2.3
# https://unity3d.com/unity/features/worldbuilding/probuilder
# 22/02/2021 10:16:50

mtllib ./SideTable.mtl
o SideTable

g Top
v -0.5180196 0.9709951 0.1213504
v -0.5180196 1.04 0.1213504
v -0.4225281 0.9709951 0.4152431
v -0.4225281 1.04 0.4152431
v -0.1725281 0.9709951 0.5968786
v -0.1725281 1.04 0.5968786
v 0.136489 0.9709951 0.5968786
v 0.136489 1.04 0.5968786
v 0.386489 0.9709951 0.4152431
v 0.386489 1.04 0.4152431
v 0.4819804 0.9709951 0.1213504
v 0.4819804 1.04 0.1213504
v 0.386489 0.9709951 -0.1725422
v 0.386489 1.04 -0.1725422
v 0.136489 0.9709951 -0.3541778
v 0.136489 1.04 -0.3541778
v -0.1725281 0.9709951 -0.3541778
v -0.1725281 1.04 -0.3541778
v -0.4225281 0.9709951 -0.1725422
v -0.4225281 1.04 -0.1725422
v -0.4371065 0.8629248 0.1353756
v -0.02089348 0.8629248 0.1353756
v -0.3576168 0.8629248 0.3800196
v 0.021 1.04 0.16
v -0.1495103 0.8629248 0.5312179
v 0.1077238 0.8629248 0.5312179
v 0.3158303 0.8629248 0.3800196
v 0.3953196 0.8629248 0.1353756
v 0.3158303 0.8629248 -0.1092683
v 0.1077238 0.8629248 -0.2604667
v -0.1495103 0.8629248 -0.2604667
v -0.3576168 0.8629248 -0.1092683
v -0.3576168 0.9629248 0.3800196
v -0.1495103 0.9629248 0.5312179
v -0.4371065 0.9629248 0.1353756
v 0.1077238 0.9629248 0.5312179
v 0.3158303 0.9629248 0.3800196
v 0.3953196 0.9629248 0.1353756
v 0.3158303 0.9629248 -0.1092683
v 0.1077238 0.9629248 -0.2604667
v -0.1495103 0.9629248 -0.2604667
v -0.3576168 0.9629248 -0.1092683

vt -0.01422921 0.0609951
vt -0.01422921 0.13
vt 0.2947878 0.0609951
vt 0.2947878 0.13
vt 0.2127473 0.0609951
vt 0.2127473 0.13
vt 0.5217643 0.0609951
vt 0.5217643 0.13
vt 0.2994447 0.0609951
vt 0.2994447 0.13
vt 0.6084619 0.0609951
vt 0.6084619 0.13
vt -0.2947875 0.0609951
vt -0.2947875 0.13
vt 0.01422944 0.0609951
vt 0.01422944 0.13
vt -0.5217645 0.0609951
vt -0.5217645 0.13
vt -0.2127475 0.0609951
vt -0.2127475 0.13
vt -0.6084619 0.0609951
vt -0.6084619 0.13
vt -0.2994447 0.0609951
vt -0.2994447 0.13
vt 0.04189348 -0.02462435
vt 0.4581065 -0.02462435
vt 0.1213832 0.2200196
vt 0.04604673 0
vt -0.5 0
vt -0.04944468 0.2938926
vt 0.3294897 0.371218
vt -0.2994447 0.4755282
vt 0.5867238 0.371218
vt -0.6084619 0.4755282
vt 0.7948303 0.2200196
vt -0.8584619 0.2938926
vt 0.8743196 -0.02462435
vt -0.9539533 0
vt 0.7948303 -0.2692683
vt -0.8584619 -0.2938926
vt 0.5867238 -0.4204667
vt -0.6084619 -0.4755282
vt 0.3294897 -0.4204667
vt -0.2994447 -0.4755282
vt 0.1213832 -0.2692683
vt -0.04944468 -0.2938926
vt 0.04655911 0.2973268
vt 0.2962894 0.479333
vt 0.1187948 0.223303
vt 0.3266768 0.3748099
vt -0.0509974 0.001549678
vt 0.04415796 0.2955513
vt 0.03730981 -0.0230838
vt 0.1165198 0.2216508
vt 0.2994447 0.4788164
vt 0.6084619 0.4788164
vt 0.3294897 0.3741944
vt 0.5867238 0.3741944
vt 0.6107123 0.4765537
vt 0.8604149 0.2945094
vt 0.5886065 0.3720087
vt 0.7964655 0.2204702
vt 0.8604381 0.2932266
vt 0.9555272 -0.000796468
vt 0.7963346 0.2193208
vt 0.8754889 -0.02543174
vt 0.9547848 0.001679023
vt 0.8598937 -0.292408
vt 0.8747482 -0.02296161
vt 0.7957587 -0.2677673
vt 0.8605678 -0.2908883
vt 0.6114194 -0.4736904
vt 0.7964875 -0.2661058
vt 0.5890899 -0.4182752
vt 0.6084619 -0.4793468
vt 0.2994447 -0.4793468
vt 0.5867238 -0.4236969
vt 0.3294897 -0.4236969
vt 0.2939399 -0.4816456
vt 0.04466369 -0.299018
vt 0.3245116 -0.4262833
vt 0.1170076 -0.2742592
vt 0.04306795 -0.2958778
vt -0.05194052 -0.001828681
vt 0.1154533 -0.2712403
vt 0.03636557 -0.02646614
vt 0.2275254 0.05292475
vt 0.4847592 0.05292475
vt 0.2275254 -0.04707525
vt 0.4847592 -0.04707525
vt -0.01047333 0.05292475
vt 0.2467605 0.05292475
vt -0.01047333 -0.04707525
vt 0.2467605 -0.04707525
vt 0.3294897 0.05292475
vt 0.5867238 0.05292475
vt 0.3294897 -0.04707525
vt 0.5867238 -0.04707525
vt 0.2564728 0.05292475
vt 0.5137067 0.05292475
vt 0.2564728 -0.04707525
vt 0.5137067 -0.04707525
vt 0.0363638 0.05292475
vt 0.2935975 0.05292475
vt 0.0363638 -0.04707525
vt 0.2935975 -0.04707525
vt -0.2467592 0.05292475
vt 0.01047452 0.05292475
vt -0.2467592 -0.04707525
vt 0.01047452 -0.04707525
vt -0.484759 0.05292475
vt -0.2275251 0.05292475
vt -0.484759 -0.04707525
vt -0.2275251 -0.04707525
vt -0.5867238 0.05292475
vt -0.3294897 0.05292475
vt -0.5867238 -0.04707525
vt -0.3294897 -0.04707525
vt -0.5137069 0.05292475
vt -0.256473 0.05292475
vt -0.5137069 -0.04707525
vt -0.256473 -0.04707525
vt -0.2935988 0.05292475
vt -0.03636495 0.05292475
vt -0.2935988 -0.04707525
vt -0.03636495 -0.04707525

vn -1 0 -1.566801E-08
vn -0.8090171 0 0.5877852
vn -0.3090169 0 0.9510565
vn 0.3090169 0 0.9510565
vn 0.8090171 0 0.5877851
vn 1 0 -1.566801E-08
vn 0.8090171 0 -0.5877851
vn 0.309017 0 -0.9510565
vn -0.309017 0 -0.9510565
vn -0.8090171 0 -0.5877852
vn 0 -1 0
vn 0 1 0
vn -0.07065585 -0.9927489 0.09724946
vn -0.1050471 -0.9938813 0.03413182
vn 0 -0.9925311 0.1219919
vn 0.06729328 -0.9934248 0.09262127
vn 0.09777401 -0.9947015 0.03176866
vn 0.08809294 -0.995701 -0.02862309
vn 0.05096713 -0.9962336 -0.07015024
vn 0 -0.9963122 -0.08580181
vn -0.05287904 -0.9959451 -0.07278176
vn -0.09396095 -0.9951077 -0.03052973
vn -0.5877855 0 0.8090168
vn -0.9510564 0 0.3090172
vn 0 0 1
vn 0.5877855 0 0.8090168
vn 0.951057 0 0.3090156
vn 0.951057 0 -0.3090156
vn 0.5877857 0 -0.8090168
vn 0 0 -1
vn -0.5877857 0 -0.8090168
vn -0.9510564 0 -0.3090172

usemtl WoodGrid
f 21/25/11 22/26/11 23/27/11
f 23/27/11 22/26/11 25/31/11
f 25/31/11 22/26/11 26/33/11
f 26/33/11 22/26/11 27/35/11
f 27/35/11 22/26/11 28/37/11
f 28/37/11 22/26/11 29/39/11
f 29/39/11 22/26/11 30/41/11
f 30/41/11 22/26/11 31/43/11
f 31/43/11 22/26/11 32/45/11
f 32/45/11 22/26/11 21/25/11
f 4/30/12 24/29/12 2/28/12
f 6/32/12 24/29/12 4/30/12
f 8/34/12 24/29/12 6/32/12
f 10/36/12 24/29/12 8/34/12
f 12/38/12 24/29/12 10/36/12
f 14/40/12 24/29/12 12/38/12
f 16/42/12 24/29/12 14/40/12
f 18/44/12 24/29/12 16/42/12
f 20/46/12 24/29/12 18/44/12
f 2/28/12 24/29/12 20/46/12
f 4/4/2 2/2/1 1/1/1
f 1/1/1 3/3/2 4/4/2
f 6/8/3 4/6/2 3/5/2
f 3/5/2 5/7/3 6/8/3
f 8/12/4 6/10/3 5/9/3
f 5/9/3 7/11/4 8/12/4
f 10/8/5 8/6/4 7/5/4
f 7/5/4 9/7/5 10/8/5
f 12/4/6 10/2/5 9/1/5
f 9/1/5 11/3/6 12/4/6
f 14/16/7 12/14/6 11/13/6
f 11/13/6 13/15/7 14/16/7
f 16/20/8 14/18/7 13/17/7
f 13/17/7 15/19/8 16/20/8
f 18/24/9 16/22/8 15/21/8
f 15/21/8 17/23/9 18/24/9
f 20/20/10 18/18/9 17/17/9
f 17/17/9 19/19/10 20/20/10
f 2/16/1 20/14/10 19/13/10
f 19/13/10 1/15/1 2/16/1
f 34/50/13 5/48/13 3/47/13
f 3/47/13 33/49/13 34/50/13
f 33/54/14 3/52/14 1/51/14
f 1/51/14 35/53/14 33/54/14
f 36/58/15 7/56/15 5/55/15
f 5/55/15 34/57/15 36/58/15
f 37/62/16 9/60/16 7/59/16
f 7/59/16 36/61/16 37/62/16
f 38/66/17 11/64/17 9/63/17
f 9/63/17 37/65/17 38/66/17
f 39/70/18 13/68/18 11/67/18
f 11/67/18 38/69/18 39/70/18
f 40/74/19 15/72/19 13/71/19
f 13/71/19 39/73/19 40/74/19
f 41/78/20 17/76/20 15/75/20
f 15/75/20 40/77/20 41/78/20
f 42/82/21 19/80/21 17/79/21
f 17/79/21 41/81/21 42/82/21
f 35/86/22 1/84/22 19/83/22
f 19/83/22 42/85/22 35/86/22
f 25/90/23 34/88/23 33/87/23
f 33/87/23 23/89/23 25/90/23
f 23/94/24 33/92/24 35/91/24
f 35/91/24 21/93/24 23/94/24
f 26/98/25 36/96/25 34/95/25
f 34/95/25 25/97/25 26/98/25
f 27/102/26 37/100/26 36/99/26
f 36/99/26 26/101/26 27/102/26
f 28/106/27 38/104/27 37/103/27
f 37/103/27 27/105/27 28/106/27
f 29/110/28 39/108/28 38/107/28
f 38/107/28 28/109/28 29/110/28
f 30/114/29 40/112/29 39/111/29
f 39/111/29 29/113/29 30/114/29
f 31/118/30 41/116/30 40/115/30
f 40/115/30 30/117/30 31/118/30
f 32/122/31 42/120/31 41/119/31
f 41/119/31 31/121/31 32/122/31
f 21/126/32 35/124/32 42/123/32
f 42/123/32 32/125/32 21/126/32

g Cylinder
v -0.405 -0.0009999871 0.149
v -0.405 0.869 0.149
v -0.3874264 -0.0009999871 0.1914264
v -0.3874264 0.869 0.1914264
v -0.345 -0.0009999871 0.209
v -0.345 0.869 0.209
v -0.3025736 -0.0009999871 0.1914264
v -0.3025736 0.869 0.1914264
v -0.285 -0.0009999871 0.149
v -0.285 0.869 0.149
v -0.3025736 -0.0009999871 0.1065736
v -0.3025736 0.869 0.1065736
v -0.345 -0.0009999871 0.089
v -0.345 0.869 0.089
v -0.3874264 -0.0009999871 0.1065736
v -0.3874264 0.869 0.1065736
v -0.345 -0.0009999871 0.149
v -0.345 0.869 0.149

vt 0 0
vt 0 0.87
vt 0.04592201 0
vt 0.04592201 0.87
vt 0.03247177 0
vt 0.03247177 0.87
vt 0.07839378 0
vt 0.07839378 0.87
vt -0.045922 0
vt -0.045922 0.87
vt -0.07839378 0
vt -0.07839378 0.87
vt -0.03247176 0
vt -0.03247176 0.87
vt 0.06 0
vt 0.0175736 0.0424264
vt -0.06 0
vt -0.0175736 0.0424264
vt 0.06 0.06
vt -0.06 0.06
vt 0.1024264 0.0424264
vt -0.1024264 0.0424264
vt 0.12 -5.245366E-09
vt -0.12 -5.245366E-09
vt 0.1024264 -0.0424264
vt -0.1024264 -0.0424264
vt 0.06 -0.06
vt -0.06 -0.06
vt 0.0175736 -0.04242641
vt -0.0175736 -0.04242641

vn -0.9238795 0 0.3826835
vn -0.3826835 0 0.9238795
vn 0.3826835 0 0.9238795
vn 0.9238795 0 0.3826835
vn 0.9238795 0 -0.3826835
vn 0.3826836 0 -0.9238795
vn -0.3826835 0 -0.9238795
vn -0.9238795 0 -0.3826835
vn 0 -1 0
vn 0 1 0

usemtl WoodGrid
f 43/127/41 59/141/41 45/142/41
f 45/142/41 59/141/41 47/145/41
f 47/145/41 59/141/41 49/147/41
f 49/147/41 59/141/41 51/149/41
f 51/149/41 59/141/41 53/151/41
f 53/151/41 59/141/41 55/153/41
f 55/153/41 59/141/41 57/155/41
f 57/155/41 59/141/41 43/127/41
f 46/144/42 60/143/42 44/127/42
f 48/146/42 60/143/42 46/144/42
f 50/148/42 60/143/42 48/146/42
f 52/150/42 60/143/42 50/148/42
f 54/152/42 60/143/42 52/150/42
f 56/154/42 60/143/42 54/152/42
f 58/156/42 60/143/42 56/154/42
f 44/127/42 60/143/42 58/156/42
f 46/130/33 44/128/33 43/127/33
f 43/127/33 45/129/33 46/130/33
f 48/134/34 46/132/34 45/131/34
f 45/131/34 47/133/34 48/134/34
f 50/134/35 48/132/35 47/131/35
f 47/131/35 49/133/35 50/134/35
f 52/130/36 50/128/36 49/127/36
f 49/127/36 51/129/36 52/130/36
f 54/128/37 52/136/37 51/135/37
f 51/135/37 53/127/37 54/128/37
f 56/140/38 54/138/38 53/137/38
f 53/137/38 55/139/38 56/140/38
f 58/140/39 56/138/39 55/137/39
f 55/137/39 57/139/39 58/140/39
f 44/128/40 58/136/40 57/135/40
f 57/135/40 43/127/40 44/128/40

g Cylinder (1)
v -0.07499999 -0.0009999871 0.456
v -0.07499999 0.869 0.456
v -0.05742639 -0.0009999871 0.4984264
v -0.05742639 0.869 0.4984264
v -0.01499999 -0.0009999871 0.516
v -0.01499999 0.869 0.516
v 0.02742642 -0.0009999871 0.4984264
v 0.02742642 0.869 0.4984264
v 0.04500002 -0.0009999871 0.456
v 0.04500002 0.869 0.456
v 0.02742642 -0.0009999871 0.4135736
v 0.02742642 0.869 0.4135736
v -0.01499999 -0.0009999871 0.396
v -0.01499999 0.869 0.396
v -0.05742639 -0.0009999871 0.4135736
v -0.05742639 0.869 0.4135736
v -0.01499999 -0.0009999871 0.456
v -0.01499999 0.869 0.456

vt 0 0
vt 0 0.87
vt 0.04592201 0
vt 0.04592201 0.87
vt 0.03247177 0
vt 0.03247177 0.87
vt 0.07839378 0
vt 0.07839378 0.87
vt -0.045922 0
vt -0.045922 0.87
vt -0.07839378 0
vt -0.07839378 0.87
vt -0.03247176 0
vt -0.03247176 0.87
vt 0.06 0
vt 0.0175736 0.0424264
vt -0.06 0
vt -0.0175736 0.0424264
vt 0.06 0.06
vt -0.06 0.06
vt 0.1024264 0.0424264
vt -0.1024264 0.0424264
vt 0.12 -5.245366E-09
vt -0.12 -5.245366E-09
vt 0.1024264 -0.0424264
vt -0.1024264 -0.0424264
vt 0.06 -0.06
vt -0.06 -0.06
vt 0.0175736 -0.04242641
vt -0.0175736 -0.04242641

vn -0.9238795 0 0.3826835
vn -0.3826835 0 0.9238795
vn 0.3826835 0 0.9238795
vn 0.9238795 0 0.3826835
vn 0.9238795 0 -0.3826835
vn 0.3826835 0 -0.9238795
vn -0.3826835 0 -0.9238795
vn -0.9238795 0 -0.3826835
vn 0 -1 0
vn 0 1 0

usemtl WoodGrid
f 61/157/51 77/171/51 63/172/51
f 63/172/51 77/171/51 65/175/51
f 65/175/51 77/171/51 67/177/51
f 67/177/51 77/171/51 69/179/51
f 69/179/51 77/171/51 71/181/51
f 71/181/51 77/171/51 73/183/51
f 73/183/51 77/171/51 75/185/51
f 75/185/51 77/171/51 61/157/51
f 64/174/52 78/173/52 62/157/52
f 66/176/52 78/173/52 64/174/52
f 68/178/52 78/173/52 66/176/52
f 70/180/52 78/173/52 68/178/52
f 72/182/52 78/173/52 70/180/52
f 74/184/52 78/173/52 72/182/52
f 76/186/52 78/173/52 74/184/52
f 62/157/52 78/173/52 76/186/52
f 64/160/43 62/158/43 61/157/43
f 61/157/43 63/159/43 64/160/43
f 66/164/44 64/162/44 63/161/44
f 63/161/44 65/163/44 66/164/44
f 68/164/45 66/162/45 65/161/45
f 65/161/45 67/163/45 68/164/45
f 70/160/46 68/158/46 67/157/46
f 67/157/46 69/159/46 70/160/46
f 72/158/47 70/166/47 69/165/47
f 69/165/47 71/157/47 72/158/47
f 74/170/48 72/168/48 71/167/48
f 71/167/48 73/169/48 74/170/48
f 76/170/49 74/168/49 73/167/49
f 73/167/49 75/169/49 76/170/49
f 62/158/50 76/166/50 75/165/50
f 75/165/50 61/157/50 62/158/50

g Cylinder (2)
v -0.102 -0.0009999871 -0.177
v -0.102 0.869 -0.177
v -0.0844264 -0.0009999871 -0.1345736
v -0.0844264 0.869 -0.1345736
v -0.042 -0.0009999871 -0.117
v -0.042 0.869 -0.117
v 0.0004263967 -0.0009999871 -0.1345736
v 0.0004263967 0.869 -0.1345736
v 0.01799999 -0.0009999871 -0.177
v 0.01799999 0.869 -0.177
v 0.0004264116 -0.0009999871 -0.2194264
v 0.0004264116 0.869 -0.2194264
v -0.042 -0.0009999871 -0.237
v -0.042 0.869 -0.237
v -0.0844264 -0.0009999871 -0.2194264
v -0.0844264 0.869 -0.2194264
v -0.042 -0.0009999871 -0.177
v -0.042 0.869 -0.177

vt 0 0
vt 0 0.87
vt 0.04592201 0
vt 0.04592201 0.87
vt 0.03247177 0
vt 0.03247177 0.87
vt 0.07839378 0
vt 0.07839378 0.87
vt -0.045922 0
vt -0.045922 0.87
vt -0.07839378 0
vt -0.07839378 0.87
vt -0.03247176 0
vt -0.03247176 0.87
vt 0.06 0
vt 0.0175736 0.0424264
vt -0.06 0
vt -0.0175736 0.0424264
vt 0.06 0.06
vt -0.06 0.06
vt 0.1024264 0.0424264
vt -0.1024264 0.0424264
vt 0.12 -5.245366E-09
vt -0.12 -5.245366E-09
vt 0.1024264 -0.0424264
vt -0.1024264 -0.0424264
vt 0.06 -0.06
vt -0.06 -0.06
vt 0.0175736 -0.04242641
vt -0.0175736 -0.04242641

vn -0.9238795 0 0.3826835
vn -0.3826834 0 0.9238795
vn 0.3826836 0 0.9238794
vn 0.9238795 0 0.3826835
vn 0.9238796 0 -0.3826833
vn 0.3826837 0 -0.9238794
vn -0.3826835 0 -0.9238795
vn -0.9238795 0 -0.3826835
vn 0 -1 0
vn 0 1 0

usemtl WoodGrid
f 79/187/61 95/201/61 81/202/61
f 81/202/61 95/201/61 83/205/61
f 83/205/61 95/201/61 85/207/61
f 85/207/61 95/201/61 87/209/61
f 87/209/61 95/201/61 89/211/61
f 89/211/61 95/201/61 91/213/61
f 91/213/61 95/201/61 93/215/61
f 93/215/61 95/201/61 79/187/61
f 82/204/62 96/203/62 80/187/62
f 84/206/62 96/203/62 82/204/62
f 86/208/62 96/203/62 84/206/62
f 88/210/62 96/203/62 86/208/62
f 90/212/62 96/203/62 88/210/62
f 92/214/62 96/203/62 90/212/62
f 94/216/62 96/203/62 92/214/62
f 80/187/62 96/203/62 94/216/62
f 82/190/53 80/188/53 79/187/53
f 79/187/53 81/189/53 82/190/53
f 84/194/54 82/192/54 81/191/54
f 81/191/54 83/193/54 84/194/54
f 86/194/55 84/192/55 83/191/55
f 83/191/55 85/193/55 86/194/55
f 88/190/56 86/188/56 85/187/56
f 85/187/56 87/189/56 88/190/56
f 90/188/57 88/196/57 87/195/57
f 87/195/57 89/187/57 90/188/57
f 92/200/58 90/198/58 89/197/58
f 89/197/58 91/199/58 92/200/58
f 94/200/59 92/198/59 91/197/59
f 91/197/59 93/199/59 94/200/59
f 80/188/60 94/196/60 93/195/60
f 93/195/60 79/187/60 80/188/60

g Cylinder (3)
v 0.254 -0.0009999871 0.149
v 0.254 0.869 0.149
v 0.2715736 -0.0009999871 0.1914264
v 0.2715736 0.869 0.1914264
v 0.314 -0.0009999871 0.209
v 0.314 0.869 0.209
v 0.3564264 -0.0009999871 0.1914264
v 0.3564264 0.869 0.1914264
v 0.374 -0.0009999871 0.149
v 0.374 0.869 0.149
v 0.3564264 -0.0009999871 0.1065736
v 0.3564264 0.869 0.1065736
v 0.314 -0.0009999871 0.089
v 0.314 0.869 0.089
v 0.2715736 -0.0009999871 0.1065736
v 0.2715736 0.869 0.1065736
v 0.314 -0.0009999871 0.149
v 0.314 0.869 0.149

vt 0 0
vt 0 0.87
vt 0.04592201 0
vt 0.04592201 0.87
vt 0.03247177 0
vt 0.03247177 0.87
vt 0.07839378 0
vt 0.07839378 0.87
vt -0.045922 0
vt -0.045922 0.87
vt -0.07839378 0
vt -0.07839378 0.87
vt -0.03247176 0
vt -0.03247176 0.87
vt 0.06 0
vt 0.0175736 0.0424264
vt -0.06 0
vt -0.0175736 0.0424264
vt 0.06 0.06
vt -0.06 0.06
vt 0.1024264 0.0424264
vt -0.1024264 0.0424264
vt 0.12 -5.245366E-09
vt -0.12 -5.245366E-09
vt 0.1024264 -0.0424264
vt -0.1024264 -0.0424264
vt 0.06 -0.06
vt -0.06 -0.06
vt 0.0175736 -0.04242641
vt -0.0175736 -0.04242641

vn -0.9238795 0 0.3826835
vn -0.3826835 0 0.9238795
vn 0.3826835 0 0.9238795
vn 0.9238795 0 0.3826835
vn 0.9238795 0 -0.3826835
vn 0.3826836 0 -0.9238795
vn -0.3826835 0 -0.9238795
vn -0.9238795 0 -0.3826835
vn 0 -1 0
vn 0 1 0

usemtl WoodGrid
f 97/217/71 113/231/71 99/232/71
f 99/232/71 113/231/71 101/235/71
f 101/235/71 113/231/71 103/237/71
f 103/237/71 113/231/71 105/239/71
f 105/239/71 113/231/71 107/241/71
f 107/241/71 113/231/71 109/243/71
f 109/243/71 113/231/71 111/245/71
f 111/245/71 113/231/71 97/217/71
f 100/234/72 114/233/72 98/217/72
f 102/236/72 114/233/72 100/234/72
f 104/238/72 114/233/72 102/236/72
f 106/240/72 114/233/72 104/238/72
f 108/242/72 114/233/72 106/240/72
f 110/244/72 114/233/72 108/242/72
f 112/246/72 114/233/72 110/244/72
f 98/217/72 114/233/72 112/246/72
f 100/220/63 98/218/63 97/217/63
f 97/217/63 99/219/63 100/220/63
f 102/224/64 100/222/64 99/221/64
f 99/221/64 101/223/64 102/224/64
f 104/224/65 102/222/65 101/221/65
f 101/221/65 103/223/65 104/224/65
f 106/220/66 104/218/66 103/217/66
f 103/217/66 105/219/66 106/220/66
f 108/218/67 106/226/67 105/225/67
f 105/225/67 107/217/67 108/218/67
f 110/230/68 108/228/68 107/227/68
f 107/227/68 109/229/68 110/230/68
f 112/230/69 110/228/69 109/227/69
f 109/227/69 111/229/69 112/230/69
f 98/218/70 112/226/70 111/225/70
f 111/225/70 97/217/70 98/218/70

