# ProBuilder 4.2.3
# https://unity3d.com/unity/features/worldbuilding/probuilder
# 22/02/2021 10:16:38

mtllib ./SideDrawers.mtl
o SideDrawers

g SideDrawers
v 0 0 0
v -0.7328549 0 0
v -0.7328549 0.930831 0
v 0 0.930831 0
v -0.7956711 0.930831 0.07530149
v -0.7956711 1.053557 0.07530149
v 0.06281614 1.053557 0.07530149
v 0.06281614 0.930831 0.07530149
v -0.7328549 0 -1.00402
v 0 0 -1.00402
v 0 0.930831 -1.00402
v -0.7328549 0.930831 -1.00402
v 0.06281614 0.930831 -1.079322
v 0.06281614 1.053557 -1.079322
v -0.7956711 1.053557 -1.079322
v -0.7956711 0.930831 -1.079322
v 0 1.053557 -1.00402
v -0.7328549 1.053557 -1.00402
v -0.7328549 1.053557 0
v 0 1.053557 0
v -0.7433242 0.0561806 -0.943422
v -0.7433242 0.8746504 -0.943422
v -0.7433242 0.8746504 -0.06059795
v -0.7433242 0.0561806 -0.06059795
v -0.7328549 1.053557 -0.4831846
v 0 1.053557 -0.4831846
v -0.7328549 1.053557 -0.5208353
v 0 1.053557 -0.5208353
v -0.7328549 0 -0.5208353
v 0 0 -0.5208353
v -0.7328549 0 -0.4831846
v 0 0 -0.4831846
v -0.7433242 0.0561806 -0.4831847
v -0.7433242 0.8746504 -0.4831847
v -0.7433242 0.0561806 -0.5208353
v -0.7433242 0.8746504 -0.5208353
v -0.7956711 0.930831 -0.4831846
v -0.7956711 1.053557 -0.4831846
v -0.7956711 0.930831 -0.5208353
v -0.7956711 1.053557 -0.5208353
v 0 0.930831 -0.4831846
v 0 0.930831 -0.5208353
v 0.06281614 1.053557 -0.4831846
v 0.06281614 0.930831 -0.4831846
v 0.06281614 1.053557 -0.5208353
v 0.06281614 0.930831 -0.5208353
v -0.7328549 0.930831 -0.4831846
v -0.7328549 0.930831 -0.5208353
v -0.7275341 0.05530817 -0.4831847
v -0.7275341 0.8755228 -0.4831847
v -0.7275341 0.05530817 -0.5208353
v -0.7275341 0.8755228 -0.5208353
v -0.7169046 -0.001731535 -0.4831846
v -0.7169046 -0.001731535 -0.5208353
v -0.7169046 0.9325625 -0.5208353
v -0.7169046 0.9325625 -0.4831846

vt 0 0
vt -0.7 0
vt -0.7 0.9365237
vt 0 0.9365237
vt -0.76 0.9365237
vt -0.76 1.06
vt 0.05999999 1.06
vt 0.05999999 0.9365237
vt 0.7 0
vt 0.7 0.9365237
vt -0.05999999 0.9365237
vt -0.05999999 1.06
vt 0.76 1.06
vt 0.76 0.9365237
vt -0.7 -0.8
vt 0 -0.8
vt -0.76 -0.86
vt 0.05999999 -0.86
vt 0.7 -0.8
vt -0.05999999 -0.86
vt 0.76 -0.86
vt 0.76 0.05999999
vt -0.05999999 0.05999999
vt 0.05999999 0.05999999
vt -0.76 0.05999999
vt -0.6414136 0
vt -0.6414136 0.9365237
vt -0.5921047 0.05652419
vt -0.5921047 0.8799995
vt -0.141962 0.9365237
vt -0.141962 0
vt -0.1912709 0.8799995
vt -0.1912709 0.05652419
vt 0.7 -0.385
vt 0 -0.385
vt 0.7 -0.415
vt 0 -0.415
vt -0.7 -0.415
vt -0.7 -0.385
vt -0.04828426 0.05652419
vt -0.3850001 0.05652419
vt -0.3850001 0.8799995
vt -0.04828426 0.8799995
vt -0.415 0.05652419
vt -0.7517158 0.05652419
vt -0.7517158 0.8799995
vt -0.415 0.8799995
vt -0.385 0.9365237
vt -0.385 1.06
vt -0.415 0.9365237
vt -0.86 0.9365237
vt -0.86 1.06
vt -0.415 1.06
vt 0.385 0.9365237
vt 0.385 0
vt 0.415 0.9365237
vt 0.8 0.9365237
vt 0.8 0
vt 0.415 0
vt 0.385 1.06
vt 0.415 1.06
vt 0.86 1.06
vt 0.86 0.9365237
vt -0.76 -0.385
vt -0.76 -0.415
vt 0.76 -0.415
vt 0.76 -0.385
vt 0.05999999 -0.415
vt 0.05999999 -0.385
vt -0.05999999 -0.385
vt -0.05999999 -0.415
vt 0 0.121947
vt -0.385 0.121947
vt -0.3850001 0.1793489
vt -0.04828426 0.1793489
vt -0.415 0.121947
vt -0.8 0.121947
vt -0.7517158 0.1793489
vt -0.415 0.1793489
vt -0.8 0.8002558
vt -0.415 0.8002558
vt -0.415 0.7428539
vt -0.7517158 0.7428539
vt -0.385 0.8002558
vt 0 0.8002558
vt -0.04828426 0.7428539
vt -0.3850001 0.7428539
vt -0.3850001 0.05564642
vt -0.3850001 0.8808773
vt -0.415 0.05564642
vt -0.415 0.8808773
vt -0.385 0.117577
vt -0.3850001 0.1758567
vt -0.415 0.117577
vt -0.415 0.1758567
vt -0.415 0.8046259
vt -0.415 0.7463462
vt -0.385 0.8046259
vt -0.3850001 0.7463462
vt 0.71 0.8799995
vt 0.71 0.05652419
vt 0.6949176 0.8808773
vt 0.6949176 0.05564642
vt -0.71 0.8799993
vt -0.6949176 0.880877
vt -0.6847647 0.9382656
vt -0.71 0.05652419
vt -0.6949176 0.05564642
vt 0.6847647 -0.001741919
vt 0.6954679 -0.385
vt 0.6954679 -0.415
vt 0.6801335 -0.385
vt 0.6801335 -0.415
vt -0.6847647 -0.001741901
vt -0.5890714 -0.415
vt -0.5890714 -0.385
vt -0.5737369 -0.415
vt -0.5737369 -0.385
vt 0.6847647 0.9382656

vn 0 0 1
vn 0 0 -1
vn 0 -1 0
vn 0 1 0
vn -0.9854018 0 -0.1702448
vn -0.9854018 0 0.1702448
vn -1 0 0
vn 1 0 0
vn -0.9830762 -0.1831973 0
vn -0.9830762 0.1831973 0
vn 0.1079243 0.9941591 0
vn 0.1079231 -0.9941593 0

usemtl WoodGrid
f 4/4/1 3/3/1 2/2/1 1/1/1
f 7/7/1 6/6/1 5/5/1 8/8/1
f 9/9/2 12/10/2 11/4/2 10/1/2
f 16/14/2 15/13/2 14/12/2 13/11/2
f 16/17/3 13/18/3 11/16/3 12/15/3
f 14/20/4 15/21/4 18/19/4 17/16/4
f 6/22/4 7/23/4 20/1/4 19/9/4
f 8/24/3 5/25/3 3/2/3 4/1/3
f 21/28/5 22/29/5 12/27/5 9/26/5
f 23/32/6 24/33/6 2/31/6 3/30/6
f 19/9/4 20/1/4 26/35/4 25/34/4
f 27/36/4 28/37/4 17/16/4 18/19/4
f 10/16/3 30/37/3 29/38/3 9/15/3
f 32/35/3 1/1/3 2/2/3 31/39/3
f 23/43/7 34/42/7 33/41/7 24/40/7
f 36/47/7 22/46/7 21/45/7 35/44/7
f 6/7/7 38/49/7 37/48/7 5/8/7
f 40/53/7 15/52/7 16/51/7 39/50/7
f 32/55/8 41/54/8 4/4/8 1/1/8
f 10/58/8 11/57/8 42/56/8 30/59/8
f 44/54/8 43/60/8 7/12/8 8/11/8
f 46/56/8 13/63/8 14/62/8 45/61/8
f 47/39/3 3/2/3 5/25/3 37/64/3
f 16/17/3 12/15/3 48/38/3 39/65/3
f 40/66/4 27/36/4 18/19/4 15/21/4
f 6/22/4 19/9/4 25/34/4 38/67/4
f 13/18/3 46/68/3 42/37/3 11/16/3
f 4/1/3 41/35/3 44/69/3 8/24/3
f 7/23/4 43/70/4 26/35/4 20/1/4
f 28/37/4 45/71/4 14/20/4 17/16/4
f 24/75/9 33/74/9 31/73/9 2/72/9
f 9/77/9 29/76/9 35/79/9 21/78/9
f 12/80/10 22/83/10 36/82/10 48/81/10
f 47/84/10 34/87/10 23/86/10 3/85/10
f 28/37/4 27/36/4 25/34/4 26/35/4
f 32/35/3 31/39/3 29/38/3 30/37/3
f 52/91/7 51/90/7 49/88/7 50/89/7
f 40/53/7 39/50/7 37/48/7 38/49/7
f 30/59/8 42/56/8 41/54/8 32/55/8
f 46/56/8 45/61/8 43/60/8 44/54/8
f 39/65/3 48/38/3 47/39/3 37/64/3
f 38/67/4 25/34/4 27/36/4 40/66/4
f 44/69/3 41/35/3 42/37/3 46/68/3
f 45/71/4 28/37/4 26/35/4 43/70/4
f 51/95/9 54/94/9 53/92/9 49/93/9
f 50/99/10 56/98/10 55/96/10 52/97/10
f 50/102/2 49/103/2 33/101/2 34/100/2
f 52/105/1 55/106/1 48/3/1 36/104/1
f 51/108/1 52/105/1 36/104/1 35/107/1
f 49/103/2 53/109/2 31/9/2 33/101/2
f 53/112/11 54/113/11 29/111/11 31/110/11
f 54/114/1 51/108/1 35/107/1 29/2/1
f 55/117/12 56/118/12 47/116/12 48/115/12
f 56/119/2 50/102/2 34/100/2 47/10/2

