# ProBuilder 4.2.3
# https://unity3d.com/unity/features/worldbuilding/probuilder
# 22/02/2021 23:12:07

mtllib ./TableRound.mtl
o TableRound

g TableRound
v 0 0.76675 0
v 0 0.82325 0
v 0.227087 0.76675 0.8475
v 0.227087 0.82325 0.8475
v 0.8475001 0.76675 1.467913
v 0.8475001 0.82325 1.467913
v 1.695 0.76675 1.695
v 1.695 0.82325 1.695
v 2.5425 0.76675 1.467913
v 2.5425 0.82325 1.467913
v 3.162913 0.76675 0.8475001
v 3.162913 0.82325 0.8475001
v 3.39 0.76675 -1.481816E-07
v 3.39 0.82325 -1.481816E-07
v 3.162913 0.76675 -0.8474999
v 3.162913 0.82325 -0.8474999
v 2.5425 0.76675 -1.467913
v 2.5425 0.82325 -1.467913
v 1.695 0.76675 -1.695
v 1.695 0.82325 -1.695
v 0.8475001 0.76675 -1.467913
v 0.8475001 0.82325 -1.467913
v 0.2270871 0.76675 -0.8475003
v 0.2270871 0.82325 -0.8475003
v 1.695 0.76675 0
v 1.695 0.82325 0

vt 0 0
vt 0 0.05
vt 0.7764571 0
vt 0.7764571 0.05
vt 0.6724316 0
vt 0.6724316 0.05
vt 1.448889 0
vt 1.448889 0.05
vt 1.06066 0
vt 1.06066 0.05
vt 1.837117 0
vt 1.837117 0.05
vt -0.7764578 0
vt -0.7764578 0.05
vt -1.448888 0
vt -1.448888 0.05
vt -0.6724309 0
vt -0.6724309 0.05
vt -1.837118 0
vt -1.837118 0.05
vt -1.06066 0
vt -1.06066 0.05
vt 1.5 0
vt 0.2009619 0.75
vt -1.5 0
vt -0.2009619 0.75
vt 0.7500001 1.299038
vt -0.7500001 1.299038
vt 1.5 1.5
vt -1.5 1.5
vt 2.25 1.299038
vt -2.25 1.299038
vt 2.799038 0.7500001
vt -2.799038 0.7500001
vt 3 -1.311342E-07
vt -3 -1.311342E-07
vt 2.799038 -0.7499999
vt -2.799038 -0.7499999
vt 2.25 -1.299038
vt -2.25 -1.299038
vt 1.5 -1.5
vt -1.5 -1.5
vt 0.7500001 -1.299038
vt -0.7500001 -1.299038
vt 0.2009621 -0.7500002
vt -0.2009621 -0.7500002

vn -0.9659258 0 0.2588191
vn -0.7071068 0 0.7071067
vn -0.2588188 0 0.9659259
vn 0.258819 0 0.9659259
vn 0.7071068 0 0.7071068
vn 0.9659258 0 0.258819
vn 0.9659258 0 -0.2588192
vn 0.707107 0 -0.7071065
vn 0.2588188 0 -0.9659259
vn -0.258819 0 -0.9659259
vn -0.7071067 0 -0.7071069
vn -0.9659258 0 -0.2588192
vn 0 -1 0
vn 0 1 0

usemtl WoodGrid
f 1/1/13 25/23/13 3/24/13
f 3/24/13 25/23/13 5/27/13
f 5/27/13 25/23/13 7/29/13
f 7/29/13 25/23/13 9/31/13
f 9/31/13 25/23/13 11/33/13
f 11/33/13 25/23/13 13/35/13
f 13/35/13 25/23/13 15/37/13
f 15/37/13 25/23/13 17/39/13
f 17/39/13 25/23/13 19/41/13
f 19/41/13 25/23/13 21/43/13
f 21/43/13 25/23/13 23/45/13
f 23/45/13 25/23/13 1/1/13
f 4/26/14 26/25/14 2/1/14
f 6/28/14 26/25/14 4/26/14
f 8/30/14 26/25/14 6/28/14
f 10/32/14 26/25/14 8/30/14
f 12/34/14 26/25/14 10/32/14
f 14/36/14 26/25/14 12/34/14
f 16/38/14 26/25/14 14/36/14
f 18/40/14 26/25/14 16/38/14
f 20/42/14 26/25/14 18/40/14
f 22/44/14 26/25/14 20/42/14
f 24/46/14 26/25/14 22/44/14
f 2/1/14 26/25/14 24/46/14
f 4/4/1 2/2/1 1/1/1
f 1/1/1 3/3/1 4/4/1
f 6/8/2 4/6/2 3/5/2
f 3/5/2 5/7/2 6/8/2
f 8/12/3 6/10/3 5/9/3
f 5/9/3 7/11/3 8/12/3
f 10/12/4 8/10/4 7/9/4
f 7/9/4 9/11/4 10/12/4
f 12/8/5 10/6/5 9/5/5
f 9/5/5 11/7/5 12/8/5
f 14/4/6 12/2/6 11/1/6
f 11/1/6 13/3/6 14/4/6
f 16/2/7 14/14/7 13/13/7
f 13/13/7 15/1/7 16/2/7
f 18/18/8 16/16/8 15/15/8
f 15/15/8 17/17/8 18/18/8
f 20/22/9 18/20/9 17/19/9
f 17/19/9 19/21/9 20/22/9
f 22/22/10 20/20/10 19/19/10
f 19/19/10 21/21/10 22/22/10
f 24/18/11 22/16/11 21/15/11
f 21/15/11 23/17/11 24/18/11
f 2/2/12 24/14/12 23/13/12
f 23/13/12 1/1/12 2/2/12

