# ProBuilder 4.2.3
# https://unity3d.com/unity/features/worldbuilding/probuilder
# 22/02/2021 10:24:18

mtllib ./Leg.mtl
o Leg

g Leg
v 0 0 0
v -0.1 0 0
v 0 0.8 0
v -0.1 0.8 0
v -0.1 0 -0.1
v -0.1 0.8 -0.1
v 0 0 -0.1
v 0 0.8 -0.1

vt 0 0
vt -1 0
vt 0 1
vt -1 1
vt 1 0
vt 1 1
vt 0 -1
vt 1 -1
vt -1 -1

vn 0 0 0.1
vn -0.1 0 0
vn 0 0 -0.1
vn 0.1 0 0
vn 0 0.8 0
vn 0 -0.8 0

usemtl WoodGrid
f 3/3/1 4/4/1 2/2/1 1/1/1
f 4/3/2 6/4/2 5/2/2 2/1/2
f 6/6/3 8/3/3 7/1/3 5/5/3
f 8/6/4 3/3/4 1/1/4 7/5/4
f 8/7/5 6/8/5 4/5/5 3/1/5
f 1/1/6 2/2/6 5/9/6 7/7/6

g Leg (1)
v -1.65 0 0
v -1.75 0 0
v -1.65 0.8 0
v -1.75 0.8 0
v -1.75 0 -0.1
v -1.75 0.8 -0.1
v -1.65 0 -0.1
v -1.65 0.8 -0.1

vt 0 0
vt -1 0
vt 0 1
vt -1 1
vt 1 0
vt 1 1
vt 0 -1
vt 1 -1
vt -1 -1

vn 0 0 0.1
vn -0.1 0 0
vn 0 0 -0.1
vn 0.1 0 0
vn 0 0.8 0
vn 0 -0.8 0

usemtl WoodGrid
f 11/12/7 12/13/7 10/11/7 9/10/7
f 12/12/8 14/13/8 13/11/8 10/10/8
f 14/15/9 16/12/9 15/10/9 13/14/9
f 16/15/10 11/12/10 9/10/10 15/14/10
f 16/16/11 14/17/11 12/14/11 11/10/11
f 9/10/12 10/11/12 13/18/12 15/16/12

g Leg (2)
v 0 0 -0.9
v -0.1 0 -0.9
v 0 0.8 -0.9
v -0.1 0.8 -0.9
v -0.1 0 -1
v -0.1 0.8 -1
v 0 0 -1
v 0 0.8 -1

vt 0 0
vt -1 0
vt 0 1
vt -1 1
vt 1 0
vt 1 1
vt 0 -1
vt 1 -1
vt -1 -1

vn 0 0 0.1
vn -0.1 0 0
vn 0 0 -0.1
vn 0.1 0 0
vn 0 0.8 0
vn 0 -0.8 0

usemtl WoodGrid
f 19/21/13 20/22/13 18/20/13 17/19/13
f 20/21/14 22/22/14 21/20/14 18/19/14
f 22/24/15 24/21/15 23/19/15 21/23/15
f 24/24/16 19/21/16 17/19/16 23/23/16
f 24/25/17 22/26/17 20/23/17 19/19/17
f 17/19/18 18/20/18 21/27/18 23/25/18

g Leg (3)
v -1.65 0 -0.9
v -1.75 0 -0.9
v -1.65 0.8 -0.9
v -1.75 0.8 -0.9
v -1.75 0 -1
v -1.75 0.8 -1
v -1.65 0 -1
v -1.65 0.8 -1

vt 0 0
vt -1 0
vt 0 1
vt -1 1
vt 1 0
vt 1 1
vt 0 -1
vt 1 -1
vt -1 -1

vn 0 0 0.1
vn -0.1 0 0
vn 0 0 -0.1
vn 0.1 0 0
vn 0 0.8 0
vn 0 -0.8 0

usemtl WoodGrid
f 27/30/19 28/31/19 26/29/19 25/28/19
f 28/30/20 30/31/20 29/29/20 26/28/20
f 30/33/21 32/30/21 31/28/21 29/32/21
f 32/33/22 27/30/22 25/28/22 31/32/22
f 32/34/23 30/35/23 28/32/23 27/28/23
f 25/28/24 26/29/24 29/36/24 31/34/24

g WorkbenchTop
v 0 0.8 0
v -1.75 0.8 0
v 0 0.875 0
v -1.75 0.875 0
v -1.75 0.8 -1
v -1.75 0.875 -1
v 0 0.8 -1
v 0 0.875 -1

vt 0 0
vt -1.75 0
vt 0 0.075
vt -1.75 0.075
vt -1 0
vt -1 0.075
vt 1.75 0
vt 1.75 0.075
vt 1 0
vt 1 0.075
vt 0 -1
vt 1.75 -1
vt -1.75 -1

vn 0 0 1
vn -1 0 0
vn 0 0 -1
vn 1 0 0
vn 0 1 0
vn 0 -1 0

usemtl WoodGrid
f 35/39/25 36/40/25 34/38/25 33/37/25
f 36/39/26 38/42/26 37/41/26 34/37/26
f 38/44/27 40/39/27 39/37/27 37/43/27
f 40/46/28 35/39/28 33/37/28 39/45/28
f 40/47/29 38/48/29 36/43/29 35/37/29
f 33/37/30 34/38/30 37/49/30 39/47/30

g WorkbenchShelf
v 0 1.075 -0.85
v -1.75 1.075 -0.85
v 0 1.105 -0.85
v -1.75 1.105 -0.85
v -1.75 1.075 -1
v -1.75 1.105 -1
v 0 1.075 -1
v 0 1.105 -1

vt 0 0
vt -1.75 0
vt 0 0.03
vt -1.75 0.03
vt -0.15 0
vt -0.15 0.03
vt 1.75 0
vt 1.75 0.03
vt 0.15 0
vt 0.15 0.03
vt 0 -0.15
vt 1.75 -0.15
vt -1.75 -0.15

vn 0 0 1
vn -1 0 0
vn 0 0 -1
vn 1 0 0
vn 0 1 0
vn 0 -1 0

usemtl WoodGrid
f 43/52/31 44/53/31 42/51/31 41/50/31
f 44/52/32 46/55/32 45/54/32 42/50/32
f 46/57/33 48/52/33 47/50/33 45/56/33
f 48/59/34 43/52/34 41/50/34 47/58/34
f 48/60/35 46/61/35 44/56/35 43/50/35
f 41/50/36 42/51/36 45/62/36 47/60/36

g ShelfLeg
v -0.043 0.875 -0.895
v -0.093 0.875 -0.895
v -0.043 1.075 -0.895
v -0.093 1.075 -0.895
v -0.093 0.875 -0.945
v -0.093 1.075 -0.945
v -0.043 0.875 -0.945
v -0.043 1.075 -0.945

vt 0 0
vt -0.05 0
vt 0 0.2
vt -0.05 0.2
vt 0.05 0
vt 0.05 0.2
vt 0 -0.05
vt 0.05 -0.05
vt -0.05 -0.05

vn 0 0 1
vn -1 0 0
vn 0 0 -1
vn 1 0 0
vn 0 1 0
vn 0 -1 0

usemtl WoodGrid
f 51/65/37 52/66/37 50/64/37 49/63/37
f 52/65/38 54/66/38 53/64/38 50/63/38
f 54/68/39 56/65/39 55/63/39 53/67/39
f 56/68/40 51/65/40 49/63/40 55/67/40
f 56/69/41 54/70/41 52/67/41 51/63/41
f 49/63/42 50/64/42 53/71/42 55/69/42

g ShelfLeg (1)
v -1.659 0.875 -0.895
v -1.709 0.875 -0.895
v -1.659 1.075 -0.895
v -1.709 1.075 -0.895
v -1.709 0.875 -0.945
v -1.709 1.075 -0.945
v -1.659 0.875 -0.945
v -1.659 1.075 -0.945

vt 0 0
vt -0.05 0
vt 0 0.2
vt -0.05 0.2
vt 0.05 0
vt 0.05 0.2
vt 0 -0.05
vt 0.05 -0.05
vt -0.05 -0.05

vn 0 0 1
vn -1 0 0
vn 0 0 -1
vn 1 0 0
vn 0 1 0
vn 0 -1 0

usemtl WoodGrid
f 59/74/43 60/75/43 58/73/43 57/72/43
f 60/74/44 62/75/44 61/73/44 58/72/44
f 62/77/45 64/74/45 63/72/45 61/76/45
f 64/77/46 59/74/46 57/72/46 63/76/46
f 64/78/47 62/79/47 60/76/47 59/72/47
f 57/72/48 58/73/48 61/80/48 63/78/48

g ShelfLeg (2)
v -0.852 0.875 -0.895
v -0.902 0.875 -0.895
v -0.852 1.075 -0.895
v -0.902 1.075 -0.895
v -0.902 0.875 -0.945
v -0.902 1.075 -0.945
v -0.852 0.875 -0.945
v -0.852 1.075 -0.945

vt 0 0
vt -0.05 0
vt 0 0.2
vt -0.05 0.2
vt 0.05 0
vt 0.05 0.2
vt 0 -0.05
vt 0.05 -0.05
vt -0.05 -0.05

vn 0 0 1
vn -1 0 0
vn 0 0 -1
vn 1 0 0
vn 0 1 0
vn 0 -1 0

usemtl WoodGrid
f 67/83/49 68/84/49 66/82/49 65/81/49
f 68/83/50 70/84/50 69/82/50 66/81/50
f 70/86/51 72/83/51 71/81/51 69/85/51
f 72/86/52 67/83/52 65/81/52 71/85/52
f 72/87/53 70/88/53 68/85/53 67/81/53
f 65/81/54 66/82/54 69/89/54 71/87/54

