# ProBuilder 4.2.3
# https://unity3d.com/unity/features/worldbuilding/probuilder
# 22/02/2021 10:27:06

mtllib ./GroundPlane.mtl
o GroundPlane

g GroundPlane
v 6 0 -6
v 6 0 -3
v 3 0 -6
v 3 0 -3
v 6 0 0
v 3 0 0
v 6 0 3
v 3 0 3
v 6 0 6
v 3 0 6
v 0 0 -6
v 0 0 -3
v 0 0 0
v 0 0 3
v 0 0 6
v -3 0 -6
v -3 0 -3
v -3 0 0
v -3 0 3
v -3 0 6
v -6 0 -6
v -6 0 -3
v -6 0 0
v -6 0 3
v -6 0 6

vt -6 -6
vt -6 -3
vt -3 -6
vt -3 -3
vt -6 0
vt -3 0
vt -6 3
vt -3 3
vt -6 6
vt -3 6
vt 0 -6
vt 0 -3
vt 0 0
vt 0 3
vt 0 6
vt 3 -6
vt 3 -3
vt 3 0
vt 3 3
vt 3 6
vt 6 -6
vt 6 -3
vt 6 0
vt 6 3
vt 6 6

vn 0 1 0

usemtl StoneFloorGrid
f 3/3/1 4/4/1 2/2/1 1/1/1
f 4/4/1 6/6/1 5/5/1 2/2/1
f 6/6/1 8/8/1 7/7/1 5/5/1
f 8/8/1 10/10/1 9/9/1 7/7/1
f 11/11/1 12/12/1 4/4/1 3/3/1
f 12/12/1 13/13/1 6/6/1 4/4/1
f 13/13/1 14/14/1 8/8/1 6/6/1
f 14/14/1 15/15/1 10/10/1 8/8/1
f 16/16/1 17/17/1 12/12/1 11/11/1
f 17/17/1 18/18/1 13/13/1 12/12/1
f 18/18/1 19/19/1 14/14/1 13/13/1
f 19/19/1 20/20/1 15/15/1 14/14/1
f 21/21/1 22/22/1 17/17/1 16/16/1
f 22/22/1 23/23/1 18/18/1 17/17/1
f 23/23/1 24/24/1 19/19/1 18/18/1
f 24/24/1 25/25/1 20/20/1 19/19/1

