# ProBuilder 4.2.3
# https://unity3d.com/unity/features/worldbuilding/probuilder
# 22/02/2021 10:28:42

mtllib ./WallArchTall.mtl
o WallArchTall

g ArchTop
v -1.613643 1.86957 0
v -1.490811 2.527107 0
v -1.613643 1.86957 0.4580334
v -1.490811 2.527107 0.4580334
v -1.086022 2.348571 0
v -1.175501 1.86957 0
v -1.086022 2.348571 0.4580334
v -1.175501 1.86957 0.4580334
v -1.141018 3.084541 0
v -1.141018 3.084541 0.4580334
v -0.831205 2.754648 0
v -0.831205 2.754648 0.4580334
v -0.6175144 3.457006 0
v -0.6175144 3.457006 0.4580334
v -0.4498451 3.02598 0
v -0.4498451 3.02598 0.4580334
v 0 3.587799 0
v 0 3.587799 0.4580334
v -1.341105E-07 3.12126 0
v -1.341105E-07 3.12126 0.4580334
v 0.6175141 3.457006 0
v 0.6175141 3.457006 0.4580334
v 0.4498447 3.02598 0
v 0.4498447 3.02598 0.4580334
v 1.141017 3.084541 0
v 1.141017 3.084541 0.4580334
v 0.8312048 2.754648 0
v 0.8312048 2.754648 0.4580334
v 1.490811 2.527108 0
v 1.490811 2.527108 0.4580334
v 1.086021 2.348571 0
v 1.086021 2.348571 0.4580334
v 1.613642 1.86957 0
v 1.613642 1.86957 0.4580334
v 1.175501 1.86957 0
v 1.175501 1.86957 0.4580334

vt 0 0
vt 0 0.5891728
vt 0.31 0
vt 0.31 0.5891728
vt 0 0.5091859
vt 0 0.07998711
vt -0.31 0.5091859
vt -0.31 0.07998711
vt 0 0.31
vt 0.41 0.31
vt 0.41 0
vt 0 0.5443248
vt 0 1.133497
vt 0.31 0.5443248
vt 0.31 1.133497
vt 0 1.05351
vt 0 0.6243117
vt -0.31 1.05351
vt -0.31 0.6243117
vt -0.9609326 0
vt -1.550105 0
vt -0.9609326 0.31
vt -1.550105 0.31
vt 1.470118 0
vt 1.04092 0
vt 1.470118 0.31
vt 1.04092 0.31
vt -1.186399 0
vt -1.775572 0
vt -1.186399 0.31
vt -1.775572 0.31
vt 1.695585 0
vt 1.266386 0
vt 1.695585 0.31
vt 1.266386 0.31
vt 0 -0.5443245
vt 0 -1.133497
vt -0.31 -0.5443245
vt -0.31 -1.133497
vt 0 -1.053511
vt 0 -0.6243119
vt 0.31 -1.053511
vt 0.31 -0.6243119
vt 0 -0.5891736
vt -0.31 -5.491096E-07
vt -0.31 -0.5891736
vt 0 -0.5091862
vt 0 -0.07998733
vt 0.31 -0.5091862
vt 0.31 -0.07998733
vt 2.61 0.31
vt 3.02 0.31
vt 2.61 0
vt 3.02 0
vt 0.114942 0.577852
vt 0.4937326 0.4209518
vt -0.114942 0.577852
vt -0.4937326 0.4209518
vt -0.41 0
vt 0.4422687 1.067731
vt 0.7321825 0.7778175
vt -0.4422687 1.067731
vt -0.7321825 0.7778175
vt 0.932148 1.395058
vt 1.089048 1.016267
vt -0.932148 1.395058
vt -1.089048 1.016267
vt 1.51 1.51
vt 1.51 1.1
vt -1.51 1.51
vt -1.51 1.1
vt 2.087852 1.395058
vt 1.930952 1.016268
vt -2.087852 1.395058
vt -1.930952 1.016268
vt 2.577731 1.067731
vt 2.287817 0.7778175
vt -2.577731 1.067731
vt -2.287817 0.7778175
vt 2.905058 0.5778521
vt 2.526268 0.4209518
vt -2.905058 0.5778521
vt -2.526268 0.4209518
vt -3.02 -1.320084E-07
vt -2.61 -9.616505E-08

vn -0.9829957 0.1836283 0
vn 0.9829957 -0.1836286 0
vn 0 -1 0
vn -0.8470424 0.5315253 0
vn 0.8470423 -0.5315255 0
vn -0.5797265 0.8148112 0
vn 0.579727 -0.8148108 0
vn -0.2072078 0.9782969 0
vn 0.2072078 -0.9782969 0
vn 0.2072075 0.978297 0
vn -0.2072078 -0.9782969 0
vn 0.5797269 0.8148109 0
vn -0.5797269 -0.8148109 0
vn 0.8470424 0.5315253 0
vn -0.8470423 -0.5315255 0
vn 0.9829957 0.1836288 0
vn -0.9829957 -0.1836285 0
vn 0 0 1
vn 0 0 -1

usemtl StoneArchGrid
f 3/3/1 4/4/1 2/2/1 1/1/1
f 7/7/2 8/8/2 6/6/2 5/5/2
f 1/1/3 6/11/3 8/10/3 3/9/3
f 4/14/4 10/15/4 9/13/4 2/12/4
f 12/18/5 7/19/5 5/17/5 11/16/5
f 10/22/6 14/23/6 13/21/6 9/20/6
f 16/26/7 12/27/7 11/25/7 15/24/7
f 14/30/8 18/31/8 17/29/8 13/28/8
f 20/34/9 16/35/9 15/33/9 19/32/9
f 18/30/10 22/31/10 21/29/10 17/28/10
f 24/34/11 20/35/11 19/33/11 23/32/11
f 22/22/12 26/23/12 25/21/12 21/20/12
f 28/26/13 24/27/13 23/25/13 27/24/13
f 26/38/14 30/39/14 29/37/14 25/36/14
f 32/42/15 28/43/15 27/41/15 31/40/15
f 30/45/16 34/46/16 33/44/16 29/1/16
f 36/49/17 32/50/17 31/48/17 35/47/17
f 35/53/3 33/54/3 34/52/3 36/51/3
f 8/11/18 7/56/18 4/55/18 3/1/18
f 5/58/19 6/59/19 1/1/19 2/57/19
f 7/56/18 12/61/18 10/60/18 4/55/18
f 11/63/19 5/58/19 2/57/19 9/62/19
f 12/61/18 16/65/18 14/64/18 10/60/18
f 15/67/19 11/63/19 9/62/19 13/66/19
f 16/65/18 20/69/18 18/68/18 14/64/18
f 19/71/19 15/67/19 13/66/19 17/70/19
f 20/69/18 24/73/18 22/72/18 18/68/18
f 23/75/19 19/71/19 17/70/19 21/74/19
f 24/73/18 28/77/18 26/76/18 22/72/18
f 27/79/19 23/75/19 21/74/19 25/78/19
f 28/77/18 32/81/18 30/80/18 26/76/18
f 31/83/19 27/79/19 25/78/19 29/82/19
f 32/81/18 36/53/18 34/54/18 30/80/18
f 35/85/19 31/83/19 29/82/19 33/84/19

g ArchSideL
v -1.174893 -0.00796513 0.4546055
v -1.613643 -0.00796513 0.4546055
v -1.174893 1.86957 0.4546055
v -1.613643 1.86957 0.4546055
v -1.613643 -0.00796513 0
v -1.613643 1.86957 0
v -1.174893 -0.00796513 0
v -1.174893 1.86957 0

vt 0 0
vt -0.39 0
vt 0 1.65
vt -0.39 1.65
vt -0.3 0
vt -0.3 1.65
vt 0.39 0
vt 0.39 1.65
vt 0.3 0
vt 0.3 1.65
vt 0 -0.3
vt 0.39 -0.3
vt -0.39 -0.3

vn 0 0 1
vn -1 0 0
vn 0 0 -1
vn 1 0 0
vn 0 1 0
vn 0 -1 0

usemtl StoneArchGrid
f 39/88/20 40/89/20 38/87/20 37/86/20
f 40/88/21 42/91/21 41/90/21 38/86/21
f 42/93/22 44/88/22 43/86/22 41/92/22
f 44/95/23 39/88/23 37/86/23 43/94/23
f 44/96/24 42/97/24 40/92/24 39/86/24
f 37/86/25 38/87/25 41/98/25 43/96/25

g ArchSideR
v 1.614251 -0.00796513 0.4546058
v 1.175501 -0.00796513 0.4546058
v 1.614251 1.86957 0.4546058
v 1.175501 1.86957 0.4546058
v 1.175501 -0.00796513 2.70966E-07
v 1.175501 1.86957 2.70966E-07
v 1.614251 -0.00796513 2.70966E-07
v 1.614251 1.86957 2.70966E-07

vt 0 0
vt -0.39 0
vt 0 1.65
vt -0.39 1.65
vt -0.3 0
vt -0.3 1.65
vt 0.39 0
vt 0.39 1.65
vt 0.3 0
vt 0.3 1.65
vt 0 -0.3
vt 0.39 -0.3
vt -0.39 -0.3

vn 0 0 1
vn -1 0 0
vn 0 0 -1
vn 1 0 0
vn 0 1 0
vn 0 -1 0

usemtl StoneArchGrid
f 47/101/26 48/102/26 46/100/26 45/99/26
f 48/101/27 50/104/27 49/103/27 46/99/27
f 50/106/28 52/101/28 51/99/28 49/105/28
f 52/108/29 47/101/29 45/99/29 51/107/29
f 52/109/30 50/110/30 48/105/30 47/99/30
f 45/99/31 46/100/31 49/111/31 51/109/31

