# ProBuilder 4.2.3
# https://unity3d.com/unity/features/worldbuilding/probuilder
# 22/02/2021 10:27:44

mtllib ./Wall4mDoorway.mtl
o Wall4mDoorway

g Wall4mDoorway
v 0 0 0
v -1 0 0
v 0 3 0
v -1 3 0
v -3 0 0
v -4 0 0
v -3 3 0
v -4 3 0
v 0 4 0
v -1 4 0
v -3 4 0
v -4 4 0
v -1 0 -0.2
v 0 0 -0.2
v -1 3 -0.2
v 0 3 -0.2
v -4 0 -0.2
v -3 0 -0.2
v -4 3 -0.2
v -3 3 -0.2
v -1 4 -0.2
v 0 4 -0.2
v -4 4 -0.2
v -3 4 -0.2

vt 0 0
vt -1 0
vt 0 3
vt -1 3
vt -3 0
vt -4 0
vt -3 3
vt -4 3
vt 0 4
vt -1 4
vt -3 4
vt -4 4
vt 1 0
vt 1 3
vt 4 0
vt 3 0
vt 4 3
vt 3 3
vt 1 4
vt 4 4
vt 3 4
vt -3 -0.2
vt -1 -0.2
vt 0.2 0
vt 0.2 3
vt -0.2 0
vt -0.2 3

vn 0 0 1
vn 0 0 -1
vn 0 -1 0
vn 1 0 0
vn -1 0 0

usemtl StoneWallGrid
f 3/3/1 4/4/1 2/2/1 1/1/1
f 7/7/1 8/8/1 6/6/1 5/5/1
f 9/9/1 10/10/1 4/4/1 3/3/1
f 11/11/1 12/12/1 8/8/1 7/7/1
f 10/10/1 11/11/1 7/7/1 4/4/1
f 15/14/2 16/3/2 14/1/2 13/13/2
f 19/17/2 20/18/2 18/16/2 17/15/2
f 21/19/2 22/9/2 16/3/2 15/14/2
f 23/20/2 24/21/2 20/18/2 19/17/2
f 24/21/2 21/19/2 15/14/2 20/18/2
f 20/22/3 15/23/3 4/2/3 7/5/3
f 20/25/4 7/3/4 5/1/4 18/24/4
f 4/3/5 15/27/5 13/26/5 2/1/5

g Wall4mSingle
v 0 4 0
v -4 4 0
v 0 8 0
v -4 8 0
v -4 4 -0.2
v -4 8 -0.2
v 0 4 -0.2
v 0 8 -0.2

vt 0 0
vt -4 0
vt 0 4
vt -4 4
vt -0.2 0
vt -0.2 4
vt 4 0
vt 4 4
vt 0.2 0
vt 0.2 4
vt 0 -0.2
vt 4 -0.2
vt -4 -0.2

vn 0 0 1
vn -1 0 0
vn 0 0 -1
vn 1 0 0
vn 0 1 0
vn 0 -1 0

usemtl StoneWallGrid
f 27/30/6 28/31/6 26/29/6 25/28/6
f 28/30/7 30/33/7 29/32/7 26/28/7
f 30/35/8 32/30/8 31/28/8 29/34/8
f 32/37/9 27/30/9 25/28/9 31/36/9
f 32/38/10 30/39/10 28/34/10 27/28/10
f 25/28/11 26/29/11 29/40/11 31/38/11

