# ProBuilder 4.2.3
# https://unity3d.com/unity/features/worldbuilding/probuilder
# 22/02/2021 10:29:02

mtllib ./WallPillar.mtl
o WallPillar

g WallPillar
v 0.5 0 0.5
v -0.5 0 0.5
v 0.5 4 0.5
v -0.5 4 0.5
v -0.5 0 -0.5
v -0.5 4 -0.5
v 0.5 0 -0.5
v 0.5 4 -0.5

vt 0 0
vt -1 0
vt 0 4
vt -1 4
vt 1 0
vt 1 4
vt 0 -1
vt 1 -1
vt -1 -1

vn 0 0 1
vn -1 0 0
vn 0 0 -1
vn 1 0 0
vn 0 1 0
vn 0 -1 0

usemtl StoneArchGrid
f 3/3/1 4/4/1 2/2/1 1/1/1
f 4/3/2 6/4/2 5/2/2 2/1/2
f 6/6/3 8/3/3 7/1/3 5/5/3
f 8/6/4 3/3/4 1/1/4 7/5/4
f 8/7/5 6/8/5 4/5/5 3/1/5
f 1/1/6 2/2/6 5/9/6 7/7/6

g WallPillar
v 0.5 4 0.5
v -0.5 4 0.5
v 0.5 8 0.5
v -0.5 8 0.5
v -0.5 4 -0.5
v -0.5 8 -0.5
v 0.5 4 -0.5
v 0.5 8 -0.5

vt 0 0
vt -1 0
vt 0 4
vt -1 4
vt 1 0
vt 1 4
vt 0 -1
vt 1 -1
vt -1 -1

vn 0 0 1
vn -1 0 0
vn 0 0 -1
vn 1 0 0
vn 0 1 0
vn 0 -1 0

usemtl StoneArchGrid
f 11/12/7 12/13/7 10/11/7 9/10/7
f 12/12/8 14/13/8 13/11/8 10/10/8
f 14/15/9 16/12/9 15/10/9 13/14/9
f 16/15/10 11/12/10 9/10/10 15/14/10
f 16/16/11 14/17/11 12/14/11 11/10/11
f 9/10/12 10/11/12 13/18/12 15/16/12

