# ProBuilder 4.2.3
# https://unity3d.com/unity/features/worldbuilding/probuilder
# 22/02/2021 10:29:19

mtllib ./AnvilStoneBase.mtl
o AnvilStoneBase

g StoneBase
v 0.999998 0 -0.7
v -2.026558E-06 0 -0.7
v 0.999998 0.5 -0.7
v -2.026558E-06 0.5 -0.7
v -2.026558E-06 0 -1.95
v -2.026558E-06 0.5 -1.95
v 0.999998 0 -1.95
v 0.999998 0.5 -1.95

vt 0 0
vt -1 0
vt 0 0.5
vt -1 0.5
vt -1.25 0
vt -1.25 0.5
vt 1 0
vt 1 0.5
vt 1.25 0
vt 1.25 0.5
vt 0 -1.25
vt 1 -1.25
vt -1 -1.25

vn 0 0 1
vn -1 0 0
vn 0 0 -1
vn 1 0 0
vn 0 1 0
vn 0 -1 0

usemtl StoneArchGrid
f 3/3/1 4/4/1 2/2/1 1/1/1
f 4/3/2 6/6/2 5/5/2 2/1/2
f 6/8/3 8/3/3 7/1/3 5/7/3
f 8/10/4 3/3/4 1/1/4 7/9/4
f 8/11/5 6/12/5 4/7/5 3/1/5
f 1/1/6 2/2/6 5/13/6 7/11/6

g StoneStairs
v -1.037121E-05 0 -2.65
v 0.9999896 0 -2.650012
v -1.037121E-05 0.125 -2.65
v 0.9999896 0.125 -2.650012
v -8.285046E-06 0.125 -2.475
v 0.9999917 0.125 -2.475012
v -8.285046E-06 0.25 -2.475
v 0.9999917 0.25 -2.475012
v -6.198883E-06 0.25 -2.3
v 0.9999938 0.25 -2.300012
v -6.198883E-06 0.375 -2.3
v 0.9999938 0.375 -2.300012
v -4.11272E-06 0.375 -2.125
v 0.9999958 0.375 -2.125012
v -4.11272E-06 0.5 -2.125
v 0.9999958 0.5 -2.125012
v -2.026558E-06 0.5 -1.95
v 0.999998 0.5 -1.950012
v 0.9999917 0 -2.475012
v 0.9999938 0 -2.300012
v 0.9999958 0 -2.125012
v 0.999998 0 -1.950012
v -8.285046E-06 0 -2.475
v -6.198883E-06 0 -2.3
v -4.11272E-06 0 -2.125
v -2.026558E-06 0 -1.95

vt 0 0
vt -1 0
vt 0 0.125
vt -1 0.125
vt 0 0.175
vt -1 0.175
vt 0 0.25
vt -1 0.25
vt 0 0.35
vt -1 0.35
vt 0 0.375
vt -1 0.375
vt 0 0.525
vt -1 0.525
vt 0 0.5
vt -1 0.5
vt 0 0.7
vt -1 0.7
vt -0.175 0
vt -0.175 0.125
vt -0.35 0
vt -0.35 0.25
vt -0.175 0.25
vt -0.525 0
vt -0.525 0.375
vt -0.35 0.375
vt -0.7 0
vt -0.7 0.5
vt -0.525 0.5
vt 0.175 0
vt 0.175 0.125
vt 0.35 0
vt 0.35 0.25
vt 0.175 0.25
vt 0.525 0
vt 0.525 0.375
vt 0.35 0.375
vt 0.7 0
vt 0.7 0.5
vt 0.525 0.5
vt 1 0
vt 1 0.5

vn -1.192093E-05 0 -1
vn 0 1 0
vn 1 0 -1.158033E-05
vn -1 0 1.192093E-05
vn 1.192093E-05 0 1

usemtl StoneArchGrid
f 14/33/9 16/36/9 18/35/9
f 18/35/9 20/39/9 22/38/9
f 22/38/9 24/42/9 26/41/9
f 17/46/10 15/47/10 13/44/10
f 21/49/10 19/50/10 17/46/10
f 25/52/10 23/53/10 21/49/10
f 12/17/7 10/15/7 9/14/7
f 9/14/7 11/16/7 12/17/7
f 14/19/8 12/15/8 11/14/8
f 11/14/8 13/18/8 14/19/8
f 16/21/7 14/17/7 13/16/7
f 13/16/7 15/20/7 16/21/7
f 18/23/8 16/19/8 15/18/8
f 15/18/8 17/22/8 18/23/8
f 20/25/7 18/21/7 17/20/7
f 17/20/7 19/24/7 20/25/7
f 22/27/8 20/23/8 19/22/8
f 19/22/8 21/26/8 22/27/8
f 24/29/7 22/25/7 21/24/7
f 21/24/7 23/28/7 24/29/7
f 26/31/8 24/27/8 23/26/8
f 23/26/8 25/30/8 26/31/8
f 14/33/9 27/32/9 10/14/9
f 10/14/9 12/16/9 14/33/9
f 18/35/9 28/34/9 27/32/9
f 27/32/9 14/33/9 18/35/9
f 22/38/9 29/37/9 28/34/9
f 28/34/9 18/35/9 22/38/9
f 26/41/9 30/40/9 29/37/9
f 29/37/9 22/38/9 26/41/9
f 11/16/10 9/14/10 31/43/10
f 31/43/10 13/44/10 11/16/10
f 13/44/10 31/43/10 32/45/10
f 32/45/10 17/46/10 13/44/10
f 17/46/10 32/45/10 33/48/10
f 33/48/10 21/49/10 17/46/10
f 21/49/10 33/48/10 34/51/10
f 34/51/10 25/52/10 21/49/10
f 25/28/11 34/14/11 30/54/11
f 30/54/11 26/55/11 25/28/11

g StoneBase2
v 0 0 0
v -2.026558E-06 0 -0.7
v 0 0.5 0
v -2.026558E-06 0.5 -0.7
v 1.399998 0 -0.700004
v 1.399998 0.5 -0.700004
v 1.4 0 -4.053116E-06
v 1.4 0.5 -4.053116E-06

vt 0 0
vt -0.7 0
vt 0 0.5
vt -0.7 0.5
vt -1.4 0
vt -1.4 0.5
vt 0.7 0
vt 0.7 0.5
vt 1.4 0
vt 1.4 0.5
vt 0 -1.4
vt 0.7 -1.4
vt -0.7 -1.4

vn -1 0 2.895083E-06
vn -2.809933E-06 0 -1
vn 1 0 -2.724784E-06
vn 2.895083E-06 0 1
vn 0 1 0
vn 0 -1 0

usemtl StoneArchGrid
f 37/58/12 38/59/12 36/57/12 35/56/12
f 38/58/13 40/61/13 39/60/13 36/56/13
f 40/63/14 42/58/14 41/56/14 39/62/14
f 42/65/15 37/58/15 35/56/15 41/64/15
f 42/66/16 40/67/16 38/62/16 37/56/16
f 35/56/17 36/57/17 39/68/17 41/66/17

