# ProBuilder 4.2.3
# https://unity3d.com/unity/features/worldbuilding/probuilder
# 22/02/2021 10:29:33

mtllib ./BathPlatformStairs.mtl
o BathPlatformStairs

g BathroomTopPlatform
v -2.829095 0 5.9
v -5.829095 0 5.9
v -2.829095 1 5.9
v -5.829095 1 5.9
v -5.829095 0 -5.71
v -5.829095 1 -5.71
v -2.829095 0 -5.71
v -2.829095 1 -5.71

vt 0 0
vt -3 0
vt 0 1
vt -3 1
vt -11.61 0
vt -11.61 1
vt 3 0
vt 3 1
vt 11.61 0
vt 11.61 1
vt 0 -11.61
vt 3 -11.61
vt -3 -11.61

vn 0 0 1
vn -1 0 0
vn 0 0 -1
vn 1 0 0
vn 0 1 0
vn 0 -1 0

usemtl StoneArchGrid
f 3/3/1 4/4/1 2/2/1 1/1/1
f 4/3/2 6/6/2 5/5/2 2/1/2
f 6/8/3 8/3/3 7/1/3 5/7/3
f 8/10/4 3/3/4 1/1/4 7/9/4
f 8/11/5 6/12/5 4/7/5 3/1/5
f 1/1/6 2/2/6 5/13/6 7/11/6

g BathBottomPlatform
v 1.170896 0 2.899968
v 0.1708956 0 2.899968
v 1.170896 0.75 2.899968
v 0.1708956 0.75 2.899968
v 0.1708956 0 -3.100032
v 0.1708956 0.75 -3.100032
v 1.170896 0 -3.100032
v 1.170896 0.75 -3.100032

vt 0 0
vt -1 0
vt 0 0.75
vt -1 0.75
vt -6 0
vt -6 0.75
vt 1 0
vt 1 0.75
vt 6 0
vt 6 0.75
vt 0 -6
vt 1 -6
vt -1 -6

vn 0 0 1
vn -1 0 0
vn 0 0 -1
vn 1 0 0
vn 0 1 0
vn 0 -1 0

usemtl StoneArchGrid
f 11/16/7 12/17/7 10/15/7 9/14/7
f 12/16/8 14/19/8 13/18/8 10/14/8
f 14/21/9 16/16/9 15/14/9 13/20/9
f 16/23/10 11/16/10 9/14/10 15/22/10
f 16/24/11 14/25/11 12/20/11 11/14/11
f 9/14/12 10/15/12 13/26/12 15/24/12

g StairsRight
v -1.469113 0 -5.800027
v -1.469105 0 -3.100027
v -1.469113 0.1428571 -5.800027
v -1.469105 0.1428571 -3.100027
v -1.663399 0.1428571 -5.800027
v -1.663391 0.1428571 -3.100027
v -1.663399 0.2857143 -5.800027
v -1.663391 0.2857143 -3.100027
v -1.857685 0.2857143 -5.800026
v -1.857677 0.2857143 -3.100026
v -1.857685 0.4285714 -5.800026
v -1.857677 0.4285714 -3.100026
v -2.05197 0.4285714 -5.800025
v -2.051963 0.4285714 -3.100026
v -2.05197 0.5714286 -5.800025
v -2.051963 0.5714286 -3.100026
v -2.246256 0.5714286 -5.800025
v -2.246248 0.5714286 -3.100025
v -2.246256 0.7142857 -5.800025
v -2.246248 0.7142857 -3.100025
v -2.440542 0.7142857 -5.800025
v -2.440534 0.7142857 -3.100024
v -2.440542 0.8571429 -5.800025
v -2.440534 0.8571429 -3.100024
v -2.634828 0.8571429 -5.800024
v -2.63482 0.8571429 -3.100024
v -2.634828 1 -5.800024
v -2.63482 1 -3.100024
v -2.829113 1 -5.800024
v -2.829105 1 -3.100023
v -1.663391 0 -3.100027
v -1.857677 0 -3.100026
v -2.051963 0 -3.100026
v -2.246248 0 -3.100025
v -2.440534 0 -3.100024
v -2.63482 0 -3.100024
v -2.829105 0 -3.100023
v -1.663399 0 -5.800027
v -1.857685 0 -5.800026
v -2.05197 0 -5.800025
v -2.246256 0 -5.800025
v -2.440542 0 -5.800025
v -2.634828 0 -5.800024
v -2.829113 0 -5.800024

vt 0 0
vt -2.7 0
vt 0 0.1428571
vt -2.7 0.1428571
vt 0 0.1942857
vt -2.7 0.1942857
vt 0 0.2857143
vt -2.7 0.2857143
vt 0 0.3885714
vt -2.7 0.3885714
vt 0 0.4285714
vt -2.7 0.4285714
vt 0 0.5828571
vt -2.7 0.5828571
vt 0 0.5714286
vt -2.7 0.5714286
vt 0 0.7771429
vt -2.7 0.7771429
vt 0 0.7142857
vt -2.7 0.7142857
vt 0 0.9714286
vt -2.7 0.9714286
vt 0 0.8571429
vt -2.7 0.8571429
vt 0 1.165714
vt -2.7 1.165714
vt 0 1
vt -2.7 1
vt 0 1.36
vt -2.7 1.36
vt -0.1942857 0
vt -0.1942857 0.1428571
vt -0.3885714 0
vt -0.3885714 0.2857143
vt -0.1942857 0.2857143
vt -0.5828571 0
vt -0.5828571 0.4285714
vt -0.3885714 0.4285714
vt -0.7771429 0
vt -0.7771429 0.5714286
vt -0.5828571 0.5714286
vt -0.9714286 0
vt -0.9714286 0.7142857
vt -0.7771429 0.7142857
vt -1.165714 0
vt -1.165714 0.8571429
vt -0.9714286 0.8571429
vt -1.36 0
vt -1.36 1
vt -1.165714 1
vt 0.1942857 0
vt 0.1942857 0.1428571
vt 0.3885714 0
vt 0.3885714 0.2857143
vt 0.1942857 0.2857143
vt 0.5828571 0
vt 0.5828571 0.4285714
vt 0.3885714 0.4285714
vt 0.7771429 0
vt 0.7771429 0.5714286
vt 0.5828571 0.5714286
vt 0.9714286 0
vt 0.9714286 0.7142857
vt 0.7771429 0.7142857
vt 1.165714 0
vt 1.165714 0.8571429
vt 0.9714286 0.8571429
vt 1.36 0
vt 1.36 1
vt 1.165714 1
vt 2.7 0
vt 2.7 1

vn 1 0 -2.920628E-06
vn 0 1 0
vn 2.920628E-06 0 1
vn -2.920628E-06 0 -1
vn -1 0 2.920628E-06

usemtl StoneArchGrid
f 22/58/15 24/61/15 26/60/15
f 26/60/15 28/64/15 30/63/15
f 30/63/15 32/67/15 34/66/15
f 34/66/15 36/70/15 38/69/15
f 38/69/15 40/73/15 42/72/15
f 42/72/15 44/76/15 46/75/15
f 25/80/16 23/81/16 21/78/16
f 29/83/16 27/84/16 25/80/16
f 33/86/16 31/87/16 29/83/16
f 37/89/16 35/90/16 33/86/16
f 41/92/16 39/93/16 37/89/16
f 45/95/16 43/96/16 41/92/16
f 20/30/13 18/28/13 17/27/13
f 17/27/13 19/29/13 20/30/13
f 22/32/14 20/28/14 19/27/14
f 19/27/14 21/31/14 22/32/14
f 24/34/13 22/30/13 21/29/13
f 21/29/13 23/33/13 24/34/13
f 26/36/14 24/32/14 23/31/14
f 23/31/14 25/35/14 26/36/14
f 28/38/13 26/34/13 25/33/13
f 25/33/13 27/37/13 28/38/13
f 30/40/14 28/36/14 27/35/14
f 27/35/14 29/39/14 30/40/14
f 32/42/13 30/38/13 29/37/13
f 29/37/13 31/41/13 32/42/13
f 34/44/14 32/40/14 31/39/14
f 31/39/14 33/43/14 34/44/14
f 36/46/13 34/42/13 33/41/13
f 33/41/13 35/45/13 36/46/13
f 38/48/14 36/44/14 35/43/14
f 35/43/14 37/47/14 38/48/14
f 40/50/13 38/46/13 37/45/13
f 37/45/13 39/49/13 40/50/13
f 42/52/14 40/48/14 39/47/14
f 39/47/14 41/51/14 42/52/14
f 44/54/13 42/50/13 41/49/13
f 41/49/13 43/53/13 44/54/13
f 46/56/14 44/52/14 43/51/14
f 43/51/14 45/55/14 46/56/14
f 22/58/15 47/57/15 18/27/15
f 18/27/15 20/29/15 22/58/15
f 26/60/15 48/59/15 47/57/15
f 47/57/15 22/58/15 26/60/15
f 30/63/15 49/62/15 48/59/15
f 48/59/15 26/60/15 30/63/15
f 34/66/15 50/65/15 49/62/15
f 49/62/15 30/63/15 34/66/15
f 38/69/15 51/68/15 50/65/15
f 50/65/15 34/66/15 38/69/15
f 42/72/15 52/71/15 51/68/15
f 51/68/15 38/69/15 42/72/15
f 46/75/15 53/74/15 52/71/15
f 52/71/15 42/72/15 46/75/15
f 19/29/16 17/27/16 54/77/16
f 54/77/16 21/78/16 19/29/16
f 21/78/16 54/77/16 55/79/16
f 55/79/16 25/80/16 21/78/16
f 25/80/16 55/79/16 56/82/16
f 56/82/16 29/83/16 25/80/16
f 29/83/16 56/82/16 57/85/16
f 57/85/16 33/86/16 29/83/16
f 33/86/16 57/85/16 58/88/16
f 58/88/16 37/89/16 33/86/16
f 37/89/16 58/88/16 59/91/16
f 59/91/16 41/92/16 37/89/16
f 41/92/16 59/91/16 60/94/16
f 60/94/16 45/95/16 41/92/16
f 45/53/17 60/27/17 53/97/17
f 53/97/17 46/98/17 45/53/17

g StairsLeft
v -1.469107 0 2.899996
v -1.469098 0 5.799996
v -1.469107 0.1428571 2.899996
v -1.469098 0.1428571 5.799996
v -1.663392 0.1428571 2.899996
v -1.663384 0.1428571 5.799996
v -1.663392 0.2857143 2.899996
v -1.663384 0.2857143 5.799996
v -1.857678 0.2857143 2.899997
v -1.85767 0.2857143 5.799997
v -1.857678 0.4285714 2.899997
v -1.85767 0.4285714 5.799997
v -2.051964 0.4285714 2.899997
v -2.051955 0.4285714 5.799998
v -2.051964 0.5714286 2.899997
v -2.051955 0.5714286 5.799998
v -2.24625 0.5714286 2.899998
v -2.246241 0.5714286 5.799998
v -2.24625 0.7142857 2.899998
v -2.246241 0.7142857 5.799998
v -2.440535 0.7142857 2.899999
v -2.440527 0.7142857 5.799999
v -2.440535 0.8571429 2.899999
v -2.440527 0.8571429 5.799999
v -2.634821 0.8571429 2.899999
v -2.634812 0.8571429 5.799999
v -2.634821 1 2.899999
v -2.634812 1 5.799999
v -2.829107 1 2.9
v -2.829098 1 5.8
v -1.663384 0 5.799996
v -1.85767 0 5.799997
v -2.051955 0 5.799998
v -2.246241 0 5.799998
v -2.440527 0 5.799999
v -2.634812 0 5.799999
v -2.829098 0 5.8
v -1.663392 0 2.899996
v -1.857678 0 2.899997
v -2.051964 0 2.899997
v -2.24625 0 2.899998
v -2.440535 0 2.899999
v -2.634821 0 2.899999
v -2.829107 0 2.9

vt 0 0
vt -2.9 0
vt 0 0.1428571
vt -2.9 0.1428571
vt 0 0.1942857
vt -2.9 0.1942857
vt 0 0.2857143
vt -2.9 0.2857143
vt 0 0.3885714
vt -2.9 0.3885714
vt 0 0.4285714
vt -2.9 0.4285714
vt 0 0.5828571
vt -2.9 0.5828571
vt 0 0.5714286
vt -2.9 0.5714286
vt 0 0.7771429
vt -2.9 0.7771429
vt 0 0.7142857
vt -2.9 0.7142857
vt 0 0.9714286
vt -2.9 0.9714286
vt 0 0.8571429
vt -2.9 0.8571429
vt 0 1.165714
vt -2.9 1.165714
vt 0 1
vt -2.9 1
vt 0 1.36
vt -2.9 1.36
vt -0.1942857 0
vt -0.1942857 0.1428571
vt -0.3885714 0
vt -0.3885714 0.2857143
vt -0.1942857 0.2857143
vt -0.5828571 0
vt -0.5828571 0.4285714
vt -0.3885714 0.4285714
vt -0.7771429 0
vt -0.7771429 0.5714286
vt -0.5828571 0.5714286
vt -0.9714286 0
vt -0.9714286 0.7142857
vt -0.7771429 0.7142857
vt -1.165714 0
vt -1.165714 0.8571429
vt -0.9714286 0.8571429
vt -1.36 0
vt -1.36 1
vt -1.165714 1
vt 0.1942857 0
vt 0.1942857 0.1428571
vt 0.3885714 0
vt 0.3885714 0.2857143
vt 0.1942857 0.2857143
vt 0.5828571 0
vt 0.5828571 0.4285714
vt 0.3885714 0.4285714
vt 0.7771429 0
vt 0.7771429 0.5714286
vt 0.5828571 0.5714286
vt 0.9714286 0
vt 0.9714286 0.7142857
vt 0.7771429 0.7142857
vt 1.165714 0
vt 1.165714 0.8571429
vt 0.9714286 0.8571429
vt 1.36 0
vt 1.36 1
vt 1.165714 1
vt 2.9 0
vt 2.9 1

vn 1 0 -2.920628E-06
vn 0 1 0
vn 2.920628E-06 0 1
vn -2.920628E-06 0 -1
vn -1 0 2.920628E-06

usemtl StoneArchGrid
f 66/130/20 68/133/20 70/132/20
f 70/132/20 72/136/20 74/135/20
f 74/135/20 76/139/20 78/138/20
f 78/138/20 80/142/20 82/141/20
f 82/141/20 84/145/20 86/144/20
f 86/144/20 88/148/20 90/147/20
f 69/152/21 67/153/21 65/150/21
f 73/155/21 71/156/21 69/152/21
f 77/158/21 75/159/21 73/155/21
f 81/161/21 79/162/21 77/158/21
f 85/164/21 83/165/21 81/161/21
f 89/167/21 87/168/21 85/164/21
f 64/102/18 62/100/18 61/99/18
f 61/99/18 63/101/18 64/102/18
f 66/104/19 64/100/19 63/99/19
f 63/99/19 65/103/19 66/104/19
f 68/106/18 66/102/18 65/101/18
f 65/101/18 67/105/18 68/106/18
f 70/108/19 68/104/19 67/103/19
f 67/103/19 69/107/19 70/108/19
f 72/110/18 70/106/18 69/105/18
f 69/105/18 71/109/18 72/110/18
f 74/112/19 72/108/19 71/107/19
f 71/107/19 73/111/19 74/112/19
f 76/114/18 74/110/18 73/109/18
f 73/109/18 75/113/18 76/114/18
f 78/116/19 76/112/19 75/111/19
f 75/111/19 77/115/19 78/116/19
f 80/118/18 78/114/18 77/113/18
f 77/113/18 79/117/18 80/118/18
f 82/120/19 80/116/19 79/115/19
f 79/115/19 81/119/19 82/120/19
f 84/122/18 82/118/18 81/117/18
f 81/117/18 83/121/18 84/122/18
f 86/124/19 84/120/19 83/119/19
f 83/119/19 85/123/19 86/124/19
f 88/126/18 86/122/18 85/121/18
f 85/121/18 87/125/18 88/126/18
f 90/128/19 88/124/19 87/123/19
f 87/123/19 89/127/19 90/128/19
f 66/130/20 91/129/20 62/99/20
f 62/99/20 64/101/20 66/130/20
f 70/132/20 92/131/20 91/129/20
f 91/129/20 66/130/20 70/132/20
f 74/135/20 93/134/20 92/131/20
f 92/131/20 70/132/20 74/135/20
f 78/138/20 94/137/20 93/134/20
f 93/134/20 74/135/20 78/138/20
f 82/141/20 95/140/20 94/137/20
f 94/137/20 78/138/20 82/141/20
f 86/144/20 96/143/20 95/140/20
f 95/140/20 82/141/20 86/144/20
f 90/147/20 97/146/20 96/143/20
f 96/143/20 86/144/20 90/147/20
f 63/101/21 61/99/21 98/149/21
f 98/149/21 65/150/21 63/101/21
f 65/150/21 98/149/21 99/151/21
f 99/151/21 69/152/21 65/150/21
f 69/152/21 99/151/21 100/154/21
f 100/154/21 73/155/21 69/152/21
f 73/155/21 100/154/21 101/157/21
f 101/157/21 77/158/21 73/155/21
f 77/158/21 101/157/21 102/160/21
f 102/160/21 81/161/21 77/158/21
f 81/161/21 102/160/21 103/163/21
f 103/163/21 85/164/21 81/161/21
f 85/164/21 103/163/21 104/166/21
f 104/166/21 89/167/21 85/164/21
f 89/125/22 104/99/22 97/169/22
f 97/169/22 90/170/22 89/125/22

g BathRightPlatform
v -2.829103 0 -2.100023
v -2.829105 0 -3.100023
v -2.829103 0.75 -2.100023
v -2.829105 0.75 -3.100023
v 0.1708949 0 -3.100032
v 0.1708949 0.75 -3.100032
v 0.1708978 0 -2.100032
v 0.1708978 0.75 -2.100032

vt 0 0
vt -1 0
vt 0 0.75
vt -1 0.75
vt -3 0
vt -3 0.75
vt 1 0
vt 1 0.75
vt 3 0
vt 3 0.75
vt 0 -3
vt 1 -3
vt -1 -3

vn -1 0 2.920628E-06
vn -2.920628E-06 0 -1
vn 1 0 -2.920628E-06
vn 2.920628E-06 0 1
vn 0 1 0
vn 0 -1 0

usemtl StoneArchGrid
f 107/173/23 108/174/23 106/172/23 105/171/23
f 108/173/24 110/176/24 109/175/24 106/171/24
f 110/178/25 112/173/25 111/171/25 109/177/25
f 112/180/26 107/173/26 105/171/26 111/179/26
f 112/181/27 110/182/27 108/177/27 107/171/27
f 105/171/28 106/172/28 109/183/28 111/181/28

g BathLeftPlatform
v -2.829106 0 2.9
v -2.829109 0 1.899999
v -2.829106 0.75 2.9
v -2.829109 0.75 1.899999
v 0.1708911 0 1.899991
v 0.1708911 0.75 1.899991
v 0.170894 0 2.899991
v 0.170894 0.75 2.899991

vt 0 0
vt -1 0
vt 0 0.75
vt -1 0.75
vt -3 0
vt -3 0.75
vt 1 0
vt 1 0.75
vt 3 0
vt 3 0.75
vt 0 -3
vt 1 -3
vt -1 -3

vn -1 0 2.920628E-06
vn -2.920628E-06 0 -1
vn 1 0 -2.920628E-06
vn 2.920628E-06 0 1
vn 0 1 0
vn 0 -1 0

usemtl StoneArchGrid
f 115/186/29 116/187/29 114/185/29 113/184/29
f 116/186/30 118/189/30 117/188/30 114/184/30
f 118/191/31 120/186/31 119/184/31 117/190/31
f 120/193/32 115/186/32 113/184/32 119/192/32
f 120/194/33 118/195/33 116/190/33 115/184/33
f 113/184/34 114/185/34 117/196/34 119/194/34

g StairsBath
v -1.02912 0 1.890012
v -1.029108 0 -2.109988
v -1.02912 0.1071429 1.890012
v -1.029108 0.1071429 -2.109988
v -0.8576919 0.1071429 1.890012
v -0.8576797 0.1071429 -2.109988
v -0.8576919 0.2142857 1.890012
v -0.8576797 0.2142857 -2.109988
v -0.6862633 0.2142857 1.890013
v -0.6862511 0.2142857 -2.109987
v -0.6862633 0.3214286 1.890013
v -0.6862511 0.3214286 -2.109987
v -0.5148347 0.3214286 1.890013
v -0.5148225 0.3214286 -2.109987
v -0.5148347 0.4285715 1.890013
v -0.5148225 0.4285715 -2.109987
v -0.3434061 0.4285715 1.890014
v -0.3433939 0.4285715 -2.109986
v -0.3434061 0.5357143 1.890014
v -0.3433939 0.5357143 -2.109986
v -0.1719775 0.5357143 1.890014
v -0.1719654 0.5357143 -2.109986
v -0.1719775 0.6428571 1.890014
v -0.1719654 0.6428571 -2.109986
v -0.0005489588 0.6428571 1.890015
v -0.0005367994 0.6428571 -2.109985
v -0.0005489588 0.75 1.890015
v -0.0005367994 0.75 -2.109985
v 0.1708796 0.75 1.890015
v 0.1708918 0.75 -2.109985
v -0.8576797 0 -2.109988
v -0.6862512 0 -2.109987
v -0.5148225 0 -2.109987
v -0.343394 0 -2.109986
v -0.1719654 0 -2.109986
v -0.0005367994 0 -2.109985
v 0.1708918 0 -2.109985
v -0.8576919 0 1.890012
v -0.6862633 0 1.890013
v -0.5148347 0 1.890013
v -0.3434061 0 1.890014
v -0.1719776 0 1.890014
v -0.0005489588 0 1.890015
v 0.1708796 0 1.890015

vt 0 0
vt -4 0
vt 0 0.1071429
vt -4 0.1071429
vt 0 0.1714286
vt -4 0.1714286
vt 0 0.2142857
vt -4 0.2142857
vt 0 0.3428572
vt -4 0.3428572
vt 0 0.3214286
vt -4 0.3214286
vt 0 0.5142857
vt -4 0.5142857
vt 0 0.4285715
vt -4 0.4285715
vt 0 0.6857144
vt -4 0.6857144
vt 0 0.5357143
vt -4 0.5357143
vt 0 0.8571429
vt -4 0.8571429
vt 0 0.6428571
vt -4 0.6428571
vt 0 1.028571
vt -4 1.028571
vt 0 0.75
vt -4 0.75
vt 0 1.2
vt -4 1.2
vt -0.1714286 0
vt -0.1714286 0.1071429
vt -0.3428572 0
vt -0.3428572 0.2142857
vt -0.1714286 0.2142857
vt -0.5142857 0
vt -0.5142857 0.3214286
vt -0.3428572 0.3214286
vt -0.6857143 0
vt -0.6857143 0.4285714
vt -0.5142857 0.4285714
vt -0.8571429 0
vt -0.8571429 0.5357143
vt -0.6857143 0.5357143
vt -1.028571 0
vt -1.028571 0.6428571
vt -0.8571429 0.6428571
vt -1.2 0
vt -1.2 0.75
vt -1.028571 0.75
vt 0.1714286 0
vt 0.1714286 0.1071429
vt 0.3428572 0
vt 0.3428572 0.2142857
vt 0.1714286 0.2142857
vt 0.5142857 0
vt 0.5142857 0.3214286
vt 0.3428572 0.3214286
vt 0.6857143 0
vt 0.6857143 0.4285714
vt 0.5142857 0.4285714
vt 0.8571429 0
vt 0.8571429 0.5357143
vt 0.6857143 0.5357143
vt 1.028571 0
vt 1.028571 0.6428571
vt 0.8571429 0.6428571
vt 1.2 0
vt 1.2 0.75
vt 1.028571 0.75
vt 4 0
vt 4 0.75

vn -1 0 -3.039837E-06
vn 0 1 0
vn 3.039837E-06 0 -1
vn -3.039837E-06 0 1
vn 1 0 3.039837E-06

usemtl StoneArchGrid
f 126/228/37 128/231/37 130/230/37
f 130/230/37 132/234/37 134/233/37
f 134/233/37 136/237/37 138/236/37
f 138/236/37 140/240/37 142/239/37
f 142/239/37 144/243/37 146/242/37
f 146/242/37 148/246/37 150/245/37
f 129/250/38 127/251/38 125/248/38
f 133/253/38 131/254/38 129/250/38
f 137/256/38 135/257/38 133/253/38
f 141/259/38 139/260/38 137/256/38
f 145/262/38 143/263/38 141/259/38
f 149/265/38 147/266/38 145/262/38
f 124/200/35 122/198/35 121/197/35
f 121/197/35 123/199/35 124/200/35
f 126/202/36 124/198/36 123/197/36
f 123/197/36 125/201/36 126/202/36
f 128/204/35 126/200/35 125/199/35
f 125/199/35 127/203/35 128/204/35
f 130/206/36 128/202/36 127/201/36
f 127/201/36 129/205/36 130/206/36
f 132/208/35 130/204/35 129/203/35
f 129/203/35 131/207/35 132/208/35
f 134/210/36 132/206/36 131/205/36
f 131/205/36 133/209/36 134/210/36
f 136/212/35 134/208/35 133/207/35
f 133/207/35 135/211/35 136/212/35
f 138/214/36 136/210/36 135/209/36
f 135/209/36 137/213/36 138/214/36
f 140/216/35 138/212/35 137/211/35
f 137/211/35 139/215/35 140/216/35
f 142/218/36 140/214/36 139/213/36
f 139/213/36 141/217/36 142/218/36
f 144/220/35 142/216/35 141/215/35
f 141/215/35 143/219/35 144/220/35
f 146/222/36 144/218/36 143/217/36
f 143/217/36 145/221/36 146/222/36
f 148/224/35 146/220/35 145/219/35
f 145/219/35 147/223/35 148/224/35
f 150/226/36 148/222/36 147/221/36
f 147/221/36 149/225/36 150/226/36
f 126/228/37 151/227/37 122/197/37
f 122/197/37 124/199/37 126/228/37
f 130/230/37 152/229/37 151/227/37
f 151/227/37 126/228/37 130/230/37
f 134/233/37 153/232/37 152/229/37
f 152/229/37 130/230/37 134/233/37
f 138/236/37 154/235/37 153/232/37
f 153/232/37 134/233/37 138/236/37
f 142/239/37 155/238/37 154/235/37
f 154/235/37 138/236/37 142/239/37
f 146/242/37 156/241/37 155/238/37
f 155/238/37 142/239/37 146/242/37
f 150/245/37 157/244/37 156/241/37
f 156/241/37 146/242/37 150/245/37
f 123/199/38 121/197/38 158/247/38
f 158/247/38 125/248/38 123/199/38
f 125/248/38 158/247/38 159/249/38
f 159/249/38 129/250/38 125/248/38
f 129/250/38 159/249/38 160/252/38
f 160/252/38 133/253/38 129/250/38
f 133/253/38 160/252/38 161/255/38
f 161/255/38 137/256/38 133/253/38
f 137/256/38 161/255/38 162/258/38
f 162/258/38 141/259/38 137/256/38
f 141/259/38 162/258/38 163/261/38
f 163/261/38 145/262/38 141/259/38
f 145/262/38 163/261/38 164/264/38
f 164/264/38 149/265/38 145/262/38
f 149/223/39 164/197/39 157/267/39
f 157/267/39 150/268/39 149/223/39

