# ProBuilder 4.2.3
# https://unity3d.com/unity/features/worldbuilding/probuilder
# 22/02/2021 10:29:46

mtllib ./ChestPlatform.mtl
o ChestPlatform

g Platform
v -2.384186E-07 -0.2 6.556511E-06
v -4.950165E-06 -0.2 1.550007
v -2.384186E-07 0 6.556511E-06
v -4.950165E-06 0 1.550007
v -2.500005 -0.2 1.549999
v -2.500005 0 1.549999
v -2.5 -0.2 -1.043081E-06
v -2.5 0 -1.043081E-06

vt 0 0
vt -1.55 0
vt 0 0.2
vt -1.55 0.2
vt -2.5 0
vt -2.5 0.2
vt 1.55 0
vt 1.55 0.2
vt 2.5 0
vt 2.5 0.2
vt 0 -2.5
vt 1.55 -2.5
vt -1.55 -2.5

vn 1 0 3.039837E-06
vn -3.039837E-06 0 1
vn -1 0 -3.039837E-06
vn 3.039837E-06 0 -1
vn 0 1 0
vn 0 -1 0

usemtl StoneArchGrid
f 3/3/1 4/4/1 2/2/1 1/1/1
f 4/3/2 6/6/2 5/5/2 2/1/2
f 6/8/3 8/3/3 7/1/3 5/7/3
f 8/10/4 3/3/4 1/1/4 7/9/4
f 8/11/5 6/12/5 4/7/5 3/1/5
f 1/1/6 2/2/6 5/13/6 7/11/6

g Stairs
v -0.7187929 -0.2 -0.7
v -0.3097725 -0.2 -0.4666664
v -0.7187929 -0.1333333 -0.7
v -0.3097725 -0.1333333 -0.4666664
v -0.07213688 -0.2 -0.2333328
v -0.07213688 -0.06666666 -0.2333328
v -0.3097725 -0.06666666 -0.4666664
v 0 -0.2 0
v 0 0 0
v -0.07213688 0 -0.2333328
v -1.781207 -0.2 -0.7
v -2.190228 -0.2 -0.4666664
v -1.781207 -0.1333333 -0.7
v -2.190228 -0.1333333 -0.4666664
v -2.427863 -0.2 -0.2333328
v -2.427863 -0.06666666 -0.2333328
v -2.190228 -0.06666666 -0.4666664
v -2.5 -0.2 0
v -2.5 0 0
v -2.427863 0 -0.2333328
v -1.25 -0.2 -0.7714035
v -1.25 -0.1333333 -0.7714035
v -1.25 -0.1333333 -0.5426323
v -1.25 -0.06666666 -0.5426323
v -1.25 -0.06666666 -0.2995979
v -1.25 0 -0.2995979
v -1.25 0 0
v -1.25 -0.2 0

vt -1.076051 0
vt -1.509089 0
vt -1.076051 0.06666667
vt -1.509089 0.06666667
vt -1.838591 0
vt -1.838591 0.1333333
vt -1.509089 0.1333333
vt -2.068112 0
vt -2.068112 0.2
vt -1.838591 0.2
vt -0.4342324 0
vt -0.001194494 0
vt -0.4342324 0.06666667
vt -0.001194494 0.06666667
vt 0.3283075 0
vt 0.3283075 0.1333333
vt -0.001194494 0.1333333
vt 0.5578289 0
vt 0.5578289 0.2
vt 0.3283075 0.2
vt -0.7187929 0
vt -1.25 0
vt -1.25 0.06666667
vt -0.7187929 0.06666667
vt -1.781207 0
vt -1.781207 0.06666667
vt -1.25 -0.0714035
vt -1.25 0.1573677
vt -0.3097725 0.2333336
vt -2.190228 0.2333336
vt -0.3097725 0.06666667
vt -1.25 0.1333333
vt -0.3097725 0.1333333
vt -2.190228 0.06666667
vt -2.190228 0.1333333
vt -1.25 0.4004021
vt -0.07213688 0.4666672
vt -2.427863 0.4666672
vt -0.07213688 0.1333333
vt -1.25 0.2
vt -0.07213688 0.2
vt -2.427863 0.1333333
vt -2.427863 0.2
vt -1.25 0.7
vt 0 0.7
vt -2.5 0.7
vt 2.5 0
vt 1.25 0
vt 1.25 0.2
vt 2.5 0.2
vt 0 0
vt 0 0.2

vn 0.4955107 0 -0.8686019
vn 0.7006186 0 -0.713536
vn 0.9553844 0 -0.2953654
vn -0.4955107 0 -0.8686019
vn -0.7006186 0 -0.713536
vn -0.9553844 0 -0.2953654
vn -0.1332193 0 -0.9910866
vn 0.1332193 0 -0.9910866
vn 0 1 0
vn -0.08053278 0 -0.996752
vn 0.08053278 0 -0.996752
vn -0.05616993 0 -0.9984213
vn 0.05616993 0 -0.9984213
vn 0 0 1

usemtl StoneArchGrid
f 12/17/8 15/20/8 14/19/8
f 14/19/9 18/23/9 17/22/9
f 24/29/11 25/30/11 22/27/11
f 27/32/12 28/33/12 24/29/12
f 12/17/7 10/15/7 9/14/7
f 9/14/7 11/16/7 12/17/7
f 14/19/8 13/18/8 10/15/8
f 10/15/8 12/17/8 14/19/8
f 17/22/9 16/21/9 13/18/9
f 13/18/9 14/19/9 17/22/9
f 21/26/10 19/24/10 20/25/10
f 20/25/10 22/27/10 21/26/10
f 22/27/11 20/25/11 23/28/11
f 23/28/11 24/29/11 22/27/11
f 24/29/12 23/28/12 26/31/12
f 26/31/12 27/32/12 24/29/12
f 21/37/13 30/36/13 29/35/13
f 29/35/13 19/34/13 21/37/13
f 30/36/14 11/39/14 9/38/14
f 9/38/14 29/35/14 30/36/14
f 31/41/15 30/40/15 21/34/15
f 21/34/15 22/42/15 31/41/15
f 12/43/15 11/38/15 30/40/15
f 30/40/15 31/41/15 12/43/15
f 25/46/16 32/45/16 31/36/16
f 31/36/16 22/44/16 25/46/16
f 32/45/17 15/48/17 12/47/17
f 12/47/17 31/36/17 32/45/17
f 33/49/15 32/41/15 25/42/15
f 25/42/15 24/50/15 33/49/15
f 14/51/15 15/43/15 32/41/15
f 32/41/15 33/49/15 14/51/15
f 28/54/18 34/53/18 33/45/18
f 33/45/18 24/52/18 28/54/18
f 34/53/19 18/56/19 14/55/19
f 14/55/19 33/45/19 34/53/19
f 35/57/15 34/49/15 28/50/15
f 28/50/15 27/58/15 35/57/15
f 17/59/15 18/51/15 34/49/15
f 34/49/15 35/57/15 17/59/15
f 35/62/20 36/61/20 16/60/20
f 16/60/20 17/63/20 35/62/20
f 27/65/20 26/64/20 36/61/20
f 36/61/20 35/62/20 27/65/20

