# ProBuilder 4.2.3
# https://unity3d.com/unity/features/worldbuilding/probuilder
# 22/02/2021 10:30:15

mtllib ./LaboratoryStairs.mtl
o LaboratoryStairs

g Platform
v -5.799999 0 -5.842
v 5.470001 0 -5.841934
v -5.799999 0.2 -5.842
v 5.470001 0.2 -5.841934
v 5.469987 0 -3.501934
v 5.469987 0.2 -3.501934
v -5.800013 0 -3.502
v -5.800013 0.2 -3.502

vt 0 0
vt -11.27 0
vt 0 0.2
vt -11.27 0.2
vt -2.34 0
vt -2.34 0.2
vt 11.27 0
vt 11.27 0.2
vt 2.34 0
vt 2.34 0.2
vt 0 -2.34
vt 11.27 -2.34
vt -11.27 -2.34

vn 5.900859E-06 0 -1
vn 1 0 5.900859E-06
vn -5.900859E-06 0 1
vn -1 0 -5.900859E-06
vn 0 1 0
vn 0 -1 0

usemtl StoneArchGrid
f 3/3/1 4/4/1 2/2/1 1/1/1
f 4/3/2 6/6/2 5/5/2 2/1/2
f 6/8/3 8/3/3 7/1/3 5/7/3
f 8/10/4 3/3/4 1/1/4 7/9/4
f 8/11/5 6/12/5 4/7/5 3/1/5
f 1/1/6 2/2/6 5/13/6 7/11/6

g Stairs
v 5.199984 0 -2.801935
v -5.800016 0 -2.802
v 5.199984 0.06666667 -2.801935
v -5.800016 0.06666667 -2.802
v 5.199985 0.06666667 -3.035269
v -5.800015 0.06666667 -3.035333
v 5.199985 0.1333333 -3.035269
v -5.800015 0.1333333 -3.035333
v 5.199986 0.1333333 -3.268602
v -5.800014 0.1333333 -3.268667
v 5.199986 0.2 -3.268602
v -5.800014 0.2 -3.268667
v 5.199988 0.2 -3.501935
v -5.800012 0.2 -3.502
v -5.800015 0 -3.035333
v -5.800014 0 -3.268667
v -5.800012 0 -3.502
v 5.199985 0 -3.035269
v 5.199986 0 -3.268602
v 5.199988 0 -3.501935

vt 0 0
vt -11 0
vt 0 0.06666667
vt -11 0.06666667
vt 0 0.2333333
vt -11 0.2333333
vt 0 0.1333333
vt -11 0.1333333
vt 0 0.4666667
vt -11 0.4666667
vt 0 0.2
vt -11 0.2
vt 0 0.7
vt -11 0.7
vt -0.2333333 0
vt -0.2333333 0.06666667
vt -0.4666667 0
vt -0.4666667 0.1333333
vt -0.2333333 0.1333333
vt -0.7 0
vt -0.7 0.2
vt -0.4666667 0.2
vt 0.2333333 0
vt 0.2333333 0.06666667
vt 0.4666667 0
vt 0.4666667 0.1333333
vt 0.2333333 0.1333333
vt 0.7 0
vt 0.7 0.2
vt 0.4666667 0.2
vt 11 0
vt 11 0.2

vn -5.900859E-06 0 1
vn 0 1 0
vn -1 0 -5.900859E-06
vn 1 0 5.900859E-06
vn 5.900859E-06 0 -1

usemtl StoneArchGrid
f 14/29/9 16/32/9 18/31/9
f 18/31/9 20/35/9 22/34/9
f 17/39/10 15/40/10 13/37/10
f 21/42/10 19/43/10 17/39/10
f 12/17/7 10/15/7 9/14/7
f 9/14/7 11/16/7 12/17/7
f 14/19/8 12/15/8 11/14/8
f 11/14/8 13/18/8 14/19/8
f 16/21/7 14/17/7 13/16/7
f 13/16/7 15/20/7 16/21/7
f 18/23/8 16/19/8 15/18/8
f 15/18/8 17/22/8 18/23/8
f 20/25/7 18/21/7 17/20/7
f 17/20/7 19/24/7 20/25/7
f 22/27/8 20/23/8 19/22/8
f 19/22/8 21/26/8 22/27/8
f 14/29/9 23/28/9 10/14/9
f 10/14/9 12/16/9 14/29/9
f 18/31/9 24/30/9 23/28/9
f 23/28/9 14/29/9 18/31/9
f 22/34/9 25/33/9 24/30/9
f 24/30/9 18/31/9 22/34/9
f 11/16/10 9/14/10 26/36/10
f 26/36/10 13/37/10 11/16/10
f 13/37/10 26/36/10 27/38/10
f 27/38/10 17/39/10 13/37/10
f 17/39/10 27/38/10 28/41/10
f 28/41/10 21/42/10 17/39/10
f 21/24/11 28/14/11 25/44/11
f 25/44/11 22/45/11 21/24/11

