# ProBuilder 4.2.3
# https://unity3d.com/unity/features/worldbuilding/probuilder
# 22/02/2021 10:30:32

mtllib ./MBedroomStairs.mtl
o MBedroomStairs

g MBedroomStairs
v 1.061 0 5.804
v 1.060999 0 -4.196001
v 1.061 0.09333332 5.804
v 1.060999 0.09333332 -4.196001
v 1.222905 0.09333332 5.804
v 1.222904 0.09333332 -4.196002
v 1.222905 0.1866666 5.804
v 1.222904 0.1866666 -4.196002
v 1.38481 0.1866666 5.804
v 1.384808 0.1866666 -4.196002
v 1.38481 0.2799999 5.804
v 1.384808 0.2799999 -4.196002
v 1.546714 0.2799999 5.804
v 1.546713 0.2799999 -4.196002
v 1.060999 0 -5.809769
v 1.222904 0 -5.809767
v 1.060999 0.09333331 -5.809769
v 1.222904 0.09333331 -5.809767
v 1.384809 0 -5.809767
v 1.384809 0.1866666 -5.809767
v 1.222904 0.1866666 -5.809767
v 1.546713 0 -5.809767
v 1.546713 0.2799999 -5.809767
v 1.384809 0.2799999 -5.809767
v 1.222905 0 5.804
v 1.38481 0 5.804
v 1.546714 0 5.804
v 5.822978 0 -4.19601
v 5.822979 0 5.804001
v 5.822978 0.2799999 -4.19601
v 5.822979 0.2799999 5.804001
v 1.222904 0 -4.196002
v 1.384808 0 -4.196002
v 1.546713 0 -4.196002
v 5.822978 0 -5.809777
v 5.822978 0.2799999 -5.809777

vt 0 0
vt -10 0
vt 0 0.09333332
vt -10 0.09333332
vt 0 0.1619048
vt -10 0.1619048
vt 0 0.1866666
vt -10 0.1866666
vt 0 0.3238096
vt -10 0.3238096
vt 0 0.2799999
vt -10 0.2799999
vt 0 0.4857143
vt -10 0.4857143
vt -0.1617682 0
vt -0.1617682 0.09333331
vt -0.3238099 0
vt -0.3238099 0.1866666
vt -0.161905 0.1866666
vt -0.4857147 0
vt -0.4857147 0.2799999
vt -0.3238099 0.2799999
vt 0.1619048 0
vt 0.1619048 0.09333331
vt 0.3238095 0
vt 0.3238095 0.1866666
vt 0.1619048 0.1866666
vt 0.4857143 0
vt 0.4857143 0.2799999
vt 0.3238095 0.2799999
vt 10.00001 0
vt 10.00001 0.2799999
vt -11.61377 0.4857147
vt -11.61377 0.3238099
vt -11.61377 0.2799999
vt -11.61377 0.1866666
vt 10 0.1619048
vt 10 0.3238095
vt 11.61377 0.161905
vt 11.61377 0.3238099
vt 10 0.4857143
vt 11.61377 0.4857147
vt 11.61377 1.871306E-07
vt 11.61378 0.2799999
vt -11.61377 0.161905
vt -11.61377 1.871306E-07
vt -11.61377 0.09333331
vt 10.00001 4.761979
vt -1.862881E-06 4.761979
vt 11.61378 4.761979
vt 4.761979 0
vt 4.761979 0.2799999
vt -10.00001 4.761979
vt -11.61378 4.761979
vt -4.762005 0.2799999
vt -4.762005 0

vn -1 0 1.192093E-07
vn 0 1 0
vn 1.166147E-05 0 -1
vn 1.192093E-07 0 1
vn 1 0 -1.192093E-07
vn 0 -1 0

usemtl StoneFloorGrid
f 18/16/3 21/19/3 20/18/3
f 20/18/3 24/22/3 23/21/3
f 9/26/4 7/27/4 5/24/4
f 13/29/4 11/30/4 9/26/4
f 4/4/1 2/2/1 1/1/1
f 1/1/1 3/3/1 4/4/1
f 6/6/2 4/2/2 3/1/2
f 3/1/2 5/5/2 6/6/2
f 8/8/1 6/4/1 5/3/1
f 5/3/1 7/7/1 8/8/1
f 10/10/2 8/6/2 7/5/2
f 7/5/2 9/9/2 10/10/2
f 12/12/1 10/8/1 9/7/1
f 9/7/1 11/11/1 12/12/1
f 14/14/2 12/10/2 11/9/2
f 11/9/2 13/13/2 14/14/2
f 18/16/3 16/15/3 15/1/3
f 15/1/3 17/3/3 18/16/3
f 20/18/3 19/17/3 16/15/3
f 16/15/3 18/16/3 20/18/3
f 23/21/3 22/20/3 19/17/3
f 19/17/3 20/18/3 23/21/3
f 3/3/4 1/1/4 25/23/4
f 25/23/4 5/24/4 3/3/4
f 5/24/4 25/23/4 26/25/4
f 26/25/4 9/26/4 5/24/4
f 9/26/4 26/25/4 27/28/4
f 27/28/4 13/29/4 9/26/4
f 31/11/5 29/1/5 28/31/5
f 28/31/5 30/32/5 31/11/5
f 24/34/2 12/10/2 14/14/2
f 14/14/2 23/33/2 24/34/2
f 20/36/1 10/8/1 12/12/1
f 12/12/1 24/35/1 20/36/1
f 19/40/6 33/38/6 32/37/6
f 32/37/6 16/39/6 19/40/6
f 22/42/6 34/41/6 33/38/6
f 33/38/6 19/40/6 22/42/6
f 16/39/6 32/37/6 2/31/6
f 2/31/6 15/43/6 16/39/6
f 36/44/5 30/32/5 28/31/5
f 28/31/5 35/43/5 36/44/5
f 17/46/2 4/2/2 6/6/2
f 6/6/2 18/45/2 17/46/2
f 21/45/2 8/6/2 10/10/2
f 10/10/2 20/34/2 21/45/2
f 18/47/1 6/4/1 8/8/1
f 8/8/1 21/36/1 18/47/1
f 15/46/1 2/2/1 4/4/1
f 4/4/1 17/47/1 15/46/1
f 29/49/6 27/13/6 34/41/6
f 34/41/6 28/48/6 29/49/6
f 28/48/6 34/41/6 22/42/6
f 22/42/6 35/50/6 28/48/6
f 31/52/4 13/29/4 27/28/4
f 27/28/4 29/51/4 31/52/4
f 30/53/2 14/14/2 13/13/2
f 13/13/2 31/49/2 30/53/2
f 36/54/2 23/33/2 14/14/2
f 14/14/2 30/53/2 36/54/2
f 35/56/3 22/20/3 23/21/3
f 23/21/3 36/55/3 35/56/3

