# ProBuilder 4.2.3
# https://unity3d.com/unity/features/worldbuilding/probuilder
# 22/02/2021 10:30:48

mtllib ./TopPlatformBase.mtl
o TopPlatformBase

g TopPlatformBase
v 0 0 0
v -3.37 0 0
v 0 0.25 0
v -3.37 0.25 0
v -3.37 0 -10.37
v -3.37 0.25 -10.37
v 0 0 -10.37
v 0 0.25 -10.37

vt 0 0
vt -3.37 0
vt 0 0.25
vt -3.37 0.25
vt -10.37 0
vt -10.37 0.25
vt 3.37 0
vt 3.37 0.25
vt 10.37 0
vt 10.37 0.25
vt 0 -10.37
vt 3.37 -10.37
vt -3.37 -10.37

vn 0 0 1
vn -1 0 0
vn 0 0 -1
vn 1 0 0
vn 0 1 0
vn 0 -1 0

usemtl StoneArchGrid
f 3/3/1 4/4/1 2/2/1 1/1/1
f 4/3/2 6/6/2 5/5/2 2/1/2
f 6/8/3 8/3/3 7/1/3 5/7/3
f 8/10/4 3/3/4 1/1/4 7/9/4
f 8/11/5 6/12/5 4/7/5 3/1/5
f 1/1/6 2/2/6 5/13/6 7/11/6

