# ProBuilder 4.2.3
# https://unity3d.com/unity/features/worldbuilding/probuilder
# 22/02/2021 10:31:32

mtllib ./WoodenStairsPlatform.mtl
o WoodenStairsPlatform

g Cube
v 49.16 0 53.802
v 49.06 0 53.802
v 49.16 1.7043 53.802
v 49.06 1.7043 53.802
v 49.06 0 52.88514
v 49.06 1.7043 52.88514
v 49.16 0 52.88514
v 49.16 1.7043 52.88514

vt 0 0
vt -0.1 0
vt 0 2.5
vt -0.1 2.5
vt -0.6 0
vt -0.6 2.5
vt 0.1 0
vt 0.1 2.5
vt 0.6 0
vt 0.6 2.5
vt 0 -0.6
vt 0.1 -0.6
vt -0.1 -0.6

vn 0 0 1.5281
vn -1 0 0
vn 0 0 -1.5281
vn 1 0 0
vn 0 0.68172 0
vn 0 -0.68172 0

usemtl WoodGrid
f 3/3/1 4/4/1 2/2/1 1/1/1
f 4/3/2 6/6/2 5/5/2 2/1/2
f 6/8/3 8/3/3 7/1/3 5/7/3
f 8/10/4 3/3/4 1/1/4 7/9/4
f 8/11/5 6/12/5 4/7/5 3/1/5
f 1/1/6 2/2/6 5/13/6 7/11/6

g Cube (2)
v 42.6 0 53.802
v 42.5 0 53.802
v 42.6 1.7043 53.802
v 42.5 1.7043 53.802
v 42.5 0 53.202
v 42.5 1.7043 53.202
v 42.6 0 53.202
v 42.6 1.7043 53.202

vt 0 0
vt -0.1 0
vt 0 2.5
vt -0.1 2.5
vt -0.6 0
vt -0.6 2.5
vt 0.1 0
vt 0.1 2.5
vt 0.6 0
vt 0.6 2.5
vt 0 -0.6
vt 0.1 -0.6
vt -0.1 -0.6

vn 0 0 1
vn -1 0 0
vn 0 0 -1
vn 1 0 0
vn 0 0.68172 0
vn 0 -0.68172 0

usemtl WoodGrid
f 11/16/7 12/17/7 10/15/7 9/14/7
f 12/16/8 14/19/8 13/18/8 10/14/8
f 14/21/9 16/16/9 15/14/9 13/20/9
f 16/23/10 11/16/10 9/14/10 15/22/10
f 16/24/11 14/25/11 12/20/11 11/14/11
f 9/14/12 10/15/12 13/26/12 15/24/12

g Cube
v 46.96 0 53.302
v 46.86 0 53.302
v 46.96 1.7043 53.302
v 46.86 1.7043 53.302
v 46.86 0 53.202
v 46.86 1.7043 53.202
v 46.96 0 53.202
v 46.96 1.7043 53.202

vt 0 0
vt -0.1 0
vt 0 2.5
vt -0.1 2.5
vt 0.1 0
vt 0.1 2.5
vt 0 -0.1
vt 0.1 -0.1
vt -0.1 -0.1

vn 0 0 1
vn -1 0 0
vn 0 0 -1
vn 1 0 0
vn 0 0.68172 0
vn 0 -0.68172 0

usemtl WoodGrid
f 19/29/13 20/30/13 18/28/13 17/27/13
f 20/29/14 22/30/14 21/28/14 18/27/14
f 22/32/15 24/29/15 23/27/15 21/31/15
f 24/32/16 19/29/16 17/27/16 23/31/16
f 24/33/17 22/34/17 20/31/17 19/27/17
f 17/27/18 18/28/18 21/35/18 23/33/18

g Cube (3)
v 45.558 0 53.302
v 45.458 0 53.302
v 45.558 1.7043 53.302
v 45.458 1.7043 53.302
v 45.458 0 53.202
v 45.458 1.7043 53.202
v 45.558 0 53.202
v 45.558 1.7043 53.202

vt 0 0
vt -0.1 0
vt 0 2.5
vt -0.1 2.5
vt 0.1 0
vt 0.1 2.5
vt 0 -0.1
vt 0.1 -0.1
vt -0.1 -0.1

vn 0 0 1
vn -1 0 0
vn 0 0 -1
vn 1 0 0
vn 0 0.68172 0
vn 0 -0.68172 0

usemtl WoodGrid
f 27/38/19 28/39/19 26/37/19 25/36/19
f 28/38/20 30/39/20 29/37/20 26/36/20
f 30/41/21 32/38/21 31/36/21 29/40/21
f 32/41/22 27/38/22 25/36/22 31/40/22
f 32/42/23 30/43/23 28/40/23 27/36/23
f 25/36/24 26/37/24 29/44/24 31/42/24

g Cube (4)
v 44.04 0 53.302
v 43.94 0 53.302
v 44.04 1.7043 53.302
v 43.94 1.7043 53.302
v 43.94 0 53.202
v 43.94 1.7043 53.202
v 44.04 0 53.202
v 44.04 1.7043 53.202

vt 0 0
vt -0.1 0
vt 0 2.5
vt -0.1 2.5
vt 0.1 0
vt 0.1 2.5
vt 0 -0.1
vt 0.1 -0.1
vt -0.1 -0.1

vn 0 0 1
vn -1 0 0
vn 0 0 -1
vn 1 0 0
vn 0 0.68172 0
vn 0 -0.68172 0

usemtl WoodGrid
f 35/47/25 36/48/25 34/46/25 33/45/25
f 36/47/26 38/48/26 37/46/26 34/45/26
f 38/50/27 40/47/27 39/45/27 37/49/27
f 40/50/28 35/47/28 33/45/28 39/49/28
f 40/51/29 38/52/29 36/49/29 35/45/29
f 33/45/30 34/46/30 37/53/30 39/51/30

g Platform1
v 45.83 1.7 53.802
v 42.5 1.7 53.802
v 45.83 1.8 53.802
v 42.5 1.8 53.802
v 42.5 1.7 53.202
v 42.5 1.8 53.202
v 45.83 1.7 53.202
v 45.83 1.8 53.202

vt 0 0
vt -3.33 0
vt 0 0.1
vt -3.33 0.1
vt -0.6 0
vt -0.6 0.1
vt 3.33 0
vt 3.33 0.1
vt 0.6 0
vt 0.6 0.1
vt 0 -0.6
vt 3.33 -0.6
vt -3.33 -0.6

vn 0 0 1
vn -1 0 0
vn 0 0 -1
vn 1 0 0
vn 0 1 0
vn 0 -1 0

usemtl WoodGrid
f 43/56/31 44/57/31 42/55/31 41/54/31
f 44/56/32 46/59/32 45/58/32 42/54/32
f 46/61/33 48/56/33 47/54/33 45/60/33
f 48/63/34 43/56/34 41/54/34 47/62/34
f 48/64/35 46/65/35 44/60/35 43/54/35
f 41/54/36 42/55/36 45/66/36 47/64/36

g Platform
v 49.16 1.7 53.802
v 45.82999 1.7 53.802
v 49.16 1.8 53.802
v 45.82999 1.8 53.802
v 45.82999 1.7 53.202
v 45.82999 1.8 53.202
v 49.16 1.7 53.202
v 49.16 1.8 53.202

vt 0 0
vt -3.33 0
vt 0 0.1
vt -3.33 0.1
vt -0.6 0
vt -0.6 0.1
vt 3.33 0
vt 3.33 0.1
vt 0.6 0
vt 0.6 0.1
vt 0 -0.6
vt 3.33 -0.6
vt -3.33 -0.6

vn 0 0 1
vn -1 0 0
vn 0 0 -1
vn 1 0 0
vn 0 1 0
vn 0 -1 0

usemtl WoodGrid
f 51/69/37 52/70/37 50/68/37 49/67/37
f 52/69/38 54/72/38 53/71/38 50/67/38
f 54/74/39 56/69/39 55/67/39 53/73/39
f 56/76/40 51/69/40 49/67/40 55/75/40
f 56/77/41 54/78/41 52/73/41 51/67/41
f 49/67/42 50/68/42 53/79/42 55/77/42

g Platform (1)
v 50.46 1.7 53.802
v 49.1558 1.7 53.802
v 50.46 1.8 53.802
v 49.1558 1.8 53.802
v 49.1558 1.7 52.89395
v 49.1558 1.8 52.89395
v 50.46 1.7 52.89395
v 50.46 1.8 52.89395

vt 0 0
vt -3.33 0
vt 0 0.1
vt -3.33 0.1
vt -0.6 0
vt -0.6 0.1
vt 3.33 0
vt 3.33 0.1
vt 0.6 0
vt 0.6 0.1
vt 0 -0.6
vt 3.33 -0.6
vt -3.33 -0.6

vn 0 0 1.513418
vn -0.3916531 0 0
vn 0 0 -1.513418
vn 0.3916531 0 0
vn 0 1 0
vn 0 -1 0

usemtl WoodGrid
f 59/82/43 60/83/43 58/81/43 57/80/43
f 60/82/44 62/85/44 61/84/44 58/80/44
f 62/87/45 64/82/45 63/80/45 61/86/45
f 64/89/46 59/82/46 57/80/46 63/88/46
f 64/90/47 62/91/47 60/86/47 59/80/47
f 57/80/48 58/81/48 61/92/48 63/90/48

g Stairs
v 49.1558 -0.06057692 51.52049
v 50.44891 -0.06057692 51.52049
v 49.1558 0.2037088 51.52049
v 50.44891 0.2037088 51.52049
v 49.1558 0.2037088 51.7167
v 50.44891 0.2037088 51.7167
v 49.1558 0.4679946 51.7167
v 50.44891 0.4679946 51.7167
v 49.1558 0.4679946 51.91291
v 50.44891 0.4679946 51.91291
v 49.1558 0.7322803 51.91291
v 50.44891 0.7322803 51.91291
v 49.1558 0.7322803 52.10911
v 50.44891 0.7322803 52.10911
v 49.1558 0.9965661 52.10911
v 50.44891 0.9965661 52.10911
v 49.1558 0.9965661 52.30532
v 50.44891 0.9965661 52.30532
v 49.1558 1.260852 52.30532
v 50.44891 1.260852 52.30532
v 49.1558 1.260852 52.50153
v 50.44891 1.260852 52.50153
v 49.1558 1.525137 52.50153
v 50.44891 1.525137 52.50153
v 49.1558 1.525137 52.69774
v 50.44891 1.525137 52.69774
v 49.1558 1.789423 52.69774
v 50.44891 1.789423 52.69774
v 49.1558 1.789423 52.89395
v 50.44891 1.789423 52.89395
v 50.44891 -0.06057692 51.7167
v 50.44891 -0.06057692 51.91291
v 50.44891 -0.06057692 52.10911
v 50.44891 -0.06057692 52.30532
v 50.44891 -0.06057692 52.50153
v 50.44891 -0.06057692 52.69774
v 50.44891 -0.06057692 52.89395
v 49.1558 -0.06057692 51.7167
v 49.1558 -0.06057692 51.91291
v 49.1558 -0.06057692 52.10911
v 49.1558 -0.06057692 52.30532
v 49.1558 -0.06057692 52.50153
v 49.1558 -0.06057692 52.69774
v 49.1558 -0.06057692 52.89395

vt 0 0
vt -1.293119 0
vt 0 0.2642857
vt -1.293119 0.2642857
vt 0 0.1962083
vt -1.293119 0.1962083
vt 0 0.5285715
vt -1.293119 0.5285715
vt 0 0.3924166
vt -1.293119 0.3924166
vt 0 0.7928572
vt -1.293119 0.7928572
vt 0 0.5886248
vt -1.293119 0.5886248
vt 0 1.057143
vt -1.293119 1.057143
vt 0 0.7848331
vt -1.293119 0.7848331
vt 0 1.321429
vt -1.293119 1.321429
vt 0 0.9810414
vt -1.293119 0.9810414
vt 0 1.585714
vt -1.293119 1.585714
vt 0 1.17725
vt -1.293119 1.17725
vt 0 1.85
vt -1.293119 1.85
vt 0 1.373458
vt -1.293119 1.373458
vt -0.1962083 0
vt -0.1962083 0.2642857
vt -0.3924165 0
vt -0.3924165 0.5285714
vt -0.1962083 0.5285714
vt -0.5886248 0
vt -0.5886248 0.7928572
vt -0.3924165 0.7928572
vt -0.7848331 0
vt -0.7848331 1.057143
vt -0.5886248 1.057143
vt -0.9810414 0
vt -0.9810414 1.321429
vt -0.7848331 1.321429
vt -1.17725 0
vt -1.17725 1.585714
vt -0.9810414 1.585714
vt -1.373458 0
vt -1.373458 1.85
vt -1.17725 1.85
vt 0.1962083 0
vt 0.1962083 0.2642857
vt 0.3924165 0
vt 0.3924165 0.5285714
vt 0.1962083 0.5285714
vt 0.5886248 0
vt 0.5886248 0.7928572
vt 0.3924165 0.7928572
vt 0.7848331 0
vt 0.7848331 1.057143
vt 0.5886248 1.057143
vt 0.9810414 0
vt 0.9810414 1.321429
vt 0.7848331 1.321429
vt 1.17725 0
vt 1.17725 1.585714
vt 0.9810414 1.585714
vt 1.373458 0
vt 1.373458 1.85
vt 1.17725 1.85
vt 1.293119 0
vt 1.293119 1.85

vn 0 0 -1
vn 0 1 0
vn 1 0 0
vn -1 0 0
vn 0 0 1

usemtl WoodGrid
f 70/124/51 72/127/51 74/126/51
f 74/126/51 76/130/51 78/129/51
f 78/129/51 80/133/51 82/132/51
f 82/132/51 84/136/51 86/135/51
f 86/135/51 88/139/51 90/138/51
f 90/138/51 92/142/51 94/141/51
f 73/146/52 71/147/52 69/144/52
f 77/149/52 75/150/52 73/146/52
f 81/152/52 79/153/52 77/149/52
f 85/155/52 83/156/52 81/152/52
f 89/158/52 87/159/52 85/155/52
f 93/161/52 91/162/52 89/158/52
f 68/96/49 66/94/49 65/93/49
f 65/93/49 67/95/49 68/96/49
f 70/98/50 68/94/50 67/93/50
f 67/93/50 69/97/50 70/98/50
f 72/100/49 70/96/49 69/95/49
f 69/95/49 71/99/49 72/100/49
f 74/102/50 72/98/50 71/97/50
f 71/97/50 73/101/50 74/102/50
f 76/104/49 74/100/49 73/99/49
f 73/99/49 75/103/49 76/104/49
f 78/106/50 76/102/50 75/101/50
f 75/101/50 77/105/50 78/106/50
f 80/108/49 78/104/49 77/103/49
f 77/103/49 79/107/49 80/108/49
f 82/110/50 80/106/50 79/105/50
f 79/105/50 81/109/50 82/110/50
f 84/112/49 82/108/49 81/107/49
f 81/107/49 83/111/49 84/112/49
f 86/114/50 84/110/50 83/109/50
f 83/109/50 85/113/50 86/114/50
f 88/116/49 86/112/49 85/111/49
f 85/111/49 87/115/49 88/116/49
f 90/118/50 88/114/50 87/113/50
f 87/113/50 89/117/50 90/118/50
f 92/120/49 90/116/49 89/115/49
f 89/115/49 91/119/49 92/120/49
f 94/122/50 92/118/50 91/117/50
f 91/117/50 93/121/50 94/122/50
f 70/124/51 95/123/51 66/93/51
f 66/93/51 68/95/51 70/124/51
f 74/126/51 96/125/51 95/123/51
f 95/123/51 70/124/51 74/126/51
f 78/129/51 97/128/51 96/125/51
f 96/125/51 74/126/51 78/129/51
f 82/132/51 98/131/51 97/128/51
f 97/128/51 78/129/51 82/132/51
f 86/135/51 99/134/51 98/131/51
f 98/131/51 82/132/51 86/135/51
f 90/138/51 100/137/51 99/134/51
f 99/134/51 86/135/51 90/138/51
f 94/141/51 101/140/51 100/137/51
f 100/137/51 90/138/51 94/141/51
f 67/95/52 65/93/52 102/143/52
f 102/143/52 69/144/52 67/95/52
f 69/144/52 102/143/52 103/145/52
f 103/145/52 73/146/52 69/144/52
f 73/146/52 103/145/52 104/148/52
f 104/148/52 77/149/52 73/146/52
f 77/149/52 104/148/52 105/151/52
f 105/151/52 81/152/52 77/149/52
f 81/152/52 105/151/52 106/154/52
f 106/154/52 85/155/52 81/152/52
f 85/155/52 106/154/52 107/157/52
f 107/157/52 89/158/52 85/155/52
f 89/158/52 107/157/52 108/160/52
f 108/160/52 93/161/52 89/158/52
f 93/119/53 108/93/53 101/163/53
f 101/163/53 94/164/53 93/119/53

